# This file uses centimeters as units for non-parametric coordinates.

mtllib props_cube_4.mtl
g default
v 0.105399 0.107473 0.072940
v 0.114729 0.109973 0.070352
v 0.102810 0.117132 0.072940
v 0.112140 0.119632 0.070352
v 0.100310 0.116462 0.063281
v 0.109641 0.118962 0.060692
v 0.102899 0.106803 0.063281
v 0.112229 0.109303 0.060692
v 0.096800 0.094076 0.081973
v 0.118451 0.081576 0.081973
v 0.109300 0.115727 0.081973
v 0.130951 0.103227 0.081973
v 0.109300 0.115727 0.056973
v 0.130951 0.103227 0.056973
v 0.096800 0.094076 0.056973
v 0.118451 0.081576 0.056973
v 0.116393 0.107120 0.068087
v 0.129384 0.114620 0.068087
v 0.116393 0.107120 0.053087
v 0.129384 0.114620 0.053087
v 0.123893 0.094130 0.053087
v 0.136884 0.101630 0.053087
v 0.123893 0.094130 0.068087
v 0.136884 0.101630 0.068087
vt 0.375000 0.000000
vt 0.625000 0.000000
vt 0.625000 0.250000
vt 0.375000 0.250000
vt 0.625000 0.500000
vt 0.375000 0.500000
vt 0.625000 0.750000
vt 0.375000 0.750000
vt 0.625000 1.000000
vt 0.375000 1.000000
vt 0.875000 0.000000
vt 0.875000 0.250000
vt 0.125000 0.000000
vt 0.125000 0.250000
vt 0.375000 0.000000
vt 0.625000 0.000000
vt 0.625000 0.250000
vt 0.375000 0.250000
vt 0.625000 0.500000
vt 0.375000 0.500000
vt 0.625000 0.750000
vt 0.375000 0.750000
vt 0.625000 1.000000
vt 0.375000 1.000000
vt 0.875000 0.000000
vt 0.875000 0.250000
vt 0.125000 0.000000
vt 0.125000 0.250000
vt 0.375000 0.000000
vt 0.625000 0.000000
vt 0.625000 0.250000
vt 0.375000 0.250000
vt 0.625000 0.500000
vt 0.375000 0.500000
vt 0.625000 0.750000
vt 0.375000 0.750000
vt 0.625000 1.000000
vt 0.375000 1.000000
vt 0.875000 0.000000
vt 0.875000 0.250000
vt 0.125000 0.000000
vt 0.125000 0.250000
vn 0.249999 0.066987 0.965926
vn 0.249999 0.066987 0.965926
vn 0.249999 0.066987 0.965926
vn 0.249999 0.066987 0.965926
vn -0.258819 0.965926 0.000001
vn -0.258819 0.965926 0.000001
vn -0.258819 0.965926 0.000001
vn -0.258819 0.965926 0.000001
vn -0.250000 -0.066987 -0.965926
vn -0.250000 -0.066987 -0.965926
vn -0.250000 -0.066987 -0.965926
vn -0.250000 -0.066987 -0.965926
vn 0.258819 -0.965926 0.000001
vn 0.258819 -0.965926 0.000001
vn 0.258819 -0.965926 0.000001
vn 0.258819 -0.965926 0.000001
vn 0.933013 0.249999 -0.258818
vn 0.933013 0.249999 -0.258818
vn 0.933013 0.249999 -0.258818
vn 0.933013 0.249999 -0.258818
vn -0.933013 -0.250001 0.258819
vn -0.933013 -0.250001 0.258819
vn -0.933013 -0.250001 0.258819
vn -0.933013 -0.250001 0.258819
vn 0.000000 0.000000 1.000000
vn 0.000000 0.000000 1.000000
vn 0.000000 0.000000 1.000000
vn 0.000000 0.000000 1.000000
vn 0.500000 0.866025 0.000000
vn 0.500000 0.866025 0.000000
vn 0.500000 0.866025 0.000000
vn 0.500000 0.866025 0.000000
vn 0.000000 0.000000 -1.000000
vn 0.000000 0.000000 -1.000000
vn 0.000000 0.000000 -1.000000
vn 0.000000 0.000000 -1.000000
vn -0.500000 -0.866025 0.000000
vn -0.500000 -0.866025 0.000000
vn -0.500000 -0.866025 0.000000
vn -0.500000 -0.866025 0.000000
vn 0.866025 -0.500000 0.000000
vn 0.866025 -0.500000 0.000000
vn 0.866025 -0.500000 0.000000
vn 0.866025 -0.500000 0.000000
vn -0.866025 0.500000 0.000000
vn -0.866025 0.500000 0.000000
vn -0.866025 0.500000 0.000000
vn -0.866025 0.500000 0.000000
vn -0.500000 0.866025 0.000000
vn -0.500000 0.866025 0.000000
vn -0.500000 0.866025 0.000000
vn -0.500000 0.866025 0.000000
vn 0.000000 0.000000 -1.000000
vn 0.000000 0.000000 -1.000000
vn 0.000000 0.000000 -1.000000
vn 0.000000 0.000000 -1.000000
vn 0.500000 -0.866026 0.000000
vn 0.500000 -0.866026 0.000000
vn 0.500000 -0.866026 0.000000
vn 0.500000 -0.866026 0.000000
vn 0.000000 0.000000 1.000000
vn 0.000000 0.000000 1.000000
vn 0.000000 0.000000 1.000000
vn 0.000000 0.000000 1.000000
vn 0.866025 0.500001 0.000000
vn 0.866025 0.500001 0.000000
vn 0.866025 0.500001 0.000000
vn 0.866025 0.500001 0.000000
vn -0.866026 -0.499999 0.000000
vn -0.866026 -0.499999 0.000000
vn -0.866026 -0.499999 0.000000
vn -0.866026 -0.499999 0.000000
s off
g polySurface15
usemtl initialShadingGroup
f 1/1/1 2/2/2 4/3/3 3/4/4
f 3/4/5 4/3/6 6/5/7 5/6/8
f 5/6/9 6/5/10 8/7/11 7/8/12
f 7/8/13 8/7/14 2/9/15 1/10/16
f 2/2/17 8/11/18 6/12/19 4/3/20
f 7/13/21 1/1/22 3/4/23 5/14/24
f 9/15/25 10/16/26 12/17/27 11/18/28
f 11/18/29 12/17/30 14/19/31 13/20/32
f 13/20/33 14/19/34 16/21/35 15/22/36
f 15/22/37 16/21/38 10/23/39 9/24/40
f 10/16/41 16/25/42 14/26/43 12/17/44
f 15/27/45 9/15/46 11/18/47 13/28/48
f 17/29/49 18/30/50 20/31/51 19/32/52
f 19/32/53 20/31/54 22/33/55 21/34/56
f 21/34/57 22/33/58 24/35/59 23/36/60
f 23/36/61 24/35/62 18/37/63 17/38/64
f 18/30/65 24/39/66 22/40/67 20/31/68
f 23/41/69 17/29/70 19/32/71 21/42/72
