# This file uses centimeters as units for non-parametric coordinates.

mtllib props_house.mtl
g default
v -0.050000 0.000000 0.050000
v 0.050000 0.000000 0.050000
v -0.050000 0.057829 0.050000
v 0.050000 0.057829 0.050000
v -0.050000 0.100000 0.000000
v 0.050000 0.100000 0.000000
v -0.050000 0.057829 -0.050000
v 0.050000 0.057829 -0.050000
v -0.050000 0.000000 -0.050000
v 0.050000 0.000000 -0.050000
v -0.022000 0.070489 0.033017
v -0.012000 0.070489 0.033017
v -0.022000 0.100489 0.033017
v -0.012000 0.100489 0.033017
v -0.022000 0.100489 0.023017
v -0.012000 0.100489 0.023017
v -0.022000 0.070489 0.023017
v -0.012000 0.070489 0.023017
vt 0.375000 0.000000
vt 0.625000 0.000000
vt 0.375000 0.125000
vt 0.625000 0.125000
vt 0.291667 0.333333
vt 0.708333 0.333333
vt 0.375000 0.625000
vt 0.625000 0.625000
vt 0.375000 0.750000
vt 0.625000 0.750000
vt 0.375000 1.000000
vt 0.625000 1.000000
vt 0.875000 0.000000
vt 0.875000 0.125000
vt 0.125000 0.000000
vt 0.125000 0.125000
vt 0.375000 0.000000
vt 0.625000 0.000000
vt 0.625000 0.250000
vt 0.375000 0.250000
vt 0.625000 0.500000
vt 0.375000 0.500000
vt 0.625000 0.750000
vt 0.375000 0.750000
vt 0.875000 0.000000
vt 0.875000 0.250000
vt 0.125000 0.000000
vt 0.125000 0.250000
vn 0.000000 0.000000 1.000000
vn 0.000000 0.000000 1.000000
vn 0.000000 0.447214 0.894427
vn 0.000000 0.447214 0.894427
vn 0.000000 0.764418 0.644721
vn 0.000000 0.764418 0.644721
vn 0.000000 0.764418 -0.644721
vn 0.000000 0.764418 -0.644721
vn 0.000000 0.447214 -0.894427
vn 0.000000 0.447214 -0.894427
vn 0.000000 0.000000 -1.000000
vn 0.000000 0.000000 -1.000000
vn 0.000000 -1.000000 0.000000
vn 0.000000 -1.000000 0.000000
vn 0.000000 -1.000000 0.000000
vn 0.000000 -1.000000 0.000000
vn 1.000000 0.000000 0.000000
vn 1.000000 0.000000 0.000000
vn 1.000000 0.000000 0.000000
vn 1.000000 0.000000 0.000000
vn 1.000000 0.000000 0.000000
vn -1.000000 0.000000 0.000000
vn -1.000000 0.000000 0.000000
vn -1.000000 0.000000 0.000000
vn -1.000000 0.000000 0.000000
vn -1.000000 0.000000 0.000000
vn 0.000000 0.000000 1.000000
vn 0.000000 0.000000 1.000000
vn 0.000000 0.000000 1.000000
vn 0.000000 0.000000 1.000000
vn 0.000000 1.000000 0.000000
vn 0.000000 1.000000 0.000000
vn 0.000000 1.000000 0.000000
vn 0.000000 1.000000 0.000000
vn 0.000000 0.000000 -1.000000
vn 0.000000 0.000000 -1.000000
vn 0.000000 0.000000 -1.000000
vn 0.000000 0.000000 -1.000000
vn 1.000000 0.000000 0.000000
vn 1.000000 0.000000 0.000000
vn 1.000000 0.000000 0.000000
vn 1.000000 0.000000 0.000000
vn -1.000000 0.000000 0.000000
vn -1.000000 0.000000 0.000000
vn -1.000000 0.000000 0.000000
vn -1.000000 0.000000 0.000000
s 1
g pCube3
usemtl initialShadingGroup
f 1/1/1 2/2/2 4/4/3 3/3/4
f 3/3/4 4/4/3 6/6/5 5/5/6
s 2
f 5/5/7 6/6/8 8/8/9 7/7/10
f 7/7/10 8/8/9 10/10/11 9/9/12
s off
f 9/9/13 10/10/14 2/12/15 1/11/16
s 3
f 2/2/17 10/13/18 8/14/19 4/4/20
f 4/4/20 8/14/19 6/6/21
s 4
f 9/15/22 1/1/23 3/3/24 7/16/25
f 7/16/25 3/3/24 5/5/26
s off
f 11/17/27 12/18/28 14/19/29 13/20/30
f 13/20/31 14/19/32 16/21/33 15/22/34
f 15/22/35 16/21/36 18/23/37 17/24/38
f 12/18/39 18/25/40 16/26/41 14/19/42
f 17/27/43 11/17/44 13/20/45 15/28/46
