# This file uses centimeters as units for non-parametric coordinates.

mtllib props_tree_b1.mtl
g default
v -0.025790 -0.009295 0.023934
v 0.009863 -0.009295 0.001777
v -0.023163 0.008896 0.021943
v 0.011716 0.009482 -0.002196
v -0.017549 0.028023 0.009718
v 0.001621 0.028023 -0.002195
v -0.017549 0.055217 -0.002227
v 0.001621 0.055217 -0.014140
v -0.017549 0.077259 -0.005833
v 0.001621 0.080991 -0.017746
v -0.017549 0.102465 0.001854
v 0.001621 0.108715 -0.010059
v -0.017549 0.119178 0.010499
v 0.001621 0.128399 -0.001414
v -0.017549 0.128399 -0.005781
v -0.017549 0.108715 -0.021972
v -0.017549 0.077291 -0.029659
v -0.009763 0.050920 -0.023420
v -0.017549 0.028023 -0.014108
v -0.023163 0.008894 -0.023947
v -0.025790 -0.009295 -0.026939
v -0.024350 0.131305 0.051852
v -0.009818 0.134815 0.042405
v -0.028987 0.134488 0.038886
v -0.015290 0.182626 0.058457
v -0.035036 0.138003 -0.025837
v -0.010695 0.128291 -0.018807
v -0.027252 0.125983 -0.038516
v 0.017186 0.162556 -0.069122
v -0.063620 0.161681 -0.005766
v -0.045241 0.161147 -0.005630
v -0.047239 0.161039 -0.018739
v -0.064214 0.167323 -0.018439
v -0.086659 0.209295 -0.031112
vt 0.375000 0.000000
vt 0.750000 0.000000
vt 0.375000 0.041667
vt 0.750000 0.041667
vt 0.375000 0.083333
vt 0.750000 0.083333
vt 0.375000 0.125000
vt 0.750000 0.125000
vt 0.375000 0.166667
vt 0.750000 0.166667
vt 0.375000 0.208333
vt 0.750000 0.208333
vt 0.375000 0.250000
vt 0.708333 0.333333
vt 0.375000 0.500000
vt 0.375000 0.541667
vt 0.625000 0.541667
vt 0.375000 0.583333
vt 0.625000 0.583333
vt 0.375000 0.625000
vt 0.625000 0.625000
vt 0.375000 0.666667
vt 0.625000 0.666667
vt 0.375000 0.708333
vt 0.625000 0.708333
vt 0.375000 0.750000
vt 0.625000 0.875000
vt 0.125000 0.000000
vt 0.125000 0.041667
vt 0.125000 0.083333
vt 0.125000 0.125000
vt 0.125000 0.166667
vt 0.125000 0.208333
vt 0.125000 0.250000
vt 0.375000 0.250000
vt 0.708333 0.333333
vt 0.375000 0.500000
vt 0.458333 0.395833
vt 0.375000 0.500000
vt 0.708333 0.333333
vt 0.500000 0.541667
vt 0.489583 0.468750
vt 0.375000 0.500000
vt 0.708333 0.333333
vt 0.708333 0.333333
vt 0.375000 0.500000
vt 0.500000 0.437500
vn 0.547052 0.068287 0.834309
vn 0.547052 0.068287 0.834309
vn 0.541556 0.174272 0.822403
vn 0.543275 0.151431 0.825785
vn 0.509839 0.333488 0.793001
vn 0.512078 0.331104 0.792556
vn 0.507830 0.240312 0.827260
vn 0.505852 0.260949 0.822204
vn 0.547828 -0.083279 0.832436
vn 0.544690 -0.054050 0.836894
vn 0.573912 -0.284457 0.767926
vn 0.572355 -0.279566 0.770878
vn 0.573427 -0.620434 0.535018
vn 0.553271 -0.695485 0.458466
vn 0.499891 0.217876 -0.838236
vn 0.499891 0.217876 -0.838236
vn 0.535555 0.112626 -0.836957
vn 0.541733 0.091963 -0.835505
vn 0.579363 -0.224868 -0.783436
vn 0.578201 -0.243979 -0.778561
vn 0.556048 0.034481 -0.830435
vn 0.557824 0.021195 -0.829689
vn 0.562338 0.041714 -0.825854
vn 0.564974 0.025893 -0.824702
vn 0.579962 -0.091788 -0.809456
vn 0.579962 -0.091789 -0.809456
vn -0.989725 0.142982 -0.000003
vn -0.989725 0.142982 -0.000003
vn -0.982159 0.188052 -0.000004
vn -0.981836 0.189731 -0.000004
vn -0.974254 0.218124 -0.057019
vn -0.978230 0.191226 -0.080615
vn -0.985057 -0.045697 -0.166057
vn -0.984441 -0.062034 -0.164399
vn -0.994546 -0.081259 -0.065385
vn -0.994011 -0.085137 -0.068506
vn -1.000000 0.000000 0.000000
vn -0.981054 -0.165374 0.100921
vn -0.950139 -0.308281 -0.046884
vn -0.898314 -0.431705 0.081632
vn 0.491269 -0.823252 0.284448
vn 0.491269 -0.823252 0.284448
vn 0.019326 0.990656 -0.135009
vn 0.019326 0.990656 -0.135009
vn 0.019326 0.990656 -0.135009
vn 0.019326 0.990656 -0.135009
vn -0.969542 -0.120306 0.213343
vn -0.940696 -0.333727 0.060965
vn 0.567655 -0.202895 0.797873
vn 0.567655 -0.202895 0.797873
vn 0.567655 -0.202895 0.797873
vn 0.164930 0.330826 -0.929167
vn 0.164930 0.330826 -0.929167
vn 0.164930 0.330826 -0.929167
vn -0.925653 0.117114 0.359793
vn 0.705925 0.551533 -0.444389
vn 0.765072 0.209195 -0.609017
vn 0.765072 0.209195 -0.609017
vn 0.697579 0.521549 -0.491295
vn 0.468849 -0.459336 -0.754448
vn 0.468849 -0.459336 -0.754448
vn 0.468849 -0.459336 -0.754448
vn -0.724094 -0.683284 0.093870
vn -0.839456 -0.463874 0.283083
vn 0.136388 0.782025 0.608141
vn 0.136388 0.782025 0.608141
vn 0.136388 0.782025 0.608141
vn 0.473743 -0.827596 -0.301084
vn 0.473743 -0.827596 -0.301084
vn 0.473743 -0.827596 -0.301084
vn -0.686403 0.268423 -0.675870
vn -0.686403 0.268423 -0.675870
vn -0.686403 0.268423 -0.675870
vn -0.119904 -0.105969 0.987114
vn -0.119904 -0.105969 0.987114
vn -0.119904 -0.105969 0.987114
vn -0.119904 -0.105969 0.987114
vn 0.483472 0.626178 -0.611683
vn 0.600409 0.746401 -0.287045
vn 0.303023 0.423545 -0.853690
vn 0.303023 0.423545 -0.853690
vn -0.639803 -0.768526 -0.004529
vn -0.639803 -0.768526 -0.004529
vn 0.007177 0.472594 0.881251
vn 0.007177 0.472594 0.881251
vn 0.007177 0.472594 0.881251
vn 0.783815 0.608393 -0.124466
vn 0.783815 0.608393 -0.124466
vn 0.783815 0.608393 -0.124466
vn -0.148823 -0.357933 -0.921811
vn -0.148823 -0.357933 -0.921811
vn -0.148823 -0.357933 -0.921811
vn -0.841989 -0.506424 -0.185983
vn -0.841989 -0.506424 -0.185983
vn -0.841989 -0.506424 -0.185983
s 1
g pCube2
usemtl lambert3SG
f 1/1/1 2/2/2 4/4/3 3/3/4
f 3/3/4 4/4/3 6/6/5 5/5/6
f 5/5/6 6/6/5 8/8/7 7/7/8
f 7/7/8 8/8/7 10/10/9 9/9/10
f 9/9/10 10/10/9 12/12/11 11/11/12
f 11/11/12 12/12/11 14/14/13 13/13/14
s 2
f 16/16/15 12/17/16 10/19/17 17/18/18
f 17/18/18 10/19/17 8/21/19 18/20/20
f 18/20/20 8/21/19 6/23/21 19/22/22
f 19/22/22 6/23/21 4/25/23 20/24/24
f 20/24/24 4/25/23 2/27/25 21/26/26
s 3
f 21/28/27 1/1/28 3/3/29 20/29/30
f 20/29/30 3/3/29 5/5/31 19/30/32
f 19/30/32 5/5/31 7/7/33 18/31/34
f 18/31/34 7/7/33 9/9/35 17/32/36
f 17/32/36 9/9/35 11/11/37 16/33/38
f 16/33/38 11/11/37 13/13/39 15/34/40
s 1
f 13/13/14 14/14/13 23/36/41 22/35/42
s off
f 14/14/43 15/15/44 24/37/45 23/36/46
s 3
f 15/15/40 13/13/39 22/35/47 24/37/48
s off
f 22/35/49 23/36/50 25/38/51
f 23/36/52 24/37/53 25/38/54
s 3
f 24/37/48 22/35/47 25/38/55
s 4
f 14/14/56 12/17/57 28/41/58 27/40/59
s off
f 12/17/60 16/16/61 28/41/62
s 3
f 16/16/38 15/15/40 26/39/63 28/41/64
s off
f 26/39/65 27/40/66 29/42/67
f 27/40/68 28/41/69 29/42/70
f 28/41/71 26/39/72 29/42/73
f 15/15/74 14/14/75 31/44/76 30/43/77
s 4
f 14/14/56 27/40/59 32/45/78 31/44/79
f 27/40/59 26/39/80 33/46/81 32/45/78
s 3
f 26/39/63 15/15/40 30/43/82 33/46/83
s off
f 30/43/84 31/44/85 34/47/86
f 31/44/87 32/45/88 34/47/89
f 32/45/90 33/46/91 34/47/92
f 33/46/93 30/43/94 34/47/95
