# This file uses centimeters as units for non-parametric coordinates.

mtllib props_appartment.mtl
g default
v -0.050000 -0.000000 0.050000
v 0.050000 -0.000000 0.050000
v -0.050000 0.050000 0.050000
v 0.050000 0.050000 0.050000
v -0.050000 0.298391 0.050000
v 0.050000 0.298391 0.050000
v -0.050000 0.298391 -0.050000
v 0.050000 0.298391 -0.050000
v -0.050000 0.050000 -0.050000
v 0.050000 0.050000 -0.050000
v -0.050000 -0.000000 -0.050000
v 0.050000 -0.000000 -0.050000
v -0.050000 0.061939 0.050000
v 0.050000 0.061472 0.050000
v -0.050000 0.061939 -0.050000
v 0.050000 0.061472 -0.050000
v -0.050000 0.287058 -0.050000
v 0.050000 0.287058 -0.050000
v -0.050000 0.287058 0.050000
v 0.050000 0.287058 0.050000
v -0.054990 0.048818 0.055000
v 0.055010 0.048841 0.055000
v 0.055010 0.062607 0.055000
v -0.054990 0.063145 0.055000
v 0.055010 0.048841 -0.055000
v 0.055010 0.062607 -0.055000
v -0.054990 0.048818 -0.055000
v -0.054990 0.063145 -0.055000
v -0.055000 0.303910 -0.055000
v 0.055000 0.303910 -0.055000
v 0.055000 0.288379 -0.055000
v -0.055000 0.288379 -0.055000
v 0.055000 0.288379 0.055000
v -0.055000 0.288379 0.055000
v 0.055000 0.303910 0.055000
v -0.055000 0.303910 0.055000
v -0.041971 0.298391 -0.005042
v -0.006259 0.298391 -0.005042
v -0.006259 0.298391 -0.039521
v -0.041971 0.298391 -0.039521
v -0.041971 0.325371 -0.005042
v -0.006259 0.325371 -0.005042
v -0.006259 0.325371 -0.039521
v -0.041971 0.325371 -0.039521
vt 0.375000 0.000000
vt 0.625000 0.000000
vt 0.375000 0.125000
vt 0.625000 0.125000
vt 0.375000 0.250000
vt 0.625000 0.250000
vt 0.375000 0.500000
vt 0.625000 0.500000
vt 0.375000 0.625000
vt 0.625000 0.625000
vt 0.375000 0.750000
vt 0.625000 0.750000
vt 0.375000 1.000000
vt 0.625000 1.000000
vt 0.875000 0.000000
vt 0.875000 0.125000
vt 0.875000 0.250000
vt 0.125000 0.000000
vt 0.125000 0.125000
vt 0.125000 0.250000
vt 0.375000 0.130970
vt 0.625000 0.130736
vt 0.125000 0.130970
vt 0.375000 0.619030
vt 0.625000 0.619264
vt 0.875000 0.130736
vt 0.125000 0.243529
vt 0.375000 0.506471
vt 0.625000 0.506471
vt 0.875000 0.243529
vt 0.375000 0.243529
vt 0.625000 0.243529
vt 0.375000 0.125000
vt 0.625000 0.125000
vt 0.625000 0.130736
vt 0.375000 0.130970
vt 0.875000 0.125000
vt 0.875000 0.130736
vt 0.125000 0.125000
vt 0.125000 0.130970
vt 0.375000 0.619030
vt 0.625000 0.619264
vt 0.625000 0.625000
vt 0.375000 0.625000
vt 0.375000 0.500000
vt 0.625000 0.500000
vt 0.625000 0.506471
vt 0.375000 0.506471
vt 0.375000 0.243529
vt 0.625000 0.243529
vt 0.625000 0.250000
vt 0.375000 0.250000
vt 0.875000 0.243529
vt 0.875000 0.250000
vt 0.125000 0.243529
vt 0.125000 0.250000
vt 0.375000 0.250000
vt 0.625000 0.250000
vt 0.625000 0.500000
vt 0.375000 0.500000
vt 0.375000 0.250000
vt 0.625000 0.250000
vt 0.625000 0.500000
vt 0.375000 0.500000
vn 0.000000 0.000000 1.000000
vn 0.000000 0.000000 1.000000
vn 0.000000 0.000000 1.000000
vn 0.000000 0.000000 1.000000
vn 0.000000 0.000000 1.000000
vn 0.000000 0.000000 1.000000
vn 0.000000 0.000000 1.000000
vn 0.000000 0.000000 1.000000
vn 0.000000 1.000000 0.000000
vn 0.000000 1.000000 0.000000
vn 0.000000 1.000000 0.000000
vn 0.000000 1.000000 0.000000
vn 0.000000 0.000000 -1.000000
vn 0.000000 0.000000 -1.000000
vn 0.000000 0.000000 -1.000000
vn 0.000000 0.000000 -1.000000
vn 0.000000 0.000000 -1.000000
vn 0.000000 0.000000 -1.000000
vn 0.000000 0.000000 -1.000000
vn 0.000000 0.000000 -1.000000
vn 0.000000 -1.000000 0.000000
vn 0.000000 -1.000000 0.000000
vn 0.000000 -1.000000 0.000000
vn 0.000000 -1.000000 0.000000
vn 1.000000 0.000000 0.000000
vn 1.000000 0.000000 0.000000
vn 1.000000 0.000000 0.000000
vn 1.000000 0.000000 0.000000
vn 1.000000 0.000000 0.000000
vn 1.000000 0.000000 0.000000
vn 1.000000 0.000000 0.000000
vn 1.000000 0.000000 0.000000
vn -1.000000 0.000000 0.000000
vn -1.000000 0.000000 0.000000
vn -1.000000 0.000000 0.000000
vn -1.000000 0.000000 0.000000
vn -1.000000 0.000000 0.000000
vn -1.000000 0.000000 0.000000
vn -1.000000 0.000000 0.000000
vn -1.000000 0.000000 0.000000
vn -0.000000 0.000000 1.000000
vn -0.000000 0.000000 1.000000
vn -0.000000 0.000000 1.000000
vn -0.000000 0.000000 1.000000
vn 0.000000 0.000000 -1.000000
vn 0.000000 0.000000 -1.000000
vn 0.000000 0.000000 -1.000000
vn 0.000000 0.000000 -1.000000
vn 1.000000 0.000000 0.000000
vn 1.000000 0.000000 0.000000
vn 1.000000 0.000000 0.000000
vn 1.000000 0.000000 0.000000
vn -1.000000 0.000000 0.000000
vn -1.000000 0.000000 0.000000
vn -1.000000 0.000000 0.000000
vn -1.000000 0.000000 0.000000
vn 0.000000 0.000000 -1.000000
vn 0.000000 0.000000 -1.000000
vn 0.000000 0.000000 -1.000000
vn 0.000000 0.000000 -1.000000
vn 0.000000 0.000000 1.000000
vn 0.000000 0.000000 1.000000
vn 0.000000 0.000000 1.000000
vn 0.000000 0.000000 1.000000
vn 1.000000 0.000000 0.000000
vn 1.000000 0.000000 0.000000
vn 1.000000 0.000000 0.000000
vn 1.000000 0.000000 0.000000
vn -1.000000 0.000000 0.000000
vn -1.000000 0.000000 0.000000
vn -1.000000 0.000000 0.000000
vn -1.000000 0.000000 0.000000
vn 0.116848 -0.986406 -0.115539
vn -0.114130 -0.986737 -0.115436
vn -0.114321 -0.986737 -0.115242
vn 0.116652 -0.986407 -0.115733
vn -0.109600 0.987246 -0.115469
vn 0.121363 0.985865 -0.115501
vn 0.121273 0.985866 -0.115590
vn -0.109692 0.987247 -0.115376
vn -0.114130 -0.986737 0.115436
vn -0.114321 -0.986737 0.115242
vn -0.109600 0.987246 0.115469
vn -0.109692 0.987247 0.115376
vn 0.116848 -0.986406 0.115539
vn 0.116652 -0.986407 0.115733
vn 0.121363 0.985865 0.115501
vn 0.121273 0.985866 0.115590
vn 0.435057 0.788322 0.435057
vn -0.435057 0.788322 0.435057
vn -0.435057 0.788322 0.435057
vn 0.435057 0.788322 0.435057
vn 0.129909 -0.982979 -0.129909
vn -0.129909 -0.982979 -0.129909
vn -0.129909 -0.982979 -0.129909
vn 0.129909 -0.982979 -0.129909
vn -0.129909 -0.982979 0.129909
vn 0.129909 -0.982979 0.129909
vn 0.129909 -0.982979 0.129909
vn -0.129909 -0.982979 0.129909
vn -0.435057 0.788322 -0.435057
vn 0.435057 0.788322 -0.435057
vn 0.435057 0.788322 -0.435057
vn -0.435057 0.788322 -0.435057
vn 0.000000 1.000000 -0.000000
vn 0.000000 1.000000 -0.000000
vn 0.000000 1.000000 -0.000000
vn 0.000000 1.000000 -0.000000
vn 0.000000 1.000000 0.000000
vn 0.000000 1.000000 0.000000
vn 0.000000 1.000000 0.000000
vn 0.000000 1.000000 0.000000
vn 0.000000 0.000000 1.000000
vn 0.000000 0.000000 1.000000
vn 0.000000 0.000000 1.000000
vn 0.000000 0.000000 1.000000
vn 1.000000 0.000000 0.000000
vn 1.000000 0.000000 0.000000
vn 1.000000 0.000000 0.000000
vn 1.000000 0.000000 0.000000
vn 0.000000 0.000000 -1.000000
vn 0.000000 0.000000 -1.000000
vn 0.000000 0.000000 -1.000000
vn 0.000000 0.000000 -1.000000
vn -1.000000 0.000000 0.000000
vn -1.000000 0.000000 0.000000
vn -1.000000 0.000000 0.000000
vn -1.000000 0.000000 0.000000
s off
g pCube1
usemtl initialShadingGroup
f 1/1/1 2/2/2 4/4/3 3/3/4
f 21/33/5 22/34/6 23/35/7 24/36/8
f 41/61/9 42/62/10 43/63/11 44/64/12
f 29/45/13 30/46/14 31/47/15 32/48/16
f 9/9/17 10/10/18 12/12/19 11/11/20
f 11/11/21 12/12/22 2/14/23 1/13/24
f 2/2/25 12/15/26 10/16/27 4/4/28
f 22/34/29 25/37/30 26/38/31 23/35/32
f 11/18/33 1/1/34 3/3/35 9/19/36
f 27/39/37 21/33/38 24/36/39 28/40/40
f 13/21/41 14/22/42 20/32/43 19/31/44
f 28/41/45 26/42/46 25/43/47 27/44/48
f 14/22/49 16/26/50 18/30/51 20/32/52
f 15/23/53 13/21/54 19/31/55 17/27/56
f 17/28/57 18/29/58 16/25/59 15/24/60
f 34/49/61 33/50/62 35/51/63 36/52/64
f 33/50/65 31/53/66 30/54/67 35/51/68
f 32/55/69 34/49/70 36/52/71 29/56/72
s 1
f 3/3/73 4/4/74 22/34/75 21/33/76
s 2
f 14/22/77 13/21/78 24/36/79 23/35/80
s 1
f 4/4/74 10/16/81 25/37/82 22/34/75
s 2
f 16/26/83 14/22/77 23/35/80 26/38/84
s 1
f 9/19/85 3/3/73 21/33/76 27/39/86
s 2
f 13/21/78 15/23/87 28/40/88 24/36/79
f 15/24/87 16/25/83 26/42/84 28/41/88
s 1
f 10/10/81 9/9/85 27/44/86 25/43/82
s 3
f 7/7/89 8/8/90 30/46/91 29/45/92
s 4
f 18/29/93 17/28/94 32/48/95 31/47/96
f 19/31/97 20/32/98 33/50/99 34/49/100
s 3
f 6/6/101 5/5/102 36/52/103 35/51/104
s 4
f 20/32/98 18/30/93 31/53/96 33/50/99
s 3
f 8/17/90 6/6/101 35/51/104 30/54/91
s 4
f 17/27/94 19/31/97 34/49/100 32/55/95
s 3
f 5/5/102 7/20/89 29/56/92 36/52/103
s 5
f 5/5/105 6/6/106 38/58/107 37/57/108
f 6/6/106 8/8/109 39/59/110 38/58/107
f 8/8/109 7/7/111 40/60/112 39/59/110
f 7/7/111 5/5/105 37/57/108 40/60/112
s off
f 37/57/113 38/58/114 42/62/115 41/61/116
f 38/58/117 39/59/118 43/63/119 42/62/120
f 39/59/121 40/60/122 44/64/123 43/63/124
f 40/60/125 37/57/126 41/61/127 44/64/128
