# This file uses centimeters as units for non-parametric coordinates.

mtllib props_tree.mtl
g default
v -0.000000 -0.000000 0.100000
v 0.050000 -0.000000 0.100000
v -0.000000 0.250000 0.064027
v 0.050000 0.250000 0.064027
v -0.000000 0.250000 -0.064027
v 0.050000 0.250000 -0.064027
v -0.000000 -0.000000 -0.100000
v 0.050000 -0.000000 -0.100000
v -0.000000 0.350000 0.100524
v 0.050000 0.350000 0.100524
v 0.050000 0.350000 -0.100524
v -0.000000 0.350000 -0.100524
v -0.000000 0.450000 0.250000
v 0.050000 0.450000 0.250000
v 0.050000 0.450000 -0.250000
v -0.000000 0.450000 -0.250000
v -0.000000 0.700000 0.250000
v 0.050000 0.700000 0.250000
v 0.050000 0.700000 -0.250000
v -0.000000 0.700000 -0.250000
v -0.000000 0.800000 0.100000
v 0.050000 0.800000 0.100000
v 0.050000 0.800000 -0.100000
v -0.000000 0.800000 -0.100000
vt 0.973882 0.008628
vt 0.992465 0.008628
vt 0.992465 0.101541
vt 0.973882 0.101541
vt 0.992465 0.138706
vt 0.973882 0.138706
vt 0.992465 0.175872
vt 0.973882 0.175872
vt 0.992465 0.268785
vt 0.973882 0.268785
vt 0.992465 0.305950
vt 0.973882 0.305950
vt 0.973796 0.009350
vt 0.992379 0.009350
vt 0.992379 0.083681
vt 0.973796 0.083681
vt 0.992379 0.139429
vt 0.973796 0.139429
vt 0.973766 0.212605
vt 0.992349 0.212605
vt 0.992349 0.305519
vt 0.973766 0.305519
vt 0.973766 0.175440
vt 0.992349 0.175440
vt 0.973766 0.138275
vt 0.992349 0.138275
vt 0.973766 0.045361
vt 0.992349 0.045361
vt 0.973907 0.140719
vt 0.992490 0.140719
vt 0.992490 0.215050
vt 0.973907 0.215050
vt 0.842405 0.011505
vt 0.899533 0.011505
vt 0.889258 0.082914
vt 0.852681 0.082914
vt 0.899683 0.111478
vt 0.842256 0.111478
vt 0.942379 0.140042
vt 0.799559 0.140042
vt 0.942379 0.211452
vt 0.799559 0.211452
vt 0.899533 0.240016
vt 0.842405 0.240016
vt 0.842487 0.011505
vt 0.899614 0.011505
vt 0.889339 0.082914
vt 0.852762 0.082914
vt 0.899764 0.111478
vt 0.842337 0.111478
vt 0.942460 0.140042
vt 0.799641 0.140042
vt 0.942460 0.211452
vt 0.799641 0.211452
vt 0.899614 0.240016
vt 0.842487 0.240016
vn 0.000000 0.142425 0.989806
vn 0.000000 0.142425 0.989806
vn 0.000000 -0.001497 0.999999
vn 0.000000 -0.001497 0.999999
vn 0.000000 1.000000 0.000000
vn 0.000000 1.000000 0.000000
vn 0.000000 1.000000 0.000000
vn 0.000000 1.000000 0.000000
vn 0.000000 -0.001497 -0.999999
vn 0.000000 -0.001497 -0.999999
vn 0.000000 0.142425 -0.989806
vn 0.000000 0.142425 -0.989806
vn 0.000000 -1.000000 0.000000
vn 0.000000 -1.000000 0.000000
vn 0.000000 -1.000000 0.000000
vn 0.000000 -1.000000 0.000000
vn 1.000000 -0.000000 0.000000
vn 1.000000 -0.000000 0.000000
vn 1.000000 -0.000000 0.000000
vn 1.000000 -0.000000 0.000000
vn -1.000000 0.000000 0.000000
vn -1.000000 0.000000 0.000000
vn -1.000000 -0.000000 0.000000
vn -1.000000 -0.000000 0.000000
vn 0.000000 -0.342848 0.939391
vn 0.000000 -0.342848 0.939391
vn 1.000000 -0.000000 0.000000
vn 1.000000 -0.000000 0.000000
vn 0.000000 -0.342848 -0.939391
vn 0.000000 -0.342848 -0.939391
vn -1.000000 0.000000 0.000000
vn -1.000000 0.000000 0.000000
vn 0.000000 -0.831153 0.556044
vn 0.000000 -0.831153 0.556044
vn 0.000000 -0.831153 0.556044
vn 0.000000 -0.831153 0.556044
vn 1.000000 -0.000000 0.000000
vn 1.000000 -0.000000 0.000000
vn 0.000000 -0.831153 -0.556044
vn 0.000000 -0.831153 -0.556044
vn 0.000000 -0.831153 -0.556044
vn 0.000000 -0.831153 -0.556044
vn -1.000000 0.000000 0.000000
vn -1.000000 0.000000 0.000000
vn 0.000000 0.000000 1.000000
vn 0.000000 0.000000 1.000000
vn 0.000000 0.000000 1.000000
vn 0.000000 0.000000 1.000000
vn 1.000000 -0.000000 0.000000
vn 1.000000 -0.000000 0.000000
vn 0.000000 0.000000 -1.000000
vn 0.000000 0.000000 -1.000000
vn 0.000000 0.000000 -1.000000
vn 0.000000 0.000000 -1.000000
vn -1.000000 -0.000000 0.000000
vn -1.000000 -0.000000 0.000000
vn 0.000000 0.832050 0.554700
vn 0.000000 0.832050 0.554700
vn 0.000000 0.832050 0.554700
vn 0.000000 0.832050 0.554700
vn 1.000000 -0.000000 0.000000
vn 1.000000 -0.000000 0.000000
vn 0.000000 0.832050 -0.554700
vn 0.000000 0.832050 -0.554700
vn 0.000000 0.832050 -0.554700
vn 0.000000 0.832050 -0.554700
vn -1.000000 -0.000000 0.000000
vn -1.000000 -0.000000 0.000000
s 1
g pCube1
usemtl lambert2SG
f 1/1/1 2/2/2 4/3/3 3/4/4
s off
f 21/13/5 22/14/6 23/15/7 24/16/8
s 2
f 5/19/9 6/20/10 8/21/11 7/22/12
s off
f 7/29/13 8/30/14 2/31/15 1/32/16
s 3
f 2/33/17 8/34/18 6/35/19 4/36/20
s 4
f 7/45/21 1/46/22 3/47/23 5/48/24
s 1
f 3/4/4 4/3/3 10/5/25 9/6/26
s 3
f 4/36/20 6/35/19 11/37/27 10/38/28
s 2
f 6/20/10 5/19/9 12/23/29 11/24/30
s 4
f 5/48/24 3/47/23 9/49/31 12/50/32
s off
f 9/6/33 10/5/34 14/7/35 13/8/36
s 3
f 10/38/28 11/37/27 15/39/37 14/40/38
s off
f 11/24/39 12/23/40 16/25/41 15/26/42
s 4
f 12/50/32 9/49/31 13/51/43 16/52/44
s off
f 13/8/45 14/7/46 18/9/47 17/10/48
s 3
f 14/40/38 15/39/37 19/41/49 18/42/50
s off
f 15/26/51 16/25/52 20/27/53 19/28/54
s 4
f 16/52/44 13/51/43 17/53/55 20/54/56
s off
f 17/10/57 18/9/58 22/11/59 21/12/60
s 3
f 18/42/50 19/41/49 23/43/61 22/44/62
s off
f 19/17/63 20/18/64 24/16/65 23/15/66
s 4
f 20/54/56 17/53/55 21/55/67 24/56/68
