# This file uses centimeters as units for non-parametric coordinates.

mtllib puzzlePiece_oneBend_SE.mtl
g default
v -0.250000 0.000000 0.250000
v 0.250000 0.000000 0.250000
v -0.250000 0.100000 0.250000
v 0.250000 0.100000 0.250000
v -0.250000 0.100000 -0.250000
v 0.250000 0.100000 -0.250000
v -0.250000 0.000000 -0.250000
v 0.250000 0.000000 -0.250000
v -0.173463 0.093000 -0.065224
v -0.108579 0.093000 -0.108579
v -0.065224 0.093000 -0.173463
v -0.050000 0.093000 -0.250000
v -0.250000 0.093000 -0.050000
v -0.173463 0.107000 -0.065224
v -0.108579 0.107000 -0.108579
v -0.065224 0.107000 -0.173463
v -0.050000 0.107000 -0.250000
v -0.250000 0.107000 -0.050000
v -0.192850 0.093000 -0.112027
v -0.144400 0.093000 -0.144400
v -0.112027 0.093000 -0.192850
v -0.100659 0.093000 -0.250000
v -0.250000 0.093000 -0.100659
v -0.192850 0.107000 -0.112027
v -0.144400 0.107000 -0.144400
v -0.112027 0.107000 -0.192850
v -0.100659 0.107000 -0.250000
v -0.250000 0.107000 -0.100659
v 0.090000 0.098000 -0.250000
v -0.250000 0.098000 0.090000
v -0.009584 0.102000 -0.009584
v 0.090000 0.102000 -0.250000
v -0.250000 0.102000 0.090000
v -0.063188 0.098000 -0.250000
v -0.250000 0.098000 -0.063188
v -0.117904 0.102000 -0.117904
v -0.063188 0.102000 -0.250000
v -0.250000 0.102000 -0.063188
v -0.116061 0.093000 0.073358
v -0.002513 0.093000 -0.002513
v 0.073358 0.093000 -0.116061
v 0.100000 0.093000 -0.250000
v -0.250000 0.093000 0.100000
v -0.116061 0.107000 0.073358
v -0.002513 0.107000 -0.002513
v 0.073358 0.107000 -0.116061
v 0.100000 0.107000 -0.250000
v -0.250000 0.107000 0.100000
v -0.135237 0.093000 0.027064
v -0.037945 0.093000 -0.037945
v 0.027063 0.093000 -0.135236
v 0.049891 0.093000 -0.250000
v -0.250000 0.093000 0.049891
v -0.135237 0.107000 0.027064
v -0.037945 0.107000 -0.037945
v 0.027063 0.107000 -0.135236
v 0.049891 0.107000 -0.250000
v -0.250000 0.107000 0.049891
vt 0.049328 0.517373
vt 0.379000 0.517342
vt 0.379005 0.569767
vt 0.049333 0.569798
vt 0.051742 0.601474
vt 0.423556 0.601474
vt 0.423556 0.973288
vt 0.051742 0.973288
vt 0.378204 0.569432
vt 0.050874 0.569623
vt 0.050843 0.516710
vt 0.378174 0.516518
vt 0.049973 0.516661
vt 0.379644 0.515978
vt 0.379754 0.568989
vt 0.050083 0.569672
vt 0.050946 0.516940
vt 0.378276 0.516148
vt 0.378403 0.568832
vt 0.051074 0.569625
vt 0.195994 0.465839
vt 0.134982 0.465839
vt 0.134982 0.189630
vt 0.195994 0.189630
vt 0.075897 0.465839
vt 0.075897 0.189629
vt 0.017007 0.465839
vt 0.017007 0.189629
vt 0.198278 0.188448
vt 0.261441 0.188448
vt 0.261441 0.464657
vt 0.198278 0.464657
vt 0.299692 0.050818
vt 0.394849 0.125962
vt 0.334954 0.177032
vt 0.263900 0.120922
vt 0.454007 0.231801
vt 0.379127 0.256062
vt 0.468158 0.352222
vt 0.389693 0.345981
vt 0.183022 0.017809
vt 0.176782 0.096274
vt 0.017030 0.016665
vt 0.047259 0.016665
vt 0.047259 0.159453
vt 0.017030 0.159453
vt 0.379278 0.197486
vt 0.425892 0.197486
vt 0.425892 0.463609
vt 0.379278 0.463609
vt 0.333327 0.197486
vt 0.333327 0.463609
vt 0.286277 0.197486
vt 0.286277 0.463609
vt 0.242089 0.096287
vt 0.290914 0.096287
vt 0.290914 0.362410
vt 0.242089 0.362410
vt 0.070821 0.015781
vt 0.101356 0.015781
vt 0.101356 0.158570
vt 0.070821 0.158570
vt 0.751498 0.655178
vt 0.836529 0.855031
vt 0.708244 0.856048
vt 0.661524 0.746239
vt 0.549488 0.573718
vt 0.550531 0.701482
vt 0.541184 0.768673
vt 0.597151 0.768673
vt 0.597151 0.939220
vt 0.541184 0.939220
vt 0.598955 0.768673
vt 0.654922 0.768673
vt 0.654922 0.939220
vt 0.598955 0.939220
vt 0.394735 0.472043
vt 0.331653 0.472043
vt 0.331653 0.193003
vt 0.394735 0.193003
vt 0.267215 0.472043
vt 0.267215 0.193003
vt 0.203264 0.472043
vt 0.203264 0.193003
vt 0.397457 0.193003
vt 0.462609 0.193003
vt 0.462609 0.472043
vt 0.397457 0.472043
vt 0.236008 0.083035
vt 0.323569 0.193321
vt 0.277612 0.216937
vt 0.202586 0.122440
vt 0.362260 0.328720
vt 0.310764 0.332952
vt 0.346191 0.468619
vt 0.296995 0.452822
vt 0.112907 0.014652
vt 0.097110 0.063848
vt 0.038176 0.016372
vt 0.054055 0.016372
vt 0.054055 0.147057
vt 0.038176 0.147057
vt 0.124842 0.191762
vt 0.177858 0.191762
vt 0.177858 0.478807
vt 0.124842 0.478807
vt 0.071134 0.191762
vt 0.071134 0.478807
vt 0.016875 0.191762
vt 0.016875 0.478807
vt 0.200889 0.190712
vt 0.255620 0.190712
vt 0.255620 0.477757
vt 0.200889 0.477757
vt 0.012852 0.015632
vt 0.029522 0.015632
vt 0.029522 0.151010
vt 0.012852 0.151010
vn 0.000000 0.000000 1.000000
vn 0.000000 0.000000 1.000000
vn 0.000000 0.000000 1.000000
vn 0.000000 0.000000 1.000000
vn 0.000000 1.000000 0.000000
vn 0.000000 1.000000 0.000000
vn 0.000000 1.000000 0.000000
vn 0.000000 1.000000 0.000000
vn 0.000000 0.000000 -1.000000
vn 0.000000 0.000000 -1.000000
vn 0.000000 0.000000 -1.000000
vn 0.000000 0.000000 -1.000000
vn 1.000000 0.000000 0.000000
vn 1.000000 0.000000 0.000000
vn 1.000000 0.000000 0.000000
vn 1.000000 0.000000 0.000000
vn -1.000000 0.000000 0.000000
vn -1.000000 0.000000 0.000000
vn -1.000000 0.000000 0.000000
vn -1.000000 0.000000 0.000000
vn 0.382683 0.000000 0.923880
vn 0.707106 0.000000 0.707107
vn 0.707106 0.000000 0.707107
vn 0.382683 0.000000 0.923880
vn 0.923879 0.000000 0.382684
vn 0.923879 0.000000 0.382684
vn 0.980785 0.000000 0.195091
vn 0.980785 0.000000 0.195091
vn 0.195090 0.000000 0.980785
vn 0.195090 0.000000 0.980785
vn -0.000000 1.000000 0.000000
vn 0.000000 1.000000 0.000000
vn 0.000000 1.000000 0.000000
vn -0.000000 1.000000 0.000000
vn 0.000000 1.000000 0.000000
vn 0.000000 1.000000 0.000000
vn 0.000000 1.000000 0.000000
vn 0.000000 1.000000 0.000000
vn 0.000000 1.000000 -0.000000
vn 0.000000 1.000000 -0.000000
vn -1.000000 0.000001 -0.000000
vn -1.000000 0.000001 -0.000000
vn -1.000000 0.000001 -0.000000
vn -1.000000 0.000001 -0.000000
vn -0.195090 0.000000 -0.980785
vn -0.195090 0.000000 -0.980785
vn -0.195090 0.000000 -0.980785
vn -0.195090 0.000000 -0.980785
vn -0.555570 0.000000 -0.831470
vn -0.555570 0.000000 -0.831470
vn -0.555570 0.000000 -0.831470
vn -0.555570 0.000000 -0.831470
vn -0.831469 0.000000 -0.555570
vn -0.831469 0.000000 -0.555570
vn -0.831469 0.000000 -0.555570
vn -0.831469 0.000000 -0.555570
vn -0.980785 0.000000 -0.195091
vn -0.980785 0.000000 -0.195091
vn -0.980785 0.000000 -0.195091
vn -0.980785 0.000000 -0.195091
vn 0.000000 0.000000 -1.000000
vn 0.000000 0.000000 -1.000000
vn 0.000000 0.000000 -1.000000
vn 0.000000 0.000000 -1.000000
vn 0.000000 1.000000 -0.000000
vn 0.000000 1.000000 0.000000
vn 0.000000 1.000000 0.000000
vn 0.000000 1.000000 -0.000000
vn 0.000000 1.000000 -0.000000
vn 0.000000 1.000000 -0.000000
vn 0.000000 0.000000 -1.000000
vn 0.000000 0.000000 -1.000000
vn 0.000000 0.000000 -1.000000
vn 0.000000 0.000000 -1.000000
vn -1.000000 0.000000 0.000000
vn -1.000000 0.000000 0.000000
vn -1.000000 0.000000 0.000000
vn -1.000000 0.000000 0.000000
vn 0.382683 0.000000 0.923880
vn 0.707106 0.000000 0.707107
vn 0.707106 0.000000 0.707107
vn 0.382683 0.000000 0.923880
vn 0.923879 0.000000 0.382684
vn 0.923879 0.000000 0.382684
vn 0.980785 0.000000 0.195091
vn 0.980785 0.000000 0.195091
vn 0.195090 0.000000 0.980785
vn 0.195090 0.000000 0.980785
vn 0.000000 1.000000 0.000000
vn 0.000000 1.000000 0.000000
vn 0.000000 1.000000 0.000000
vn 0.000000 1.000000 0.000000
vn 0.000000 1.000000 0.000000
vn 0.000000 1.000000 0.000000
vn 0.000000 1.000000 0.000000
vn 0.000000 1.000000 0.000000
vn 0.000000 1.000000 0.000000
vn 0.000000 1.000000 0.000000
vn -1.000000 0.000000 0.000000
vn -1.000000 0.000000 0.000000
vn -1.000000 0.000000 0.000000
vn -1.000000 0.000000 0.000000
vn -0.195090 0.000000 -0.980785
vn -0.195090 0.000000 -0.980785
vn -0.195090 0.000000 -0.980785
vn -0.195090 0.000000 -0.980785
vn -0.555570 0.000000 -0.831470
vn -0.555570 0.000000 -0.831470
vn -0.555570 0.000000 -0.831470
vn -0.555570 0.000000 -0.831470
vn -0.831469 0.000000 -0.555571
vn -0.831469 0.000000 -0.555571
vn -0.831469 0.000000 -0.555571
vn -0.831469 0.000000 -0.555571
vn -0.980785 0.000000 -0.195091
vn -0.980785 0.000000 -0.195091
vn -0.980785 0.000000 -0.195091
vn -0.980785 0.000000 -0.195091
vn 0.000001 0.000000 -1.000000
vn 0.000001 0.000000 -1.000000
vn 0.000001 0.000000 -1.000000
vn 0.000001 0.000000 -1.000000
s off
g polySurface4
usemtl lambert5SG
f 1/1/1 2/2/2 4/3/3 3/4/4
f 3/5/5 4/6/6 6/7/7 5/8/8
f 5/9/9 6/10/10 8/11/11 7/12/12
f 2/13/13 8/14/14 6/15/15 4/16/16
f 7/17/17 1/18/18 3/19/19 5/20/20
s 1
f 9/21/21 10/22/22 15/23/23 14/24/24
f 10/22/22 11/25/25 16/26/26 15/23/23
f 11/25/25 12/27/27 17/28/28 16/26/26
f 13/29/29 9/30/21 14/31/24 18/32/30
s 2
f 14/33/31 15/34/32 25/35/33 24/36/34
f 15/34/32 16/37/35 26/38/36 25/35/33
f 16/37/35 17/39/37 27/40/38 26/38/36
f 18/41/39 14/33/31 24/36/34 28/42/40
s off
f 23/43/41 13/44/42 18/45/43 28/46/44
f 19/47/45 23/48/46 28/49/47 24/50/48
f 20/51/49 19/47/50 24/50/51 25/52/52
f 21/53/53 20/51/54 25/52/55 26/54/56
f 22/55/57 21/56/58 26/57/59 27/58/60
f 12/59/61 22/60/62 27/61/63 17/62/64
s 3
f 31/63/65 32/64/66 37/65/67 36/66/68
f 33/67/69 31/63/65 36/66/68 38/68/70
s off
f 29/69/71 34/70/72 37/71/73 32/72/74
f 35/73/75 30/74/76 33/75/77 38/76/78
s 4
f 39/77/79 40/78/80 45/79/81 44/80/82
f 40/78/80 41/81/83 46/82/84 45/79/81
f 41/81/83 42/83/85 47/84/86 46/82/84
f 43/85/87 39/86/79 44/87/82 48/88/88
s 5
f 44/89/89 45/90/90 55/91/91 54/92/92
f 45/90/90 46/93/93 56/94/94 55/91/91
f 46/93/93 47/95/95 57/96/96 56/94/94
f 48/97/97 44/89/89 54/92/92 58/98/98
s off
f 53/99/99 43/100/100 48/101/101 58/102/102
f 49/103/103 53/104/104 58/105/105 54/106/106
f 50/107/107 49/103/108 54/106/109 55/108/110
f 51/109/111 50/107/112 55/108/113 56/110/114
f 52/111/115 51/112/116 56/113/117 57/114/118
f 42/115/119 52/116/120 57/117/121 47/118/122
