# This file uses centimeters as units for non-parametric coordinates.

mtllib puzzlePiece_empty.mtl
g default
v -0.250000 0.000000 0.250000
v 0.250000 0.000000 0.250000
v -0.250000 0.100000 0.250000
v 0.250000 0.100000 0.250000
v -0.250000 0.100000 -0.250000
v 0.250000 0.100000 -0.250000
v -0.250000 0.000000 -0.250000
v 0.250000 0.000000 -0.250000
vt 0.049328 0.517373
vt 0.379000 0.517342
vt 0.379005 0.569767
vt 0.049333 0.569798
vt 0.051742 0.601474
vt 0.423556 0.601474
vt 0.423556 0.973288
vt 0.051742 0.973288
vt 0.378204 0.569432
vt 0.050874 0.569623
vt 0.050843 0.516710
vt 0.378174 0.516518
vt 0.049973 0.516661
vt 0.379644 0.515978
vt 0.379754 0.568989
vt 0.050083 0.569672
vt 0.050946 0.516940
vt 0.378276 0.516148
vt 0.378403 0.568832
vt 0.051074 0.569625
vn 0.000000 0.000000 1.000000
vn 0.000000 0.000000 1.000000
vn 0.000000 0.000000 1.000000
vn 0.000000 0.000000 1.000000
vn 0.000000 1.000000 0.000000
vn 0.000000 1.000000 0.000000
vn 0.000000 1.000000 0.000000
vn 0.000000 1.000000 0.000000
vn 0.000000 0.000000 -1.000000
vn 0.000000 0.000000 -1.000000
vn 0.000000 0.000000 -1.000000
vn 0.000000 0.000000 -1.000000
vn 1.000000 0.000000 0.000000
vn 1.000000 0.000000 0.000000
vn 1.000000 0.000000 0.000000
vn 1.000000 0.000000 0.000000
vn -1.000000 0.000000 0.000000
vn -1.000000 0.000000 0.000000
vn -1.000000 0.000000 0.000000
vn -1.000000 0.000000 0.000000
s off
g pasted__polySurface2 puzzlePiece_straight:pCube8 group
usemtl lambert3SG
f 1/1/1 2/2/2 4/3/3 3/4/4
f 3/5/5 4/6/6 6/7/7 5/8/8
f 5/9/9 6/10/10 8/11/11 7/12/12
f 2/13/13 8/14/14 6/15/15 4/16/16
f 7/17/17 1/18/18 3/19/19 5/20/20
