# This file uses centimeters as units for non-parametric coordinates.

mtllib puzzlePiece_beacon.mtl
g default
v -0.031250 0.068750 0.031250
v 0.031250 0.068750 0.031250
v -0.031250 0.131250 0.031250
v 0.031250 0.131250 0.031250
v -0.031250 0.131250 -0.031250
v 0.031250 0.131250 -0.031250
v -0.031250 0.068750 -0.031250
v 0.031250 0.068750 -0.031250
v -0.023437 0.131250 0.023437
v 0.023437 0.131250 0.023437
v 0.023437 0.131250 -0.023437
v -0.023437 0.131250 -0.023437
v -0.023437 0.161234 0.023437
v 0.023437 0.161234 0.023437
v 0.023437 0.161234 -0.023437
v -0.023437 0.161234 -0.023437
v -0.017578 0.161234 0.017578
v 0.017578 0.161234 0.017578
v 0.017578 0.161234 -0.017578
v -0.017578 0.161234 -0.017578
v -0.017578 0.195914 0.017578
v 0.017578 0.195914 0.017578
v 0.017578 0.195914 -0.017578
v -0.017578 0.195914 -0.017578
v -0.008789 0.195914 0.008789
v 0.008789 0.195914 0.008789
v 0.008789 0.195914 -0.008789
v -0.008789 0.195914 -0.008789
v -0.004395 0.412500 0.004395
v 0.004395 0.412500 0.004395
v 0.004395 0.412500 -0.004395
v -0.004395 0.412500 -0.004395
v -0.002197 0.420744 0.002197
v 0.002197 0.420744 0.002197
v 0.002197 0.420744 -0.002197
v -0.002197 0.420744 -0.002197
v -0.015497 0.436006 0.000000
v 0.000000 0.436006 0.016447
v 0.015594 0.436006 -0.000000
v -0.000000 0.436006 -0.015646
v -0.000054 0.452271 -0.000138
vt 0.375000 0.000000
vt 0.625000 0.000000
vt 0.375000 0.250000
vt 0.625000 0.250000
vt 0.375000 0.500000
vt 0.625000 0.500000
vt 0.375000 0.750000
vt 0.625000 0.750000
vt 0.875000 0.000000
vt 0.875000 0.250000
vt 0.125000 0.000000
vt 0.125000 0.250000
vt 0.375000 0.250000
vt 0.625000 0.250000
vt 0.625000 0.500000
vt 0.375000 0.500000
vt 0.375000 0.250000
vt 0.625000 0.250000
vt 0.625000 0.500000
vt 0.375000 0.500000
vt 0.375000 0.250000
vt 0.625000 0.250000
vt 0.625000 0.500000
vt 0.375000 0.500000
vt 0.375000 0.250000
vt 0.625000 0.250000
vt 0.625000 0.500000
vt 0.375000 0.500000
vt 0.375000 0.250000
vt 0.625000 0.250000
vt 0.625000 0.500000
vt 0.375000 0.500000
vt 0.375000 0.250000
vt 0.625000 0.250000
vt 0.625000 0.500000
vt 0.375000 0.500000
vt 0.375000 0.250000
vt 0.625000 0.250000
vt 0.625000 0.500000
vt 0.375000 0.500000
vt 0.375000 0.250000
vt 0.625000 0.250000
vt 0.625000 0.500000
vt 0.375000 0.500000
vt 0.458333 0.416667
vn 0.000000 0.000000 1.000000
vn 0.000000 0.000000 1.000000
vn 0.000000 0.000000 1.000000
vn 0.000000 0.000000 1.000000
vn 0.000000 0.000000 -1.000000
vn 0.000000 0.000000 -1.000000
vn 0.000000 0.000000 -1.000000
vn 0.000000 0.000000 -1.000000
vn 1.000000 0.000000 0.000000
vn 1.000000 0.000000 0.000000
vn 1.000000 0.000000 0.000000
vn 1.000000 0.000000 0.000000
vn -1.000000 0.000000 0.000000
vn -1.000000 0.000000 0.000000
vn -1.000000 0.000000 0.000000
vn -1.000000 0.000000 0.000000
vn 0.000000 1.000000 0.000000
vn 0.000000 1.000000 0.000000
vn 0.000000 1.000000 0.000000
vn 0.000000 1.000000 0.000000
vn 0.000000 1.000000 0.000000
vn 0.000000 1.000000 0.000000
vn 0.000000 1.000000 0.000000
vn 0.000000 1.000000 0.000000
vn 0.000000 0.000000 1.000000
vn 0.000000 0.000000 1.000000
vn 0.000000 0.000000 1.000000
vn 0.000000 0.000000 1.000000
vn 1.000000 0.000000 0.000000
vn 1.000000 0.000000 0.000000
vn 1.000000 0.000000 0.000000
vn 1.000000 0.000000 0.000000
vn 0.000000 0.000000 -1.000000
vn 0.000000 0.000000 -1.000000
vn 0.000000 0.000000 -1.000000
vn 0.000000 0.000000 -1.000000
vn -1.000000 0.000000 0.000000
vn -1.000000 0.000000 0.000000
vn -1.000000 0.000000 0.000000
vn -1.000000 0.000000 0.000000
vn 0.000000 1.000000 -0.000000
vn 0.000000 1.000000 -0.000000
vn 0.000000 1.000000 -0.000000
vn 0.000000 1.000000 -0.000000
vn 0.000000 1.000000 0.000000
vn 0.000000 1.000000 0.000000
vn 0.000000 1.000000 0.000000
vn 0.000000 1.000000 0.000000
vn 0.000000 0.000000 1.000000
vn 0.000000 0.000000 1.000000
vn 0.000000 0.000000 1.000000
vn 0.000000 0.000000 1.000000
vn 1.000000 0.000000 0.000000
vn 1.000000 0.000000 0.000000
vn 1.000000 0.000000 0.000000
vn 1.000000 0.000000 0.000000
vn 0.000000 0.000000 -1.000000
vn 0.000000 0.000000 -1.000000
vn 0.000000 0.000000 -1.000000
vn 0.000000 0.000000 -1.000000
vn -1.000000 0.000000 0.000000
vn -1.000000 0.000000 0.000000
vn -1.000000 0.000000 0.000000
vn -1.000000 0.000000 0.000000
vn 0.000000 1.000000 0.000000
vn 0.000000 1.000000 0.000000
vn 0.000000 1.000000 0.000000
vn 0.000000 1.000000 0.000000
vn 0.000000 1.000000 -0.000000
vn 0.000000 1.000000 -0.000000
vn 0.000000 1.000000 -0.000000
vn 0.000000 1.000000 -0.000000
vn 0.000000 0.020286 0.999794
vn 0.000000 0.020286 0.999794
vn 0.000000 0.024107 0.999709
vn 0.000000 0.024107 0.999709
vn 0.999794 0.020286 0.000000
vn 0.999794 0.020286 0.000000
vn 0.999709 0.024107 0.000000
vn 0.999709 0.024107 0.000000
vn 0.000000 0.020286 -0.999794
vn 0.000000 0.020286 -0.999794
vn 0.000000 0.024107 -0.999709
vn 0.000000 0.024107 -0.999709
vn -0.999794 0.020286 0.000000
vn -0.999794 0.020286 0.000000
vn -0.999709 0.024107 0.000000
vn -0.999709 0.024107 0.000000
vn 0.000000 0.257544 0.966267
vn 0.000000 0.257544 0.966267
vn 0.966267 0.257543 0.000000
vn 0.966267 0.257543 0.000000
vn 0.000000 0.257544 -0.966267
vn 0.000000 0.257544 -0.966267
vn -0.966267 0.257543 0.000000
vn -0.966267 0.257543 0.000000
vn -0.539688 -0.531716 0.652698
vn -0.539688 -0.531716 0.652698
vn -0.539688 -0.531716 0.652698
vn -0.539688 -0.531716 0.652698
vn 0.681552 -0.524833 0.509939
vn 0.681552 -0.524833 0.509939
vn 0.681552 -0.524833 0.509939
vn 0.681552 -0.524833 0.509939
vn 0.527340 -0.517736 -0.673692
vn 0.527340 -0.517736 -0.673692
vn 0.527340 -0.517736 -0.673692
vn 0.527340 -0.517736 -0.673692
vn -0.677961 -0.515305 -0.524242
vn -0.677961 -0.515305 -0.524242
vn -0.677961 -0.515305 -0.524242
vn -0.677961 -0.515305 -0.524242
vn -0.597146 0.571711 0.562639
vn -0.597146 0.571711 0.562639
vn -0.597146 0.571711 0.562639
vn 0.593395 0.575631 0.562612
vn 0.593395 0.575631 0.562612
vn 0.593395 0.575631 0.562612
vn 0.586952 0.559710 -0.584990
vn 0.586952 0.559710 -0.584989
vn 0.586952 0.559710 -0.584989
vn -0.590639 0.555810 -0.584996
vn -0.590639 0.555810 -0.584996
vn -0.590639 0.555810 -0.584996
s off
g pCube1
usemtl lambert2SG
f 1/1/1 2/2/2 4/4/3 3/3/4
f 5/5/5 6/6/6 8/8/7 7/7/8
f 2/2/9 8/9/10 6/10/11 4/4/12
f 7/11/13 1/1/14 3/3/15 5/12/16
s 1
f 3/3/17 4/4/18 10/14/19 9/13/20
f 4/4/18 6/6/21 11/15/22 10/14/19
f 6/6/21 5/5/23 12/16/24 11/15/22
f 5/5/23 3/3/17 9/13/20 12/16/24
s off
f 9/13/25 10/14/26 14/18/27 13/17/28
f 10/14/29 11/15/30 15/19/31 14/18/32
f 11/15/33 12/16/34 16/20/35 15/19/36
f 12/16/37 9/13/38 13/17/39 16/20/40
s 2
f 13/17/41 14/18/42 18/22/43 17/21/44
f 14/18/42 15/19/45 19/23/46 18/22/43
f 15/19/45 16/20/47 20/24/48 19/23/46
f 16/20/47 13/17/41 17/21/44 20/24/48
s off
f 17/21/49 18/22/50 22/26/51 21/25/52
f 18/22/53 19/23/54 23/27/55 22/26/56
f 19/23/57 20/24/58 24/28/59 23/27/60
f 20/24/61 17/21/62 21/25/63 24/28/64
s 3
f 21/25/65 22/26/66 26/30/67 25/29/68
f 22/26/66 23/27/69 27/31/70 26/30/67
f 23/27/69 24/28/71 28/32/72 27/31/70
f 24/28/71 21/25/65 25/29/68 28/32/72
s 4
f 25/29/73 26/30/74 30/34/75 29/33/76
s 5
f 26/30/77 27/31/78 31/35/79 30/34/80
s 6
f 27/31/81 28/32/82 32/36/83 31/35/84
s 7
f 28/32/85 25/29/86 29/33/87 32/36/88
s 4
f 29/33/76 30/34/75 34/38/89 33/37/90
s 5
f 30/34/80 31/35/79 35/39/91 34/38/92
s 6
f 31/35/84 32/36/83 36/40/93 35/39/94
s 7
f 32/36/88 29/33/87 33/37/95 36/40/96
s off
f 33/37/97 34/38/98 38/42/99 37/41/100
f 34/38/101 35/39/102 39/43/103 38/42/104
f 35/39/105 36/40/106 40/44/107 39/43/108
f 36/40/109 33/37/110 37/41/111 40/44/112
f 37/41/113 38/42/114 41/45/115
f 38/42/116 39/43/117 41/45/118
f 39/43/119 40/44/120 41/45/121
f 40/44/122 37/41/123 41/45/124
g default
v 0.024500 0.380501 -0.000000
v -0.000000 0.380501 -0.024500
v -0.024500 0.380501 0.000000
v 0.000000 0.380501 0.024500
v 0.024500 0.390501 0.000000
v -0.000000 0.390501 -0.024500
v -0.024500 0.390501 0.000000
v 0.000000 0.390501 0.024500
v 0.035000 0.390501 0.000000
v -0.000000 0.390501 -0.035000
v -0.035000 0.390501 0.000000
v 0.000000 0.390501 0.035000
v 0.035000 0.380501 -0.000000
v -0.000000 0.380501 -0.035000
v -0.035000 0.380501 0.000000
v 0.000000 0.380501 0.035000
vt 0.000000 1.000000
vt 0.250000 1.000000
vt 0.500000 1.000000
vt 0.750000 1.000000
vt 1.000000 1.000000
vt 0.000000 0.750000
vt 0.250000 0.750000
vt 0.500000 0.750000
vt 0.750000 0.750000
vt 1.000000 0.750000
vt 0.000000 0.500000
vt 0.250000 0.500000
vt 0.500000 0.500000
vt 0.750000 0.500000
vt 1.000000 0.500000
vt 0.000000 0.250000
vt 0.250000 0.250000
vt 0.500000 0.250000
vt 0.750000 0.250000
vt 1.000000 0.250000
vt 0.000000 0.000000
vt 0.250000 0.000000
vt 0.500000 0.000000
vt 0.750000 0.000000
vt 1.000000 0.000000
vn -0.707107 0.000000 0.707107
vn -0.707107 0.000000 0.707107
vn -0.707107 0.000000 0.707107
vn -0.707107 0.000000 0.707107
vn 0.707107 0.000000 0.707107
vn 0.707107 0.000000 0.707107
vn 0.707107 0.000000 0.707107
vn 0.707107 0.000000 0.707107
vn 0.707107 0.000000 -0.707107
vn 0.707107 0.000000 -0.707107
vn 0.707107 0.000000 -0.707107
vn 0.707107 0.000000 -0.707107
vn -0.707107 0.000000 -0.707107
vn -0.707107 0.000000 -0.707107
vn -0.707107 0.000000 -0.707107
vn -0.707107 0.000000 -0.707107
vn 0.000000 1.000000 -0.000000
vn 0.000000 1.000000 0.000000
vn 0.000000 1.000000 0.000000
vn 0.000000 1.000000 -0.000000
vn 0.000000 1.000000 -0.000000
vn 0.000000 1.000000 -0.000000
vn 0.000000 1.000000 -0.000000
vn 0.000000 1.000000 -0.000000
vn 0.707107 0.000000 -0.707107
vn 0.707107 0.000000 -0.707107
vn 0.707107 0.000000 -0.707107
vn 0.707107 0.000000 -0.707107
vn -0.707107 0.000000 -0.707107
vn -0.707107 0.000000 -0.707107
vn -0.707107 0.000000 -0.707107
vn -0.707107 0.000000 -0.707107
vn -0.707107 0.000000 0.707107
vn -0.707107 0.000000 0.707107
vn -0.707107 0.000000 0.707107
vn -0.707107 0.000000 0.707107
vn 0.707107 -0.000000 0.707107
vn 0.707107 -0.000000 0.707107
vn 0.707107 -0.000000 0.707107
vn 0.707107 -0.000000 0.707107
vn 0.000000 -1.000000 -0.000000
vn 0.000000 -1.000000 0.000000
vn 0.000000 -1.000000 0.000000
vn 0.000000 -1.000000 -0.000000
vn 0.000000 -1.000000 -0.000000
vn 0.000000 -1.000000 -0.000000
vn 0.000000 -1.000000 0.000000
vn 0.000000 -1.000000 0.000000
s off
g pPipe1
usemtl lambert3SG
f 43/47/125 42/46/126 46/51/127 47/52/128
f 44/48/129 43/47/130 47/52/131 48/53/132
f 45/49/133 44/48/134 48/53/135 49/54/136
f 42/50/137 45/49/138 49/54/139 46/55/140
s 1
f 47/52/141 46/51/142 50/56/143 51/57/144
f 48/53/145 47/52/141 51/57/144 52/58/146
f 49/54/147 48/53/145 52/58/146 53/59/148
f 46/55/142 49/54/147 53/59/148 50/60/143
s off
f 51/57/149 50/56/150 54/61/151 55/62/152
f 52/58/153 51/57/154 55/62/155 56/63/156
f 53/59/157 52/58/158 56/63/159 57/64/160
f 50/60/161 53/59/162 57/64/163 54/65/164
s 2
f 55/62/165 54/61/166 42/66/167 43/67/168
f 56/63/169 55/62/165 43/67/168 44/68/170
f 57/64/171 56/63/169 44/68/170 45/69/172
f 54/65/166 57/64/171 45/69/172 42/70/167
g default
v 0.033807 0.357094 0.009059
v 0.009059 0.357094 -0.033807
v -0.033807 0.357094 -0.009059
v -0.009059 0.357094 0.033807
v 0.033807 0.368773 0.009059
v 0.009059 0.368773 -0.033807
v -0.033807 0.368773 -0.009059
v -0.009059 0.368773 0.033807
v 0.048296 0.368773 0.012941
v 0.012941 0.368773 -0.048296
v -0.048296 0.368773 -0.012941
v -0.012941 0.368773 0.048296
v 0.048296 0.357094 0.012941
v 0.012941 0.357094 -0.048296
v -0.048296 0.357094 -0.012941
v -0.012941 0.357094 0.048296
vt 0.000000 1.000000
vt 0.250000 1.000000
vt 0.500000 1.000000
vt 0.750000 1.000000
vt 1.000000 1.000000
vt 0.000000 0.750000
vt 0.250000 0.750000
vt 0.500000 0.750000
vt 0.750000 0.750000
vt 1.000000 0.750000
vt 0.000000 0.500000
vt 0.250000 0.500000
vt 0.500000 0.500000
vt 0.750000 0.500000
vt 1.000000 0.500000
vt 0.000000 0.250000
vt 0.250000 0.250000
vt 0.500000 0.250000
vt 0.750000 0.250000
vt 1.000000 0.250000
vt 0.000000 0.000000
vt 0.250000 0.000000
vt 0.500000 0.000000
vt 0.750000 0.000000
vt 1.000000 0.000000
vn -0.866025 0.000000 0.500000
vn -0.866025 0.000000 0.500000
vn -0.866025 0.000000 0.500000
vn -0.866025 0.000000 0.500000
vn 0.500000 0.000000 0.866025
vn 0.500000 0.000000 0.866025
vn 0.500000 0.000000 0.866025
vn 0.500000 0.000000 0.866025
vn 0.866025 0.000000 -0.500000
vn 0.866025 0.000000 -0.500000
vn 0.866025 0.000000 -0.500000
vn 0.866025 0.000000 -0.500000
vn -0.500000 0.000000 -0.866025
vn -0.500000 0.000000 -0.866025
vn -0.500000 0.000000 -0.866025
vn -0.500000 0.000000 -0.866025
vn 0.000000 1.000000 -0.000000
vn -0.000000 1.000000 0.000000
vn -0.000000 1.000000 0.000000
vn 0.000000 1.000000 -0.000000
vn 0.000000 1.000000 -0.000000
vn 0.000000 1.000000 -0.000000
vn 0.000000 1.000000 -0.000000
vn 0.000000 1.000000 -0.000000
vn 0.866025 0.000000 -0.500000
vn 0.866025 0.000000 -0.500000
vn 0.866025 0.000000 -0.500000
vn 0.866025 0.000000 -0.500000
vn -0.500000 0.000000 -0.866025
vn -0.500000 0.000000 -0.866025
vn -0.500000 0.000000 -0.866025
vn -0.500000 0.000000 -0.866025
vn -0.866025 0.000000 0.500000
vn -0.866025 0.000000 0.500000
vn -0.866025 0.000000 0.500000
vn -0.866025 0.000000 0.500000
vn 0.500000 -0.000000 0.866025
vn 0.500000 -0.000000 0.866025
vn 0.500000 -0.000000 0.866025
vn 0.500000 -0.000000 0.866025
vn 0.000000 -1.000000 -0.000000
vn -0.000000 -1.000000 0.000000
vn -0.000000 -1.000000 0.000000
vn 0.000000 -1.000000 -0.000000
vn 0.000000 -1.000000 -0.000000
vn 0.000000 -1.000000 -0.000000
vn -0.000000 -1.000000 0.000000
vn -0.000000 -1.000000 0.000000
s off
g pPipe2
usemtl lambert3SG
f 59/72/173 58/71/174 62/76/175 63/77/176
f 60/73/177 59/72/178 63/77/179 64/78/180
f 61/74/181 60/73/182 64/78/183 65/79/184
f 58/75/185 61/74/186 65/79/187 62/80/188
s 1
f 63/77/189 62/76/190 66/81/191 67/82/192
f 64/78/193 63/77/189 67/82/192 68/83/194
f 65/79/195 64/78/193 68/83/194 69/84/196
f 62/80/190 65/79/195 69/84/196 66/85/191
s off
f 67/82/197 66/81/198 70/86/199 71/87/200
f 68/83/201 67/82/202 71/87/203 72/88/204
f 69/84/205 68/83/206 72/88/207 73/89/208
f 66/85/209 69/84/210 73/89/211 70/90/212
s 2
f 71/87/213 70/86/214 58/91/215 59/92/216
f 72/88/217 71/87/213 59/92/216 60/93/218
f 73/89/219 72/88/217 60/93/218 61/94/220
f 70/90/214 73/89/219 61/94/220 58/95/215
g default
v 0.010870 0.332328 0.040569
v 0.040569 0.332328 -0.010870
v -0.010870 0.332328 -0.040569
v -0.040569 0.332328 0.010870
v 0.010870 0.346078 0.040569
v 0.040569 0.346078 -0.010870
v -0.010870 0.346078 -0.040569
v -0.040569 0.346078 0.010870
v 0.015529 0.346078 0.057956
v 0.057956 0.346078 -0.015529
v -0.015529 0.346078 -0.057956
v -0.057956 0.346078 0.015529
v 0.015529 0.332328 0.057956
v 0.057956 0.332328 -0.015529
v -0.015529 0.332328 -0.057956
v -0.057956 0.332328 0.015529
vt 0.000000 1.000000
vt 0.250000 1.000000
vt 0.500000 1.000000
vt 0.750000 1.000000
vt 1.000000 1.000000
vt 0.000000 0.750000
vt 0.250000 0.750000
vt 0.500000 0.750000
vt 0.750000 0.750000
vt 1.000000 0.750000
vt 0.000000 0.500000
vt 0.250000 0.500000
vt 0.500000 0.500000
vt 0.750000 0.500000
vt 1.000000 0.500000
vt 0.000000 0.250000
vt 0.250000 0.250000
vt 0.500000 0.250000
vt 0.750000 0.250000
vt 1.000000 0.250000
vt 0.000000 0.000000
vt 0.250000 0.000000
vt 0.500000 0.000000
vt 0.750000 0.000000
vt 1.000000 0.000000
vn -0.866025 0.000000 -0.500000
vn -0.866025 0.000000 -0.500000
vn -0.866025 0.000000 -0.500000
vn -0.866025 0.000000 -0.500000
vn -0.500000 0.000000 0.866025
vn -0.500000 0.000000 0.866025
vn -0.500000 0.000000 0.866025
vn -0.500000 0.000000 0.866025
vn 0.866025 0.000000 0.500000
vn 0.866025 0.000000 0.500000
vn 0.866025 0.000000 0.500000
vn 0.866025 0.000000 0.500000
vn 0.500000 0.000000 -0.866025
vn 0.500000 0.000000 -0.866025
vn 0.500000 0.000000 -0.866025
vn 0.500000 0.000000 -0.866025
vn 0.000000 1.000000 -0.000000
vn -0.000000 1.000000 0.000000
vn -0.000000 1.000000 0.000000
vn 0.000000 1.000000 -0.000000
vn 0.000000 1.000000 -0.000000
vn 0.000000 1.000000 -0.000000
vn 0.000000 1.000000 -0.000000
vn 0.000000 1.000000 -0.000000
vn 0.866025 0.000000 0.500000
vn 0.866025 0.000000 0.500000
vn 0.866025 0.000000 0.500000
vn 0.866025 0.000000 0.500000
vn 0.500000 0.000000 -0.866025
vn 0.500000 0.000000 -0.866025
vn 0.500000 0.000000 -0.866025
vn 0.500000 0.000000 -0.866025
vn -0.866025 0.000000 -0.500000
vn -0.866025 0.000000 -0.500000
vn -0.866025 0.000000 -0.500000
vn -0.866025 0.000000 -0.500000
vn -0.500000 -0.000000 0.866025
vn -0.500000 -0.000000 0.866025
vn -0.500000 -0.000000 0.866025
vn -0.500000 -0.000000 0.866025
vn 0.000000 -1.000000 -0.000000
vn -0.000000 -1.000000 0.000000
vn -0.000000 -1.000000 0.000000
vn 0.000000 -1.000000 -0.000000
vn 0.000000 -1.000000 -0.000000
vn 0.000000 -1.000000 -0.000000
vn -0.000000 -1.000000 0.000000
vn -0.000000 -1.000000 0.000000
s off
g pPipe3
usemtl lambert3SG
f 75/97/221 74/96/222 78/101/223 79/102/224
f 76/98/225 75/97/226 79/102/227 80/103/228
f 77/99/229 76/98/230 80/103/231 81/104/232
f 74/100/233 77/99/234 81/104/235 78/105/236
s 1
f 79/102/237 78/101/238 82/106/239 83/107/240
f 80/103/241 79/102/237 83/107/240 84/108/242
f 81/104/243 80/103/241 84/108/242 85/109/244
f 78/105/238 81/104/243 85/109/244 82/110/239
s off
f 83/107/245 82/106/246 86/111/247 87/112/248
f 84/108/249 83/107/250 87/112/251 88/113/252
f 85/109/253 84/108/254 88/113/255 89/114/256
f 82/110/257 85/109/258 89/114/259 86/115/260
s 2
f 87/112/261 86/111/262 74/116/263 75/117/264
f 88/113/265 87/112/261 75/117/264 76/118/266
f 89/114/267 88/113/265 76/118/266 77/119/268
f 86/115/262 89/114/267 77/119/268 74/120/263
g default
v -0.250000 0.000000 0.250000
v 0.250000 0.000000 0.250000
v -0.250000 0.100000 0.250000
v 0.250000 0.100000 0.250000
v -0.250000 0.100000 -0.250000
v 0.250000 0.100000 -0.250000
v -0.250000 0.000000 -0.250000
v 0.250000 0.000000 -0.250000
vt 0.049328 0.517373
vt 0.379000 0.517342
vt 0.379005 0.569767
vt 0.049333 0.569798
vt 0.051742 0.601474
vt 0.423556 0.601474
vt 0.423556 0.973288
vt 0.051742 0.973288
vt 0.378204 0.569432
vt 0.050874 0.569623
vt 0.050843 0.516710
vt 0.378174 0.516518
vt 0.049973 0.516661
vt 0.379644 0.515978
vt 0.379754 0.568989
vt 0.050083 0.569672
vt 0.050946 0.516940
vt 0.378276 0.516148
vt 0.378403 0.568832
vt 0.051074 0.569625
vn 0.000000 0.000000 1.000000
vn 0.000000 0.000000 1.000000
vn 0.000000 0.000000 1.000000
vn 0.000000 0.000000 1.000000
vn 0.000000 1.000000 0.000000
vn 0.000000 1.000000 0.000000
vn 0.000000 1.000000 0.000000
vn 0.000000 1.000000 0.000000
vn 0.000000 0.000000 -1.000000
vn 0.000000 0.000000 -1.000000
vn 0.000000 0.000000 -1.000000
vn 0.000000 0.000000 -1.000000
vn 1.000000 0.000000 0.000000
vn 1.000000 0.000000 0.000000
vn 1.000000 0.000000 0.000000
vn 1.000000 0.000000 0.000000
vn -1.000000 0.000000 0.000000
vn -1.000000 0.000000 0.000000
vn -1.000000 0.000000 0.000000
vn -1.000000 0.000000 0.000000
s off
g polySurface2 puzzlePiece_straight:pCube8
usemtl lambert4SG
f 90/121/269 91/122/270 93/123/271 92/124/272
f 92/125/273 93/126/274 95/127/275 94/128/276
f 94/129/277 95/130/278 97/131/279 96/132/280
f 91/133/281 97/134/282 95/135/283 93/136/284
f 96/137/285 90/138/286 92/139/287 94/140/288
g default
v -0.226091 0.095446 0.206278
v -0.246091 0.095446 0.226278
v -0.226091 0.095446 0.246278
v -0.206091 0.095446 0.226278
v -0.226091 0.145446 0.226278
v -0.226091 0.095446 -0.243962
v -0.246091 0.095446 -0.223962
v -0.226091 0.095446 -0.203962
v -0.206091 0.095446 -0.223962
v -0.226091 0.145446 -0.223962
v 0.224052 0.095446 -0.243962
v 0.204052 0.095446 -0.223962
v 0.224052 0.095446 -0.203962
v 0.244052 0.095446 -0.223962
v 0.224052 0.145446 -0.223962
v 0.224052 0.095446 0.206278
v 0.204052 0.095446 0.226278
v 0.224052 0.095446 0.246278
v 0.244052 0.095446 0.226278
v 0.224052 0.145446 0.226278
vt 0.250000 0.500000
vt 0.375000 0.500000
vt 0.500000 0.500000
vt 0.625000 0.500000
vt 0.750000 0.500000
vt 0.500000 1.000000
vt 0.250000 0.500000
vt 0.375000 0.500000
vt 0.500000 1.000000
vt 0.500000 0.500000
vt 0.625000 0.500000
vt 0.750000 0.500000
vt 0.250000 0.500000
vt 0.375000 0.500000
vt 0.500000 1.000000
vt 0.500000 0.500000
vt 0.625000 0.500000
vt 0.750000 0.500000
vt 0.250000 0.500000
vt 0.375000 0.500000
vt 0.500000 1.000000
vt 0.500000 0.500000
vt 0.625000 0.500000
vt 0.750000 0.500000
vn -0.680414 0.272165 -0.680414
vn -0.680414 0.272165 -0.680414
vn -0.680414 0.272165 -0.680414
vn -0.680414 0.272165 0.680414
vn -0.680414 0.272165 0.680414
vn -0.680414 0.272165 0.680414
vn 0.680414 0.272166 0.680414
vn 0.680414 0.272166 0.680414
vn 0.680414 0.272166 0.680414
vn 0.680414 0.272166 -0.680414
vn 0.680414 0.272166 -0.680414
vn 0.680414 0.272166 -0.680414
vn -0.680413 0.272165 -0.680414
vn -0.680413 0.272165 -0.680414
vn -0.680413 0.272165 -0.680414
vn -0.680413 0.272165 0.680414
vn -0.680413 0.272165 0.680414
vn -0.680413 0.272165 0.680414
vn 0.680413 0.272166 0.680414
vn 0.680413 0.272166 0.680414
vn 0.680413 0.272166 0.680414
vn 0.680413 0.272166 -0.680414
vn 0.680413 0.272166 -0.680414
vn 0.680413 0.272166 -0.680414
vn -0.680413 0.272166 -0.680414
vn -0.680413 0.272166 -0.680414
vn -0.680413 0.272166 -0.680414
vn -0.680413 0.272166 0.680414
vn -0.680413 0.272166 0.680414
vn -0.680413 0.272166 0.680414
vn 0.680413 0.272166 0.680414
vn 0.680413 0.272166 0.680414
vn 0.680413 0.272166 0.680414
vn 0.680413 0.272166 -0.680414
vn 0.680413 0.272166 -0.680414
vn 0.680413 0.272166 -0.680414
vn -0.680414 0.272166 -0.680414
vn -0.680414 0.272166 -0.680414
vn -0.680414 0.272166 -0.680414
vn -0.680414 0.272166 0.680414
vn -0.680414 0.272166 0.680414
vn -0.680414 0.272166 0.680414
vn 0.680414 0.272166 0.680414
vn 0.680414 0.272166 0.680414
vn 0.680414 0.272166 0.680414
vn 0.680414 0.272166 -0.680414
vn 0.680414 0.272166 -0.680414
vn 0.680414 0.272166 -0.680414
s off
g pCone5
usemtl lambert3SG
f 98/141/289 99/142/290 102/146/291
f 99/142/292 100/143/293 102/146/294
f 100/143/295 101/144/296 102/146/297
f 101/144/298 98/145/299 102/146/300
f 103/147/301 104/148/302 107/149/303
f 104/148/304 105/150/305 107/149/306
f 105/150/307 106/151/308 107/149/309
f 106/151/310 103/152/311 107/149/312
f 108/153/313 109/154/314 112/155/315
f 109/154/316 110/156/317 112/155/318
f 110/156/319 111/157/320 112/155/321
f 111/157/322 108/158/323 112/155/324
f 113/159/325 114/160/326 117/161/327
f 114/160/328 115/162/329 117/161/330
f 115/162/331 116/163/332 117/161/333
f 116/163/334 113/164/335 117/161/336
