# This file uses centimeters as units for non-parametric coordinates.

mtllib puzzlePiece_turnabout_E.mtl
g default
v -0.250000 0.093000 -0.100000
v -0.250000 0.093000 -0.050000
v -0.250000 0.107000 -0.100000
v -0.250000 0.107000 -0.050000
v -0.080969 0.107000 -0.100000
v -0.080969 0.107000 -0.050000
v -0.080969 0.093000 -0.100000
v -0.080969 0.093000 -0.050000
v -0.250000 0.093000 0.050000
v -0.250000 0.093000 0.100000
v -0.250000 0.107000 0.050000
v -0.250000 0.107000 0.100000
v -0.080969 0.107000 0.050000
v -0.080969 0.107000 0.100000
v -0.080969 0.093000 0.050000
v -0.080969 0.093000 0.100000
v 0.195295 0.093000 0.120970
v 0.195295 0.093000 -0.120970
v 0.055564 0.093000 -0.191248
v -0.082010 0.093000 -0.120970
v -0.082010 0.093000 0.120970
v 0.055564 0.093000 0.191248
v 0.195295 0.107000 0.120970
v 0.195295 0.107000 -0.120970
v 0.055564 0.107000 -0.191248
v -0.082010 0.107000 -0.120970
v -0.082010 0.107000 0.120970
v 0.055564 0.107000 0.191248
v 0.155073 0.107000 0.093969
v 0.155073 0.107000 -0.093969
v 0.055877 0.107000 -0.148561
v -0.041787 0.107000 -0.093969
v -0.041787 0.107000 0.093969
v 0.055877 0.107000 0.148561
v 0.155073 0.093020 0.093969
v 0.155073 0.093020 -0.093969
v 0.055877 0.093020 -0.148561
v -0.041787 0.093020 -0.093969
v -0.041787 0.093020 0.093969
v 0.055877 0.093020 0.148561
v -0.082010 0.093000 -0.049935
v -0.082010 0.107000 -0.049935
v -0.041787 0.107000 -0.070851
v -0.041787 0.093020 -0.070851
v -0.082010 0.093000 0.049824
v -0.082010 0.107000 0.049824
v -0.041787 0.107000 0.069118
v -0.041787 0.093020 0.069118
v -0.250000 0.098009 -0.050394
v -0.250000 0.098009 0.050394
v -0.250000 0.101991 -0.050394
v -0.250000 0.101991 0.050394
v -0.050000 0.101991 -0.061278
v -0.050000 0.101991 0.061278
v 0.161228 0.102000 0.101929
v 0.161228 0.102000 -0.101929
v 0.054259 0.102000 -0.161145
v -0.072991 0.102000 -0.101929
v -0.072991 0.102000 0.101929
v 0.054259 0.102000 0.161145
v 0.054259 0.102000 -0.000000
v -0.250000 0.000000 -0.250000
v -0.250000 0.000000 0.250000
v -0.250000 0.100000 -0.250000
v -0.250000 0.100000 0.250000
v 0.250000 0.100000 -0.250000
v 0.250000 0.100000 0.250000
v 0.250000 0.000000 -0.250000
v 0.250000 0.000000 0.250000
vt 0.129390 0.358511
vt 0.129390 0.291447
vt 0.152421 0.291447
vt 0.152421 0.358511
vt 0.292847 0.173209
vt 0.338794 0.173209
vt 0.338794 0.328539
vt 0.292847 0.328539
vt 0.235602 0.469447
vt 0.235602 0.242729
vt 0.258633 0.242729
vt 0.258633 0.469447
vt 0.201633 0.239397
vt 0.201633 0.012680
vt 0.224663 0.012680
vt 0.224663 0.239397
vt 0.155158 0.357938
vt 0.155158 0.290875
vt 0.178188 0.290875
vt 0.178188 0.357938
vt 0.244046 0.173269
vt 0.289993 0.173269
vt 0.289993 0.328600
vt 0.244046 0.328600
vt 0.204003 0.468385
vt 0.204003 0.241668
vt 0.227033 0.241668
vt 0.227033 0.468385
vt 0.237261 0.240214
vt 0.237261 0.013497
vt 0.260291 0.013497
vt 0.260291 0.240214
vt 0.110203 0.012680
vt 0.110203 0.337189
vt 0.087173 0.337189
vt 0.087173 0.012680
vt 0.029943 0.384622
vt 0.029943 0.197204
vt 0.052973 0.197204
vt 0.052973 0.384622
vt 0.029943 0.012680
vt 0.052973 0.012680
vt 0.132389 0.463374
vt 0.132389 0.368096
vt 0.155419 0.368096
vt 0.155419 0.463374
vt 0.058558 0.384622
vt 0.058558 0.200098
vt 0.081588 0.200098
vt 0.081588 0.384622
vt 0.058558 0.012680
vt 0.081588 0.012680
vt 0.457606 0.101082
vt 0.457606 0.390790
vt 0.409442 0.358458
vt 0.409442 0.133413
vt 0.290287 0.474943
vt 0.290661 0.423828
vt 0.290287 0.016929
vt 0.290661 0.068044
vt 0.125551 0.390790
vt 0.173715 0.358458
vt 0.125551 0.101082
vt 0.173715 0.133414
vt 0.125551 0.305729
vt 0.173715 0.330775
vt 0.173715 0.163172
vt 0.125551 0.186275
vt 0.196015 0.012680
vt 0.196015 0.264757
vt 0.173018 0.264757
vt 0.173018 0.012680
vt 0.138785 0.012680
vt 0.138785 0.145729
vt 0.115788 0.145729
vt 0.115788 0.012680
vt 0.138785 0.276724
vt 0.115788 0.276724
vt 0.030880 0.442159
vt 0.030880 0.411150
vt 0.053877 0.411150
vt 0.053877 0.442159
vt 0.167400 0.012680
vt 0.167400 0.143675
vt 0.144403 0.143675
vt 0.144403 0.012680
vt 0.167400 0.276724
vt 0.144403 0.276724
vt 0.181186 0.463473
vt 0.158156 0.463473
vt 0.158156 0.368046
vt 0.181186 0.368046
vt 0.079687 0.442850
vt 0.056690 0.442850
vt 0.056690 0.409517
vt 0.079687 0.409517
vt 0.103450 0.463466
vt 0.080420 0.463466
vt 0.080453 0.409517
vt 0.103450 0.409517
vt 0.104183 0.410333
vt 0.127214 0.410333
vt 0.127214 0.464283
vt 0.104217 0.464283
vt 0.941521 0.923170
vt 0.941521 0.642879
vt 0.952595 0.642879
vt 0.952595 0.923170
vt 0.537031 0.639077
vt 0.673031 0.639077
vt 0.687718 0.908951
vt 0.522345 0.908951
vt 0.962811 0.626599
vt 0.962811 0.880402
vt 0.829637 0.753500
vt 0.829637 0.954125
vt 0.671212 0.880402
vt 0.671212 0.626599
vt 0.829637 0.552876
vt 0.049328 0.517373
vt 0.379000 0.517342
vt 0.379005 0.569767
vt 0.049333 0.569798
vt 0.051742 0.601474
vt 0.423556 0.601474
vt 0.423556 0.973288
vt 0.051742 0.973288
vt 0.378204 0.569432
vt 0.050874 0.569623
vt 0.050843 0.516710
vt 0.378174 0.516518
vt 0.049973 0.516661
vt 0.379644 0.515978
vt 0.379754 0.568989
vt 0.050083 0.569672
vt 0.050946 0.516940
vt 0.378276 0.516148
vt 0.378403 0.568832
vt 0.051074 0.569625
vn -1.000000 0.000000 0.000000
vn -1.000000 0.000000 0.000000
vn -1.000000 0.000000 0.000000
vn -1.000000 0.000000 0.000000
vn -0.000000 1.000000 0.000000
vn -0.000000 1.000000 0.000000
vn -0.000000 1.000000 0.000000
vn -0.000000 1.000000 0.000000
vn 0.000000 0.000000 1.000000
vn 0.000000 0.000000 1.000000
vn 0.000000 0.000000 1.000000
vn 0.000000 0.000000 1.000000
vn -0.000000 0.000000 -1.000000
vn -0.000000 0.000000 -1.000000
vn -0.000000 0.000000 -1.000000
vn -0.000000 0.000000 -1.000000
vn -1.000000 0.000000 0.000000
vn -1.000000 0.000000 0.000000
vn -1.000000 0.000000 0.000000
vn -1.000000 0.000000 0.000000
vn 0.000000 1.000000 0.000000
vn 0.000000 1.000000 0.000000
vn 0.000000 1.000000 0.000000
vn 0.000000 1.000000 0.000000
vn 0.000000 0.000000 1.000000
vn 0.000000 0.000000 1.000000
vn 0.000000 0.000000 1.000000
vn 0.000000 0.000000 1.000000
vn -0.000000 0.000000 -1.000000
vn -0.000000 0.000000 -1.000000
vn -0.000000 0.000000 -1.000000
vn -0.000000 0.000000 -1.000000
vn 1.000000 0.000000 0.000000
vn 1.000000 0.000000 0.000000
vn 1.000000 0.000000 0.000000
vn 1.000000 0.000000 0.000000
vn 0.449321 0.000000 -0.893370
vn 0.449321 0.000000 -0.893370
vn 0.449321 0.000000 -0.893370
vn 0.449321 0.000000 -0.893370
vn -0.454918 0.000000 -0.890533
vn -0.454918 0.000000 -0.890533
vn -0.454918 0.000000 -0.890533
vn -0.454918 0.000000 -0.890533
vn -1.000000 0.000000 0.000000
vn -1.000000 0.000000 0.000000
vn -1.000000 0.000000 0.000000
vn -1.000000 0.000000 0.000000
vn -0.454918 0.000000 0.890533
vn -0.454918 0.000000 0.890533
vn -0.454918 0.000000 0.890533
vn -0.454918 0.000000 0.890533
vn 0.449321 0.000000 0.893371
vn 0.449321 0.000000 0.893371
vn 0.449321 0.000000 0.893371
vn 0.449321 0.000000 0.893371
vn 0.000000 1.000000 -0.000000
vn 0.000000 1.000000 -0.000000
vn 0.000000 1.000000 -0.000000
vn 0.000000 1.000000 -0.000000
vn 0.000000 1.000000 -0.000000
vn 0.000000 1.000000 -0.000000
vn 0.000000 1.000000 -0.000000
vn 0.000000 1.000000 -0.000000
vn -0.000000 1.000000 0.000000
vn -0.000000 1.000000 0.000000
vn -0.000000 1.000000 0.000000
vn -0.000000 1.000000 0.000000
vn 0.000000 1.000000 -0.000000
vn 0.000000 1.000000 -0.000000
vn 0.000000 1.000000 -0.000000
vn 0.000000 1.000000 -0.000000
vn 0.000000 1.000000 0.000000
vn 0.000000 1.000000 0.000000
vn 0.000000 1.000000 0.000000
vn 0.000000 1.000000 0.000000
vn 0.000000 1.000000 0.000000
vn 0.000000 1.000000 0.000000
vn 0.000000 1.000000 0.000000
vn 0.000000 1.000000 0.000000
vn -1.000000 0.000000 0.000000
vn -1.000000 0.000000 0.000000
vn -1.000000 0.000000 0.000000
vn -1.000000 0.000000 0.000000
vn -0.482148 0.000000 0.876090
vn -0.482148 0.000000 0.876090
vn -0.482148 0.000000 0.876090
vn -0.482148 0.000000 0.876090
vn 0.487920 0.000000 0.872889
vn 0.487920 0.000000 0.872889
vn 0.487920 0.000000 0.872889
vn 0.487920 0.000000 0.872889
vn 1.000000 0.000000 -0.000000
vn 1.000000 0.000000 -0.000000
vn 1.000000 0.000000 -0.000000
vn 1.000000 0.000000 -0.000000
vn 0.487920 0.000000 -0.872888
vn 0.487920 0.000000 -0.872888
vn 0.487920 0.000000 -0.872888
vn 0.487920 0.000000 -0.872888
vn -0.482148 0.000000 -0.876090
vn -0.482148 0.000000 -0.876090
vn -0.482148 0.000000 -0.876090
vn -0.482148 0.000000 -0.876090
vn -1.000000 0.000000 0.000000
vn -1.000000 0.000000 0.000000
vn -1.000000 0.000000 0.000000
vn -1.000000 0.000000 0.000000
vn 0.000000 1.000000 0.000000
vn 0.000000 1.000000 0.000000
vn 0.000000 1.000000 0.000000
vn 0.000000 1.000000 0.000000
vn 1.000000 0.000000 0.000000
vn 1.000000 0.000000 0.000000
vn 1.000000 0.000000 0.000000
vn 1.000000 0.000000 0.000000
vn 0.461368 0.000000 0.887209
vn 0.461368 0.000000 0.887209
vn 0.461368 0.000000 0.887209
vn 0.461368 0.000000 0.887209
vn 0.432492 0.000000 -0.901638
vn 0.432492 0.000000 -0.901638
vn 0.432492 0.000000 -0.901638
vn 0.432492 0.000000 -0.901638
vn -1.000000 0.000000 0.000000
vn -1.000000 0.000000 0.000000
vn -1.000000 0.000000 0.000000
vn -1.000000 0.000000 0.000000
vn 0.000000 1.000000 -0.000000
vn 0.000000 1.000000 -0.000000
vn 0.000000 1.000000 -0.000000
vn 0.000000 1.000000 -0.000000
vn 0.000000 1.000000 0.000000
vn 0.000000 1.000000 -0.000000
vn -0.000000 1.000000 0.000000
vn 0.000000 1.000000 -0.000000
vn -0.000000 1.000000 0.000000
vn -0.000000 1.000000 0.000000
vn -0.000000 1.000000 0.000000
vn -1.000000 0.000000 0.000000
vn -1.000000 0.000000 0.000000
vn -1.000000 0.000000 0.000000
vn -1.000000 0.000000 0.000000
vn 0.000000 1.000000 0.000000
vn 0.000000 1.000000 0.000000
vn 0.000000 1.000000 0.000000
vn 0.000000 1.000000 0.000000
vn 1.000000 0.000000 -0.000000
vn 1.000000 0.000000 -0.000000
vn 1.000000 0.000000 -0.000000
vn 1.000000 0.000000 -0.000000
vn 0.000000 0.000000 1.000000
vn 0.000000 0.000000 1.000000
vn 0.000000 0.000000 1.000000
vn 0.000000 0.000000 1.000000
vn -0.000000 0.000000 -1.000000
vn -0.000000 0.000000 -1.000000
vn -0.000000 0.000000 -1.000000
vn -0.000000 0.000000 -1.000000
s off
g polySurface18
usemtl lambert5SG
f 1/1/1 2/2/2 4/3/3 3/4/4
f 3/5/5 4/6/6 6/7/7 5/8/8
f 2/9/9 8/10/10 6/11/11 4/12/12
f 7/13/13 1/14/14 3/15/15 5/16/16
f 9/17/17 10/18/18 12/19/19 11/20/20
f 11/21/21 12/22/22 14/23/23 13/24/24
f 10/25/25 16/26/26 14/27/27 12/28/28
f 15/29/29 9/30/30 11/31/31 13/32/32
f 17/33/33 18/34/34 24/35/35 23/36/36
f 18/37/37 19/38/38 25/39/39 24/40/40
f 19/38/41 20/41/42 26/42/43 25/39/44
f 20/43/45 41/44/46 42/45/47 26/46/48
f 21/47/49 22/48/50 28/49/51 27/50/52
f 22/48/53 17/51/54 23/52/55 28/49/56
f 23/53/57 24/54/58 30/55/59 29/56/60
f 24/54/61 25/57/62 31/58/63 30/55/64
f 25/57/65 26/61/66 32/62/67 31/58/68
f 26/61/69 42/65/70 43/66/71 32/62/72
f 27/63/73 28/59/74 34/60/75 33/64/76
f 28/59/77 23/53/78 29/56/79 34/60/80
f 29/69/81 30/70/82 36/71/83 35/72/84
f 30/73/85 31/74/86 37/75/87 36/76/88
f 31/74/89 32/77/90 38/78/91 37/75/92
f 32/79/93 43/80/94 44/81/95 38/82/96
f 33/83/97 34/84/98 40/85/99 39/86/100
f 34/84/101 29/87/102 35/88/103 40/85/104
f 46/89/105 45/90/106 21/91/107 27/92/108
f 47/67/109 46/68/110 27/63/111 33/64/112
f 48/93/113 47/94/114 33/95/115 39/96/116
f 42/97/117 41/98/118 44/99/119 43/100/120
f 45/101/121 46/102/122 47/103/123 48/104/124
usemtl lambert6SG
f 49/105/125 50/106/126 52/107/127 51/108/128
f 51/109/129 52/110/130 54/111/131 53/112/132
s 1
f 55/113/133 56/114/134 61/115/135
f 56/114/134 57/116/136 61/115/135
f 57/116/136 58/117/137 61/115/135
f 58/117/137 59/118/138 61/115/135
f 59/118/138 60/119/139 61/115/135
f 60/119/139 55/113/133 61/115/135
s off
usemtl lambert7SG
f 62/120/140 63/121/141 65/122/142 64/123/143
f 64/124/144 65/125/145 67/126/146 66/127/147
f 66/128/148 67/129/149 69/130/150 68/131/151
f 63/132/152 69/133/153 67/134/154 65/135/155
f 68/136/156 62/137/157 64/138/158 66/139/159
