# This file uses centimeters as units for non-parametric coordinates.

mtllib puzzlePiece_oneBend_NE.mtl
g default
v -0.065224 0.093000 0.173463
v -0.108579 0.093000 0.108579
v -0.173463 0.093000 0.065224
v -0.250000 0.093000 0.050000
v -0.050000 0.093000 0.250000
v -0.065224 0.107000 0.173463
v -0.108579 0.107000 0.108579
v -0.173463 0.107000 0.065224
v -0.250000 0.107000 0.050000
v -0.050000 0.107000 0.250000
v -0.112027 0.093000 0.192850
v -0.144400 0.093000 0.144400
v -0.192850 0.093000 0.112027
v -0.250000 0.093000 0.100659
v -0.100659 0.093000 0.250000
v -0.112027 0.107000 0.192850
v -0.144400 0.107000 0.144400
v -0.192850 0.107000 0.112027
v -0.250000 0.107000 0.100659
v -0.100659 0.107000 0.250000
v 0.073358 0.093000 0.116061
v -0.002513 0.093000 0.002513
v -0.116061 0.093000 -0.073358
v -0.250000 0.093000 -0.100000
v 0.100000 0.093000 0.250000
v 0.073358 0.107000 0.116061
v -0.002513 0.107000 0.002513
v -0.116061 0.107000 -0.073358
v -0.250000 0.107000 -0.100000
v 0.100000 0.107000 0.250000
v 0.027064 0.093000 0.135237
v -0.037945 0.093000 0.037945
v -0.135236 0.093000 -0.027063
v -0.250000 0.093000 -0.049891
v 0.049891 0.093000 0.250000
v 0.027064 0.107000 0.135237
v -0.037945 0.107000 0.037945
v -0.135236 0.107000 -0.027063
v -0.250000 0.107000 -0.049891
v 0.049891 0.107000 0.250000
v -0.250000 0.098000 -0.090000
v 0.090000 0.098000 0.250000
v -0.009584 0.102000 0.009584
v -0.250000 0.102000 -0.090000
v 0.090000 0.102000 0.250000
v -0.250000 0.098000 0.063188
v -0.063188 0.098000 0.250000
v -0.117904 0.102000 0.117904
v -0.250000 0.102000 0.063188
v -0.063188 0.102000 0.250000
v -0.250000 0.000000 0.250000
v 0.250000 0.000000 0.250000
v -0.250000 0.100000 0.250000
v 0.250000 0.100000 0.250000
v -0.250000 0.100000 -0.250000
v 0.250000 0.100000 -0.250000
v -0.250000 0.000000 -0.250000
v 0.250000 0.000000 -0.250000
vt 0.075897 0.465839
vt 0.017007 0.465839
vt 0.017007 0.189629
vt 0.075897 0.189629
vt 0.134982 0.465839
vt 0.134982 0.189630
vt 0.195994 0.465839
vt 0.195994 0.189630
vt 0.198278 0.188448
vt 0.261441 0.188448
vt 0.261441 0.464657
vt 0.198278 0.464657
vt 0.299692 0.050818
vt 0.394849 0.125962
vt 0.334954 0.177032
vt 0.263900 0.120922
vt 0.454007 0.231801
vt 0.379127 0.256062
vt 0.183022 0.017809
vt 0.176782 0.096274
vt 0.468158 0.352222
vt 0.389693 0.345981
vt 0.017030 0.016665
vt 0.047259 0.016665
vt 0.047259 0.159453
vt 0.017030 0.159453
vt 0.379278 0.197486
vt 0.425892 0.197486
vt 0.425892 0.463609
vt 0.379278 0.463609
vt 0.333327 0.197486
vt 0.333327 0.463609
vt 0.286277 0.197486
vt 0.286277 0.463609
vt 0.242089 0.096287
vt 0.290914 0.096287
vt 0.290914 0.362410
vt 0.242089 0.362410
vt 0.070821 0.015781
vt 0.101356 0.015781
vt 0.101356 0.158570
vt 0.070821 0.158570
vt 0.394735 0.472043
vt 0.331653 0.472043
vt 0.331653 0.193003
vt 0.394735 0.193003
vt 0.267215 0.472043
vt 0.267215 0.193003
vt 0.203264 0.472043
vt 0.203264 0.193003
vt 0.397457 0.193003
vt 0.462609 0.193003
vt 0.462609 0.472043
vt 0.397457 0.472043
vt 0.236008 0.083035
vt 0.323569 0.193321
vt 0.277612 0.216937
vt 0.202586 0.122440
vt 0.362260 0.328720
vt 0.310764 0.332952
vt 0.346191 0.468619
vt 0.296995 0.452822
vt 0.112907 0.014652
vt 0.097110 0.063848
vt 0.038176 0.016372
vt 0.054055 0.016372
vt 0.054055 0.147057
vt 0.038176 0.147057
vt 0.124842 0.191762
vt 0.177858 0.191762
vt 0.177858 0.478807
vt 0.124842 0.478807
vt 0.071134 0.191762
vt 0.071134 0.478807
vt 0.016875 0.191762
vt 0.016875 0.478807
vt 0.200889 0.190712
vt 0.255620 0.190712
vt 0.255620 0.477757
vt 0.200889 0.477757
vt 0.012852 0.015632
vt 0.029522 0.015632
vt 0.029522 0.151010
vt 0.012852 0.151010
vt 0.751498 0.655178
vt 0.836529 0.855031
vt 0.708244 0.856048
vt 0.661524 0.746239
vt 0.549488 0.573718
vt 0.550531 0.701482
vt 0.541184 0.768673
vt 0.597151 0.768673
vt 0.597151 0.939220
vt 0.541184 0.939220
vt 0.598955 0.768673
vt 0.654922 0.768673
vt 0.654922 0.939220
vt 0.598955 0.939220
vt 0.049328 0.517373
vt 0.379000 0.517342
vt 0.379005 0.569767
vt 0.049333 0.569798
vt 0.051742 0.601474
vt 0.423556 0.601474
vt 0.423556 0.973288
vt 0.051742 0.973288
vt 0.378204 0.569432
vt 0.050874 0.569623
vt 0.050843 0.516710
vt 0.378174 0.516518
vt 0.049973 0.516661
vt 0.379644 0.515978
vt 0.379754 0.568989
vt 0.050083 0.569672
vt 0.050946 0.516940
vt 0.378276 0.516148
vt 0.378403 0.568832
vt 0.051074 0.569625
vn 0.923880 0.000000 -0.382683
vn 0.707107 0.000000 -0.707107
vn 0.707107 0.000000 -0.707107
vn 0.923880 0.000000 -0.382683
vn 0.382684 0.000000 -0.923879
vn 0.382684 0.000000 -0.923879
vn 0.195091 0.000000 -0.980785
vn 0.195091 0.000000 -0.980785
vn 0.980785 0.000000 -0.195090
vn 0.980785 0.000000 -0.195090
vn 0.000000 1.000000 0.000000
vn 0.000000 1.000000 -0.000000
vn 0.000000 1.000000 -0.000000
vn 0.000000 1.000000 0.000000
vn 0.000000 1.000000 0.000000
vn 0.000000 1.000000 0.000000
vn 0.000000 1.000000 0.000000
vn 0.000000 1.000000 0.000000
vn 0.000000 1.000000 0.000000
vn 0.000000 1.000000 0.000000
vn -0.000000 0.000001 1.000000
vn -0.000000 0.000001 1.000000
vn -0.000000 0.000001 1.000000
vn -0.000000 0.000001 1.000000
vn -0.980785 0.000001 0.195090
vn -0.980785 0.000001 0.195090
vn -0.980785 0.000001 0.195090
vn -0.980785 0.000001 0.195090
vn -0.831470 0.000000 0.555569
vn -0.831470 0.000000 0.555569
vn -0.831470 0.000000 0.555570
vn -0.831470 0.000000 0.555570
vn -0.555570 0.000000 0.831470
vn -0.555570 0.000000 0.831470
vn -0.555570 0.000000 0.831470
vn -0.555570 0.000000 0.831470
vn -0.195091 0.000000 0.980785
vn -0.195091 0.000000 0.980785
vn -0.195091 0.000000 0.980785
vn -0.195091 0.000000 0.980785
vn -1.000000 0.000000 0.000000
vn -1.000000 0.000000 0.000000
vn -1.000000 0.000000 0.000000
vn -1.000000 0.000000 0.000000
vn 0.923880 0.000000 -0.382683
vn 0.707107 0.000000 -0.707107
vn 0.707107 0.000000 -0.707107
vn 0.923880 0.000000 -0.382683
vn 0.382684 0.000000 -0.923879
vn 0.382684 0.000000 -0.923879
vn 0.195091 0.000000 -0.980785
vn 0.195091 0.000000 -0.980785
vn 0.980785 0.000000 -0.195090
vn 0.980785 0.000000 -0.195090
vn 0.000000 1.000000 0.000000
vn 0.000000 1.000000 0.000000
vn 0.000000 1.000000 0.000000
vn 0.000000 1.000000 0.000000
vn 0.000000 1.000000 -0.000000
vn 0.000000 1.000000 -0.000000
vn 0.000000 1.000000 -0.000000
vn 0.000000 1.000000 -0.000000
vn 0.000000 1.000000 0.000000
vn 0.000000 1.000000 0.000000
vn 0.000000 0.000000 1.000000
vn 0.000000 0.000000 1.000000
vn 0.000000 0.000000 1.000000
vn 0.000000 0.000000 1.000000
vn -0.980785 0.000000 0.195090
vn -0.980785 0.000000 0.195090
vn -0.980785 0.000000 0.195090
vn -0.980785 0.000000 0.195090
vn -0.831470 0.000000 0.555570
vn -0.831470 0.000000 0.555570
vn -0.831470 0.000000 0.555570
vn -0.831470 0.000000 0.555570
vn -0.555571 0.000000 0.831469
vn -0.555571 0.000000 0.831469
vn -0.555571 0.000000 0.831469
vn -0.555571 0.000000 0.831469
vn -0.195091 0.000000 0.980785
vn -0.195091 0.000000 0.980785
vn -0.195091 0.000000 0.980785
vn -0.195091 0.000000 0.980785
vn -1.000000 0.000000 -0.000001
vn -1.000000 0.000000 -0.000001
vn -1.000000 0.000000 -0.000001
vn -1.000000 0.000000 -0.000001
vn 0.000000 1.000000 -0.000000
vn 0.000000 1.000000 0.000000
vn 0.000000 1.000000 0.000000
vn 0.000000 1.000000 -0.000000
vn 0.000000 1.000000 -0.000000
vn 0.000000 1.000000 -0.000000
vn -1.000000 0.000000 0.000000
vn -1.000000 0.000000 0.000000
vn -1.000000 0.000000 0.000000
vn -1.000000 0.000000 0.000000
vn 0.000000 0.000000 1.000000
vn 0.000000 0.000000 1.000000
vn 0.000000 0.000000 1.000000
vn 0.000000 0.000000 1.000000
vn 0.000000 0.000000 1.000000
vn 0.000000 0.000000 1.000000
vn 0.000000 0.000000 1.000000
vn 0.000000 0.000000 1.000000
vn 0.000000 1.000000 0.000000
vn 0.000000 1.000000 0.000000
vn 0.000000 1.000000 0.000000
vn 0.000000 1.000000 0.000000
vn 0.000000 0.000000 -1.000000
vn 0.000000 0.000000 -1.000000
vn 0.000000 0.000000 -1.000000
vn 0.000000 0.000000 -1.000000
vn 1.000000 0.000000 0.000000
vn 1.000000 0.000000 0.000000
vn 1.000000 0.000000 0.000000
vn 1.000000 0.000000 0.000000
vn -1.000000 0.000000 0.000000
vn -1.000000 0.000000 0.000000
vn -1.000000 0.000000 0.000000
vn -1.000000 0.000000 0.000000
s 1
g pCylinder9
usemtl lambert5SG
f 1/7/1 2/5/2 7/6/3 6/8/4
f 2/5/2 3/1/5 8/4/6 7/6/3
f 3/1/5 4/2/7 9/3/8 8/4/6
f 5/9/9 1/10/1 6/11/4 10/12/10
s 2
f 6/13/11 7/14/12 17/15/13 16/16/14
f 7/14/12 8/17/15 18/18/16 17/15/13
f 8/17/15 9/21/17 19/22/18 18/18/16
f 10/19/19 6/13/11 16/16/14 20/20/20
s off
f 15/23/21 5/24/22 10/25/23 20/26/24
f 11/27/25 15/28/26 20/29/27 16/30/28
f 12/31/29 11/27/30 16/30/31 17/32/32
f 13/33/33 12/31/34 17/32/35 18/34/36
f 14/35/37 13/36/38 18/37/39 19/38/40
f 4/39/41 14/40/42 19/41/43 9/42/44
s 3
f 21/43/45 22/44/46 27/45/47 26/46/48
f 22/44/46 23/47/49 28/48/50 27/45/47
f 23/47/49 24/49/51 29/50/52 28/48/50
f 25/51/53 21/52/45 26/53/48 30/54/54
s 4
f 26/55/55 27/56/56 37/57/57 36/58/58
f 27/56/56 28/59/59 38/60/60 37/57/57
f 28/59/59 29/61/61 39/62/62 38/60/60
f 30/63/63 26/55/55 36/58/58 40/64/64
s off
f 35/65/65 25/66/66 30/67/67 40/68/68
f 31/69/69 35/70/70 40/71/71 36/72/72
f 32/73/73 31/69/74 36/72/75 37/74/76
f 33/75/77 32/73/78 37/74/79 38/76/80
f 34/77/81 33/78/82 38/79/83 39/80/84
f 24/81/85 34/82/86 39/83/87 29/84/88
s 5
f 43/85/89 44/86/90 49/87/91 48/88/92
f 45/89/93 43/85/89 48/88/92 50/90/94
s off
f 41/91/95 46/92/96 49/93/97 44/94/98
f 47/95/99 42/96/100 45/97/101 50/98/102
f 51/99/103 52/100/104 54/101/105 53/102/106
f 53/103/107 54/104/108 56/105/109 55/106/110
f 55/107/111 56/108/112 58/109/113 57/110/114
f 52/111/115 58/112/116 56/113/117 54/114/118
f 57/115/119 51/116/120 53/117/121 55/118/122
