# This file uses centimeters as units for non-parametric coordinates.

mtllib grid_lava_5x5.mtl
g default
v -0.200000 -0.006238 2.200000
v 2.200000 -0.006238 2.200000
v -0.200000 0.493762 2.200000
v 2.200000 0.493762 2.200000
v -0.200000 0.493762 -0.200000
v 2.200000 0.493762 -0.200000
v -0.200000 -0.006238 -0.200000
v 2.200000 -0.006238 -0.200000
v 0.200000 -0.006238 2.200000
v 0.200000 0.493762 2.200000
v 0.200000 0.493762 -0.200000
v 0.200000 -0.006238 -0.200000
v 1.800000 -0.006238 2.200000
v 1.800000 0.493762 2.200000
v 1.800000 0.493762 -0.200000
v 1.800000 -0.006238 -0.200000
v -0.200000 0.493762 0.200000
v 2.200000 0.493762 0.200000
v -0.200000 -0.006238 0.200000
v 2.200000 -0.006238 0.200000
v 0.200000 0.493762 0.200000
v 0.200000 -0.006238 0.200000
v 1.800000 0.493762 0.200000
v 1.800000 -0.006238 0.200000
v -0.200000 0.493762 1.800000
v 2.200000 0.493762 1.800000
v 0.200000 0.493762 1.800000
v 1.800000 0.493762 1.800000
v -0.200000 -0.006238 1.800000
v 2.200000 -0.006238 1.800000
v 0.200000 -0.006238 1.800000
v 1.800000 -0.006238 1.800000
vt 0.375000 0.000000
vt 0.425385 0.000000
vt 0.425385 0.250000
vt 0.375000 0.250000
vt 0.425453 0.295302
vt 0.375000 0.295364
vt 0.375000 0.500000
vt 0.425763 0.500000
vt 0.425763 0.750000
vt 0.375000 0.750000
vt 0.625000 0.000000
vt 0.670059 0.000000
vt 0.670059 0.250000
vt 0.625000 0.250000
vt 0.125000 0.000000
vt 0.175384 0.000000
vt 0.175384 0.250000
vt 0.125000 0.250000
vt 0.574622 0.000000
vt 0.574622 0.250000
vt 0.425687 0.449550
vt 0.574925 0.449356
vt 0.575002 0.500000
vt 0.575002 0.750000
vt 0.625000 0.449291
vt 0.625000 0.500000
vt 0.625000 0.750000
vt 0.375000 0.449616
vt 0.824291 0.250000
vt 0.824291 0.000000
vt 0.875000 0.000000
vt 0.875000 0.250000
vt 0.329636 0.000000
vt 0.329636 0.250000
vt 0.574691 0.295120
vt 0.625000 0.295059
vt 0.425453 0.954698
vt 0.425687 0.800449
vt 0.574925 0.800644
vt 0.574691 0.954880
vn 0.000000 0.000000 1.000000
vn 0.000000 0.000000 1.000000
vn 0.000000 0.000000 1.000000
vn 0.000000 0.000000 1.000000
vn 0.000000 1.000000 0.000000
vn 0.000000 1.000000 -0.000000
vn 0.000000 1.000000 -0.000000
vn 0.000000 1.000000 0.000000
vn -0.000000 0.000000 -1.000000
vn -0.000000 0.000000 -1.000000
vn -0.000000 0.000000 -1.000000
vn -0.000000 0.000000 -1.000000
vn 1.000000 0.000000 0.000000
vn 1.000000 0.000000 0.000000
vn 1.000000 0.000000 0.000000
vn 1.000000 0.000000 0.000000
vn -1.000000 0.000000 -0.000000
vn -1.000000 0.000000 -0.000000
vn -1.000000 0.000000 -0.000000
vn -1.000000 0.000000 -0.000000
vn 0.000000 0.000000 1.000000
vn 0.000000 0.000000 1.000000
vn 0.000000 1.000000 0.000000
vn 0.000000 1.000000 0.000000
vn 0.000000 1.000000 0.000000
vn 0.000000 1.000000 0.000000
vn 0.000000 0.000000 -1.000000
vn 0.000000 0.000000 -1.000000
vn 0.000000 0.000000 1.000000
vn 0.000000 0.000000 1.000000
vn 0.000000 1.000000 0.000000
vn 0.000000 1.000000 0.000000
vn 0.000000 0.000000 -1.000000
vn 0.000000 0.000000 -1.000000
vn 0.000000 1.000000 -0.000000
vn 0.000000 1.000000 -0.000000
vn 1.000000 0.000000 0.000000
vn 1.000000 0.000000 0.000000
vn 1.000000 0.000000 0.000000
vn 1.000000 0.000000 0.000000
vn -1.000000 0.000000 -0.000000
vn -1.000000 0.000000 -0.000000
vn 0.000000 1.000000 -0.000000
vn 0.000000 1.000000 0.000000
vn -1.000000 0.000000 0.000000
vn -1.000000 0.000000 0.000000
vn 0.000000 1.000000 -0.000000
vn 0.000000 1.000000 0.000000
vn 1.000000 0.000000 0.000000
vn 1.000000 0.000000 0.000000
vn 1.000000 0.000000 0.000000
vn 1.000000 0.000000 0.000000
vn 0.000000 -0.000000 1.000000
vn 0.000000 -0.000000 1.000000
vn 0.000000 -0.000000 1.000000
vn 0.000000 -0.000000 1.000000
vn -1.000000 -0.000000 0.000000
vn -1.000000 -0.000000 0.000000
vn -1.000000 -0.000000 0.000000
vn -1.000000 -0.000000 0.000000
vn 0.000000 0.000000 -1.000000
vn 0.000000 0.000000 -1.000000
vn 0.000000 0.000000 -1.000000
vn 0.000000 0.000000 -1.000000
s 1
g polySurface1 pCube16
usemtl lambert2SG
f 1/1/1 9/2/2 10/3/3 3/4/4
s 2
f 3/4/5 10/3/6 27/5/7 25/6/8
s 3
f 5/7/9 11/8/10 12/9/11 7/10/12
s 4
f 2/11/13 30/12/14 26/13/15 4/14/16
s 5
f 7/15/17 19/16/18 17/17/19 5/18/20
s 1
f 10/3/3 9/2/2 13/19/21 14/20/22
s 2
f 11/8/23 21/21/24 23/22/25 15/23/26
s 3
f 12/9/11 11/8/10 15/23/27 16/24/28
s 1
f 14/20/22 13/19/21 2/11/29 4/14/30
s 2
f 15/23/26 23/22/25 18/25/31 6/26/32
s 3
f 16/24/28 15/23/27 6/26/33 8/27/34
s 2
f 17/28/35 21/21/24 11/8/23 5/7/36
s 4
f 18/29/37 20/30/38 8/31/39 6/32/40
s 5
f 17/17/19 19/16/18 29/33/41 25/34/42
s 2
f 18/25/31 23/22/25 28/35/43 26/36/44
f 25/6/8 27/5/7 21/21/24 17/28/35
s 4
f 26/13/15 30/12/14 20/30/38 18/29/37
s 5
f 25/34/42 29/33/41 1/1/45 3/4/46
s 2
f 28/35/43 27/5/7 10/3/6 14/20/47
f 26/36/44 28/35/43 14/20/47 4/14/48
s off
f 31/37/49 22/38/50 21/21/51 27/5/52
f 23/22/53 21/21/54 22/38/55 24/39/56
f 24/39/57 32/40/58 28/35/59 23/22/60
f 32/40/61 31/37/62 27/5/63 28/35/64
g default
v 1.020297 0.483657 1.825000
v 1.020297 0.483657 0.175000
v 1.000000 0.506238 1.825000
v 1.000000 0.506238 0.175000
v 0.979703 0.483657 1.825000
v 0.979703 0.483657 0.175000
v 0.175000 0.483657 1.020297
v 1.825000 0.483657 1.020297
v 0.175000 0.506238 1.000000
v 1.825000 0.506238 1.000000
v 0.175000 0.483657 0.979703
v 1.825000 0.483657 0.979703
v 0.520297 0.483657 1.825000
v 0.520297 0.483657 0.175000
v 0.500000 0.506238 1.825000
v 0.500000 0.506238 0.175000
v 0.479703 0.483657 1.825000
v 0.479703 0.483657 0.175000
v 0.175000 0.483657 0.520297
v 1.825000 0.483657 0.520297
v 0.175000 0.506238 0.500000
v 1.825000 0.506238 0.500000
v 0.175000 0.483657 0.479703
v 1.825000 0.483657 0.479703
v 0.175000 0.483657 1.520297
v 1.825000 0.483657 1.520297
v 0.175000 0.506238 1.500000
v 1.825000 0.506238 1.500000
v 0.175000 0.483657 1.479703
v 1.825000 0.483657 1.479703
v 1.520297 0.483657 1.825000
v 1.520297 0.483657 0.175000
v 1.500000 0.506238 1.825000
v 1.500000 0.506238 0.175000
v 1.479703 0.483657 1.825000
v 1.479703 0.483657 0.175000
vt 0.375000 0.250000
vt 0.625000 0.250000
vt 0.625000 0.375000
vt 0.375000 0.375000
vt 0.625000 0.500000
vt 0.375000 0.500000
vt 0.375000 0.250000
vt 0.625000 0.250000
vt 0.625000 0.375000
vt 0.375000 0.375000
vt 0.625000 0.500000
vt 0.375000 0.500000
vt 0.375000 0.250000
vt 0.625000 0.250000
vt 0.625000 0.375000
vt 0.375000 0.375000
vt 0.625000 0.500000
vt 0.375000 0.500000
vt 0.375000 0.250000
vt 0.625000 0.250000
vt 0.625000 0.375000
vt 0.375000 0.375000
vt 0.625000 0.500000
vt 0.375000 0.500000
vt 0.375000 0.250000
vt 0.625000 0.250000
vt 0.625000 0.375000
vt 0.375000 0.375000
vt 0.625000 0.500000
vt 0.375000 0.500000
vt 0.375000 0.250000
vt 0.625000 0.250000
vt 0.625000 0.375000
vt 0.375000 0.375000
vt 0.625000 0.500000
vt 0.375000 0.500000
vn 0.743710 0.668502 0.000000
vn 0.743710 0.668502 0.000000
vn 0.000000 1.000000 0.000000
vn 0.000000 1.000000 0.000000
vn -0.743710 0.668502 0.000000
vn -0.743710 0.668502 0.000000
vn 0.000000 0.668503 0.743710
vn 0.000000 0.668503 0.743710
vn 0.000000 1.000000 0.000000
vn 0.000000 1.000000 0.000000
vn 0.000000 0.668503 -0.743710
vn 0.000000 0.668503 -0.743710
vn 0.743710 0.668503 0.000000
vn 0.743710 0.668503 0.000000
vn 0.000000 1.000000 0.000000
vn 0.000000 1.000000 0.000000
vn -0.743710 0.668503 0.000000
vn -0.743710 0.668503 0.000000
vn 0.000000 0.668503 0.743710
vn 0.000000 0.668503 0.743710
vn 0.000000 1.000000 0.000000
vn 0.000000 1.000000 0.000000
vn 0.000000 0.668503 -0.743709
vn 0.000000 0.668503 -0.743709
vn 0.000000 0.668503 0.743710
vn 0.000000 0.668503 0.743710
vn 0.000000 1.000000 0.000000
vn 0.000000 1.000000 0.000000
vn 0.000000 0.668503 -0.743710
vn 0.000000 0.668503 -0.743710
vn 0.743709 0.668504 0.000000
vn 0.743709 0.668504 0.000000
vn 0.000000 1.000000 0.000000
vn 0.000000 1.000000 0.000000
vn -0.743709 0.668504 0.000000
vn -0.743709 0.668504 0.000000
s 1
g polySurface5
usemtl lambert3SG
f 33/41/65 34/42/66 36/43/67 35/44/68
f 35/44/68 36/43/67 38/45/69 37/46/70
s 2
f 39/47/71 40/48/72 42/49/73 41/50/74
f 41/50/74 42/49/73 44/51/75 43/52/76
s 3
f 45/53/77 46/54/78 48/55/79 47/56/80
f 47/56/80 48/55/79 50/57/81 49/58/82
s 4
f 51/59/83 52/60/84 54/61/85 53/62/86
f 53/62/86 54/61/85 56/63/87 55/64/88
s 5
f 57/65/89 58/66/90 60/67/91 59/68/92
f 59/68/92 60/67/91 62/69/93 61/70/94
s 6
f 63/71/95 64/72/96 66/73/97 65/74/98
f 65/74/98 66/73/97 68/75/99 67/76/100
