# This file uses centimeters as units for non-parametric coordinates.

mtllib grid_asteroid.mtl
g default
v -0.250000 -0.100000 0.250000
v -0.092218 -0.100000 0.245508
v -0.008195 -0.167223 0.287520
v 0.125000 -0.100000 0.350000
v 0.200000 -0.100000 0.200000
v -0.250000 0.000000 0.250000
v -0.125000 0.000000 0.350000
v 0.000000 0.000000 0.412500
v 0.125000 0.000000 0.350000
v 0.200000 0.000000 0.200000
v -0.230794 0.130263 0.245512
v -0.125000 0.100000 0.259306
v 0.018462 0.120146 0.387678
v 0.021454 0.166144 0.239502
v 0.200000 0.150525 0.200000
v -0.224942 0.063818 0.125000
v -0.125000 0.100000 0.125000
v 0.000000 0.100000 0.125000
v 0.125000 0.100000 0.125000
v 0.325881 0.071547 0.125000
v -0.314583 0.100000 0.000000
v -0.125000 0.100000 0.000000
v 0.000000 0.074556 0.000000
v 0.125000 0.100000 0.000000
v 0.211684 0.070942 0.000000
v -0.250000 0.100000 -0.125000
v -0.125000 0.100000 -0.125000
v 0.000000 0.100000 -0.125000
v 0.125000 0.100000 -0.125000
v 0.300000 0.140496 -0.125000
v -0.214013 0.140691 -0.217936
v -0.098738 0.100000 -0.238425
v 0.000000 0.112933 -0.290680
v 0.125000 0.075506 -0.382074
v 0.172443 0.078367 -0.183251
v -0.250000 0.000000 -0.250000
v -0.125000 0.000000 -0.300000
v 0.000000 0.000000 -0.300000
v 0.125000 0.000000 -0.350000
v 0.250000 0.000000 -0.250000
v -0.250000 -0.136660 -0.251018
v -0.092218 -0.100000 -0.191411
v 0.000000 -0.100000 -0.300000
v 0.075827 -0.100000 -0.225020
v 0.250000 -0.136660 -0.250000
v -0.250000 -0.100000 -0.125000
v -0.129740 -0.100000 -0.125000
v 0.000000 -0.100000 -0.125000
v 0.125000 -0.100000 -0.125000
v 0.193460 -0.100000 -0.073779
v -0.243460 -0.100000 0.010244
v -0.135139 -0.100000 0.000000
v 0.000000 -0.085890 0.000000
v 0.125000 -0.100000 0.000000
v 0.250000 -0.100000 0.000000
v -0.250000 -0.138580 0.125000
v -0.125000 -0.100000 0.187500
v 0.000000 -0.100000 0.125000
v 0.125000 -0.100000 0.125000
v 0.193460 -0.100000 0.094267
v 0.300000 0.000000 -0.125000
v 0.250000 0.000000 0.000000
v 0.300000 0.000000 0.125000
v -0.250000 0.000000 -0.125000
v -0.350000 0.000000 0.000000
v -0.250000 0.000000 0.125000
vt 0.375000 0.000000
vt 0.437500 0.000000
vt 0.500000 0.000000
vt 0.562500 0.000000
vt 0.625000 0.000000
vt 0.375000 0.125000
vt 0.437500 0.125000
vt 0.500000 0.125000
vt 0.562500 0.125000
vt 0.625000 0.125000
vt 0.375000 0.250000
vt 0.437500 0.250000
vt 0.500000 0.250000
vt 0.562500 0.250000
vt 0.625000 0.250000
vt 0.375000 0.312500
vt 0.437500 0.312500
vt 0.500000 0.312500
vt 0.562500 0.312500
vt 0.625000 0.312500
vt 0.375000 0.375000
vt 0.437500 0.375000
vt 0.500000 0.375000
vt 0.562500 0.375000
vt 0.625000 0.375000
vt 0.375000 0.437500
vt 0.437500 0.437500
vt 0.500000 0.437500
vt 0.562500 0.437500
vt 0.625000 0.437500
vt 0.375000 0.500000
vt 0.437500 0.500000
vt 0.500000 0.500000
vt 0.562500 0.500000
vt 0.625000 0.500000
vt 0.375000 0.625000
vt 0.437500 0.625000
vt 0.500000 0.625000
vt 0.562500 0.625000
vt 0.625000 0.625000
vt 0.375000 0.750000
vt 0.437500 0.750000
vt 0.500000 0.750000
vt 0.562500 0.750000
vt 0.625000 0.750000
vt 0.375000 0.812500
vt 0.437500 0.812500
vt 0.500000 0.812500
vt 0.562500 0.812500
vt 0.625000 0.812500
vt 0.375000 0.875000
vt 0.437500 0.875000
vt 0.500000 0.875000
vt 0.562500 0.875000
vt 0.625000 0.875000
vt 0.375000 0.937500
vt 0.437500 0.937500
vt 0.500000 0.937500
vt 0.562500 0.937500
vt 0.625000 0.937500
vt 0.375000 1.000000
vt 0.437500 1.000000
vt 0.500000 1.000000
vt 0.562500 1.000000
vt 0.625000 1.000000
vt 0.875000 0.000000
vt 0.812500 0.000000
vt 0.750000 0.000000
vt 0.687500 0.000000
vt 0.875000 0.125000
vt 0.812500 0.125000
vt 0.750000 0.125000
vt 0.687500 0.125000
vt 0.875000 0.250000
vt 0.812500 0.250000
vt 0.750000 0.250000
vt 0.687500 0.250000
vt 0.125000 0.000000
vt 0.187500 0.000000
vt 0.250000 0.000000
vt 0.312500 0.000000
vt 0.125000 0.125000
vt 0.187500 0.125000
vt 0.250000 0.125000
vt 0.312500 0.125000
vt 0.125000 0.250000
vt 0.187500 0.250000
vt 0.250000 0.250000
vt 0.312500 0.250000
vn -0.280682 -0.480191 0.831044
vn -0.429337 -0.556162 0.711585
vn -0.523421 -0.089541 0.847356
vn -0.356510 -0.086430 0.930285
vn -0.287830 -0.558340 0.778081
vn -0.135498 -0.012027 0.990705
vn 0.494970 -0.287558 0.819949
vn 0.635199 0.147655 0.758104
vn 0.894427 0.000000 0.447214
vn 0.716106 0.280233 0.639267
vn -0.450972 0.403384 0.796182
vn -0.368129 0.381243 0.848018
vn 0.211584 0.573994 0.791052
vn 0.611243 0.443431 0.655554
vn 0.557326 0.430065 0.710234
vn -0.010902 0.967526 -0.252536
vn -0.041890 0.994206 -0.098992
vn -0.029757 0.998796 -0.038991
vn -0.086022 0.995623 0.036546
vn -0.165572 0.981007 -0.101050
vn -0.126614 0.984833 -0.118634
vn -0.423960 0.801913 -0.420943
vn -0.021142 0.942334 -0.334005
vn 0.033877 0.812858 -0.581476
vn 0.129734 0.939653 -0.316578
vn 0.013303 0.998679 0.049635
vn -0.055791 0.994850 0.084617
vn 0.000000 1.000000 0.000000
vn -0.004586 0.999197 0.039804
vn 0.092428 0.993765 0.062359
vn 0.057652 0.994226 0.090508
vn 0.051310 0.996336 0.068426
vn 0.040484 0.998281 0.042378
vn 0.032750 0.999172 0.024125
vn -0.012917 0.992719 0.119763
vn 0.021763 0.994389 0.103520
vn 0.182071 0.952836 0.242806
vn 0.097149 0.995200 -0.011784
vn 0.132246 0.989693 -0.054938
vn 0.075598 0.953285 -0.292461
vn -0.195254 0.399042 -0.895903
vn -0.211086 0.371618 -0.904070
vn -0.175063 -0.049585 -0.983308
vn -0.046600 -0.045898 -0.997859
vn -0.373385 0.129069 -0.918654
vn -0.295222 -0.218522 -0.930103
vn 0.108279 0.237184 -0.965412
vn 0.213476 -0.136444 -0.967373
vn 0.757256 0.481200 -0.441600
vn 0.487961 -0.130543 -0.863049
vn -0.111935 -0.450962 -0.885497
vn 0.083185 -0.402793 -0.911503
vn -0.166144 -0.531317 -0.830722
vn 0.137474 -0.507677 -0.850509
vn 0.155971 -0.486412 -0.859695
vn 0.085223 -0.975572 0.202476
vn 0.030612 -0.996882 0.072730
vn 0.043074 -0.995677 0.082299
vn 0.042675 -0.993931 0.101389
vn 0.000000 -1.000000 0.000000
vn 0.000000 -0.999490 0.031934
vn -0.060820 -0.997027 0.047305
vn -0.094779 -0.992513 0.077037
vn -0.161481 -0.978851 0.125596
vn -0.074058 -0.995589 0.057600
vn 0.072626 -0.996846 -0.031982
vn 0.109982 -0.991212 -0.073501
vn 0.000015 -1.000000 0.000000
vn -0.035037 -0.999386 0.000000
vn 0.000000 -1.000000 0.000000
vn 0.016918 -0.999555 -0.024586
vn 0.163921 -0.985810 -0.036178
vn 0.067845 -0.991380 -0.112086
vn 0.104093 -0.991409 -0.079205
vn 0.000000 -1.000000 0.000000
vn -0.194105 -0.974838 -0.109610
vn 0.094553 -0.977394 0.189105
vn 0.157030 -0.970534 -0.182769
vn 0.242646 -0.960704 -0.134803
vn 0.000000 -1.000000 0.000000
vn 0.902381 -0.429973 0.028838
vn 0.915179 -0.397234 0.068216
vn 0.953619 -0.092546 -0.286437
vn 0.997793 -0.055352 -0.036670
vn 0.880232 -0.474544 0.000000
vn 0.984564 -0.167374 0.051191
vn 0.849701 -0.484574 0.207837
vn 0.911937 -0.226737 0.341997
vn 0.780357 -0.477706 0.403534
vn 0.676954 -0.253499 0.690993
vn 0.577275 0.418418 -0.701199
vn 0.920403 0.370353 -0.125290
vn 0.972959 0.145889 0.179073
vn 0.868195 -0.021926 0.495738
vn 0.536844 -0.062565 0.841359
vn -1.000000 0.000000 0.000000
vn -0.962874 -0.226168 -0.147383
vn -0.963490 -0.048507 -0.263313
vn -0.995641 0.072833 -0.058266
vn -0.900078 -0.434804 0.028377
vn -0.994222 -0.106910 -0.009645
vn -0.967821 -0.202303 0.149651
vn -0.970653 0.016489 0.239918
vn -1.000000 0.000000 0.000000
vn -0.994393 0.098978 -0.037223
vn -0.929460 0.159411 -0.332704
vn -0.977797 0.163635 -0.130908
vn -0.967615 0.249988 -0.035037
vn -0.930370 0.263609 0.254798
vn -0.972042 0.219780 -0.082652
s 1
g pCube1
usemtl initialShadingGroup
f 1/1/1 2/2/2 7/7/3 6/6/4
f 2/2/2 3/3/5 8/8/6 7/7/3
f 3/3/5 4/4/7 9/9/8 8/8/6
f 4/4/7 5/5/9 10/10/10 9/9/8
f 6/6/4 7/7/3 12/12/11 11/11/12
f 7/7/3 8/8/6 13/13/13 12/12/11
f 8/8/6 9/9/8 14/14/14 13/13/13
f 9/9/8 10/10/10 15/15/15 14/14/14
s 2
f 11/11/16 12/12/17 17/17/18 16/16/19
f 12/12/17 13/13/20 18/18/21 17/17/18
f 13/13/20 14/14/22 19/19/23 18/18/21
f 14/14/22 15/15/24 20/20/25 19/19/23
f 16/16/19 17/17/18 22/22/26 21/21/27
f 17/17/18 18/18/21 23/23/28 22/22/26
f 18/18/21 19/19/23 24/24/29 23/23/28
f 19/19/23 20/20/25 25/25/30 24/24/29
f 21/21/27 22/22/26 27/27/31 26/26/32
f 22/22/26 23/23/28 28/28/33 27/27/31
f 23/23/28 24/24/29 29/29/34 28/28/33
f 24/24/29 25/25/30 30/30/35 29/29/34
f 26/26/32 27/27/31 32/32/36 31/31/37
f 27/27/31 28/28/33 33/33/38 32/32/36
f 28/28/33 29/29/34 34/34/39 33/33/38
f 29/29/34 30/30/35 35/35/40 34/34/39
s 3
f 31/31/41 32/32/42 37/37/43 36/36/44
f 32/32/42 33/33/45 38/38/46 37/37/43
f 33/33/45 34/34/47 39/39/48 38/38/46
f 34/34/47 35/35/49 40/40/50 39/39/48
f 36/36/44 37/37/43 42/42/51 41/41/52
f 37/37/43 38/38/46 43/43/53 42/42/51
f 38/38/46 39/39/48 44/44/54 43/43/53
f 39/39/48 40/40/50 45/45/55 44/44/54
s 4
f 41/41/56 42/42/57 47/47/58 46/46/59
f 42/42/57 43/43/60 48/48/61 47/47/58
f 43/43/60 44/44/62 49/49/63 48/48/61
f 44/44/62 45/45/64 50/50/65 49/49/63
f 46/46/59 47/47/58 52/52/66 51/51/67
f 47/47/58 48/48/61 53/53/68 52/52/66
f 48/48/61 49/49/63 54/54/69 53/53/68
f 49/49/63 50/50/65 55/55/70 54/54/69
f 51/51/67 52/52/66 57/57/71 56/56/72
f 52/52/66 53/53/68 58/58/73 57/57/71
f 53/53/68 54/54/69 59/59/74 58/58/73
f 54/54/69 55/55/70 60/60/75 59/59/74
f 56/56/72 57/57/71 2/62/76 1/61/77
f 57/57/71 58/58/73 3/63/78 2/62/76
f 58/58/73 59/59/74 4/64/79 3/63/78
f 59/59/74 60/60/75 5/65/80 4/64/79
s 5
f 50/67/81 45/66/82 40/70/83 61/71/84
f 55/68/85 50/67/81 61/71/84 62/72/86
f 60/69/87 55/68/85 62/72/86 63/73/88
f 5/5/89 60/69/87 63/73/88 10/10/90
f 61/71/84 40/70/83 35/74/91 30/75/92
f 62/72/86 61/71/84 30/75/92 25/76/93
f 63/73/88 62/72/86 25/76/93 20/77/94
f 10/10/90 63/73/88 20/77/94 15/15/95
s 6
f 41/78/96 46/79/97 64/83/98 36/82/99
f 46/79/97 51/80/100 65/84/101 64/83/98
f 51/80/100 56/81/102 66/85/103 65/84/101
f 56/81/102 1/1/104 6/6/105 66/85/103
f 36/82/99 64/83/98 26/87/106 31/86/107
f 64/83/98 65/84/101 21/88/108 26/87/106
f 65/84/101 66/85/103 16/89/109 21/88/108
f 66/85/103 6/6/105 11/11/110 16/89/109
