# This file uses centimeters as units for non-parametric coordinates.

mtllib ui_back.mtl
g default
v -0.184294 0.036779 -0.050000
v -0.092037 -0.053298 -0.050000
v -0.057177 0.070840 -0.050000
v -0.184294 0.036779 0.050000
v -0.092037 -0.053298 0.050000
v -0.057177 0.070840 0.050000
v 0.112053 0.000000 -0.025000
v 0.080192 0.080192 -0.025000
v 0.000000 0.107308 -0.025000
v -0.074431 0.089280 -0.025000
v -0.101981 0.044731 -0.025000
v -0.086607 -0.081594 -0.025000
v -0.000743 -0.104493 -0.025000
v 0.076318 -0.076222 -0.025000
v 0.112053 -0.000000 0.025000
v 0.080192 0.080192 0.025000
v 0.000000 0.107308 0.025000
v -0.074431 0.089280 0.025000
v -0.101981 0.044731 0.025000
v -0.086607 -0.081594 0.025000
v -0.000743 -0.104493 0.025000
v 0.076318 -0.076222 0.025000
v 0.187947 -0.000000 0.025000
v 0.131940 0.131940 0.025000
v -0.008914 0.183778 0.025000
v -0.110221 0.138450 0.025000
v -0.143524 0.032525 0.025000
v -0.057650 -0.127583 0.025000
v 0.013776 -0.161202 0.025000
v 0.127908 -0.126931 0.025000
v 0.187947 0.000000 -0.025000
v 0.131940 0.131940 -0.025000
v -0.008914 0.183778 -0.025000
v -0.110221 0.138450 -0.025000
v -0.143524 0.032525 -0.025000
v -0.057650 -0.127583 -0.025000
v 0.013776 -0.161202 -0.025000
v 0.127908 -0.126931 -0.025000
vt 0.421875 0.020934
vt 0.421875 0.291566
vt 0.656250 0.156250
vt 0.375000 0.312500
vt 0.458333 0.312500
vt 0.541667 0.312500
vt 0.625000 0.312500
vt 0.375000 0.688440
vt 0.458333 0.688440
vt 0.541667 0.688440
vt 0.625000 0.688440
vt 0.421875 0.708434
vt 0.421875 0.979066
vt 0.656250 0.843750
vt 0.125000 1.000000
vt 0.000000 1.000000
vt 0.000000 0.750000
vt 0.125000 0.750000
vt 0.250000 1.000000
vt 0.250000 0.750000
vt 0.375000 1.000000
vt 0.375000 0.750000
vt 0.500000 0.500000
vt 0.500000 0.750000
vt 0.750000 1.000000
vt 0.625000 1.000000
vt 0.625000 0.750000
vt 0.750000 0.750000
vt 0.875000 1.000000
vt 0.875000 0.750000
vt 1.000000 1.000000
vt 1.000000 0.750000
vt 0.000000 0.500000
vt 0.125000 0.500000
vt 0.250000 0.500000
vt 0.375000 0.500000
vt 0.500000 0.500000
vt 0.625000 0.500000
vt 0.750000 0.500000
vt 0.875000 0.500000
vt 1.000000 0.500000
vt 0.000000 0.250000
vt 0.125000 0.250000
vt 0.250000 0.250000
vt 0.375000 0.250000
vt 0.500000 0.250000
vt 0.625000 0.250000
vt 0.750000 0.250000
vt 0.875000 0.250000
vt 1.000000 0.250000
vt 0.000000 0.000000
vt 0.125000 0.000000
vt 0.250000 0.000000
vt 0.375000 0.000000
vt 0.625000 0.000000
vt 0.750000 0.000000
vt 0.875000 0.000000
vt 1.000000 0.000000
vn -0.698597 -0.715515 -0.000000
vn -0.698597 -0.715515 -0.000000
vn -0.698597 -0.715515 -0.000000
vn -0.698597 -0.715515 -0.000000
vn 0.962761 -0.270356 -0.000000
vn 0.962761 -0.270356 -0.000000
vn 0.962761 -0.270356 -0.000000
vn 0.962761 -0.270356 -0.000000
vn -0.258819 0.965926 0.000000
vn -0.258819 0.965926 0.000000
vn -0.258819 0.965926 0.000000
vn -0.258819 0.965926 0.000000
vn 0.000000 0.000000 -1.000000
vn 0.000000 0.000000 -1.000000
vn 0.000000 0.000000 -1.000000
vn 0.000000 -0.000000 1.000000
vn 0.000000 -0.000000 1.000000
vn 0.000000 -0.000000 1.000000
vn -0.929335 -0.369238 -0.000000
vn -0.929335 -0.369238 -0.000000
vn -0.929335 -0.369238 -0.000000
vn -0.929335 -0.369238 -0.000000
vn -0.320324 -0.947308 -0.000000
vn -0.320324 -0.947308 -0.000000
vn -0.320324 -0.947308 -0.000000
vn -0.320324 -0.947308 -0.000000
vn 0.235402 -0.971898 -0.000000
vn 0.235402 -0.971898 -0.000000
vn 0.235402 -0.971898 -0.000000
vn 0.235402 -0.971898 -0.000000
vn 0.850500 -0.525975 -0.000000
vn 0.850500 -0.525975 -0.000000
vn 0.850500 -0.525975 -0.000000
vn 0.850500 -0.525975 -0.000000
vn 0.257680 0.966231 0.000000
vn 0.257680 0.966231 0.000000
vn 0.257680 0.966231 0.000000
vn 0.257680 0.966231 0.000000
vn -0.344417 0.938817 0.000000
vn -0.344417 0.938817 0.000000
vn -0.344417 0.938817 0.000000
vn -0.344417 0.938817 0.000000
vn -0.905432 0.424491 0.000000
vn -0.905432 0.424491 0.000000
vn -0.905432 0.424491 0.000000
vn -0.905432 0.424491 0.000000
vn 0.000000 0.000000 1.000000
vn 0.000000 0.000000 1.000000
vn 0.000000 0.000000 1.000000
vn 0.000000 0.000000 1.000000
vn 0.000000 0.000000 1.000000
vn 0.000000 0.000000 1.000000
vn 0.000000 0.000000 1.000000
vn 0.000000 0.000000 1.000000
vn 0.000000 -0.000000 1.000000
vn 0.000000 -0.000000 1.000000
vn 0.000000 -0.000000 1.000000
vn 0.000000 -0.000000 1.000000
vn 0.000000 -0.000000 1.000000
vn 0.000000 -0.000000 1.000000
vn 0.000000 -0.000000 1.000000
vn 0.000000 0.000000 1.000000
vn 0.920502 0.390739 0.000000
vn 0.920502 0.390739 0.000000
vn 0.920502 0.390739 0.000000
vn 0.920502 0.390739 0.000000
vn 0.345375 0.938465 0.000000
vn 0.345375 0.938465 0.000000
vn 0.345375 0.938465 0.000000
vn 0.345375 0.938465 0.000000
vn -0.408415 0.912796 0.000000
vn -0.408415 0.912796 0.000000
vn -0.408415 0.912796 0.000000
vn -0.408415 0.912796 0.000000
vn -0.953963 0.299925 0.000000
vn -0.953963 0.299925 0.000000
vn -0.953963 0.299925 0.000000
vn -0.953963 0.299925 0.000000
vn -0.425864 -0.904787 -0.000000
vn -0.425864 -0.904787 -0.000000
vn -0.425864 -0.904787 -0.000000
vn -0.425864 -0.904787 -0.000000
vn 0.287583 -0.957756 -0.000000
vn 0.287583 -0.957756 -0.000000
vn 0.287583 -0.957756 -0.000000
vn 0.287583 -0.957756 -0.000000
vn 0.903976 -0.427583 -0.000000
vn 0.903976 -0.427583 -0.000000
vn 0.903976 -0.427583 -0.000000
vn 0.903976 -0.427583 -0.000000
vn 0.000000 -0.000000 -1.000000
vn 0.000000 0.000000 -1.000000
vn 0.000000 0.000000 -1.000000
vn 0.000000 -0.000000 -1.000000
vn 0.000000 0.000000 -1.000000
vn 0.000000 0.000000 -1.000000
vn 0.000000 0.000000 -1.000000
vn 0.000000 0.000000 -1.000000
vn 0.000000 -0.000000 -1.000000
vn 0.000000 -0.000000 -1.000000
vn 0.000000 -0.000000 -1.000000
vn 0.000000 -0.000000 -1.000000
vn 0.000000 -0.000000 -1.000000
vn 0.000000 -0.000000 -1.000000
vn 0.000000 0.000000 -1.000000
vn 0.000000 -0.000000 -1.000000
vn 0.281908 -0.959442 -0.000000
vn 0.281908 -0.959442 -0.000000
vn 0.281908 -0.959442 -0.000000
vn 0.281908 -0.959442 -0.000000
s off
g pPrism2
usemtl initialShadingGroup
f 1/4/1 2/5/2 5/9/3 4/8/4
f 2/5/5 3/6/6 6/10/7 5/9/8
f 3/6/9 1/7/10 4/11/11 6/10/12
f 1/1/13 3/3/14 2/2/15
f 4/13/16 5/12/17 6/14/18
f 8/15/19 7/16/20 15/17/21 16/18/22
f 9/19/23 8/15/24 16/18/25 17/20/26
f 10/21/27 9/19/28 17/20/29 18/22/30
f 11/23/31 10/21/32 18/22/33 19/24/34
f 13/25/35 12/26/36 20/27/37 21/28/38
f 14/29/39 13/25/40 21/28/41 22/30/42
f 7/31/43 14/29/44 22/30/45 15/32/46
s 1
f 16/18/47 15/17/48 23/33/49 24/34/50
f 17/20/51 16/18/47 24/34/50 25/35/52
f 18/22/53 17/20/51 25/35/52 26/36/54
f 19/24/55 18/22/53 26/36/54 27/37/56
f 21/28/57 20/27/58 28/38/59 29/39/60
f 22/30/61 21/28/57 29/39/60 30/40/62
f 15/32/48 22/30/61 30/40/62 23/41/49
s off
f 24/34/63 23/33/64 31/42/65 32/43/66
f 25/35/67 24/34/68 32/43/69 33/44/70
f 26/36/71 25/35/72 33/44/73 34/45/74
f 27/37/75 26/36/76 34/45/77 35/46/78
f 29/39/79 28/38/80 36/47/81 37/48/82
f 30/40/83 29/39/84 37/48/85 38/49/86
f 23/41/87 30/40/88 38/49/89 31/50/90
s 3
f 32/43/91 31/42/92 7/51/93 8/52/94
f 33/44/95 32/43/91 8/52/94 9/53/96
f 34/45/97 33/44/95 9/53/96 10/54/98
f 35/46/99 34/45/97 10/54/98 11/23/100
f 37/48/101 36/47/102 12/55/103 13/56/104
f 38/49/105 37/48/101 13/56/104 14/57/106
f 31/50/92 38/49/105 14/57/106 7/58/93
s off
f 19/24/107 27/37/108 35/46/109 11/23/110
