# This file uses centimeters as units for non-parametric coordinates.

mtllib ui_marbleBag.mtl
g default
v -0.071771 0.020057 0.025000
v 0.078457 0.024514 0.025000
v -0.055428 0.145771 0.025000
v 0.050971 0.143543 0.025000
v -0.055428 0.145771 0.000000
v 0.050971 0.143543 0.000000
v -0.071771 0.020057 0.000000
v 0.078457 0.024514 0.000000
v -0.044943 0.005200 0.025000
v -0.038257 0.189600 0.025000
v -0.038257 0.189600 0.000000
v -0.044943 0.005200 0.000000
v 0.048171 0.013371 0.025000
v 0.043400 0.192571 0.025000
v 0.043400 0.192571 0.000000
v 0.048171 0.013371 0.000000
v -0.079943 0.123367 0.025000
v 0.083657 0.105132 0.025000
v -0.079943 0.123367 0.000000
v 0.083657 0.105132 0.000000
v -0.039743 0.134407 0.025000
v -0.039743 0.134407 0.000000
v 0.041805 0.133459 0.025000
v 0.041805 0.133459 0.000000
v -0.087371 0.047574 0.025000
v 0.089600 0.049408 0.025000
v -0.049400 0.047475 0.025000
v 0.051244 0.047276 0.025000
v -0.087371 0.047574 0.000000
v 0.089600 0.049408 0.000000
v -0.049400 0.047475 0.000000
v 0.051244 0.047276 0.000000
vt 0.846612 0.327720
vt 0.868439 0.315735
vt 0.864813 0.349838
vt 0.833921 0.349919
vt 0.946693 0.349678
vt 0.944193 0.322327
vt 0.872669 0.419969
vt 0.839964 0.411063
vt 0.939014 0.419204
vt 0.977898 0.351399
vt 0.968833 0.331316
vt 0.873878 0.464494
vt 0.859908 0.429137
vt 0.940312 0.466891
vt 0.973063 0.396352
vt 0.946471 0.427339
vt 0.996015 0.179093
vt 0.996015 0.220047
vt 0.973890 0.220047
vt 0.973890 0.179093
vt 0.973890 0.158159
vt 0.996015 0.158159
vt 0.973890 0.087338
vt 0.996015 0.087338
vt 0.973890 0.061626
vt 0.996015 0.061626
vt 0.660319 0.107873
vt 0.674039 0.070827
vt 0.672852 0.117478
vt 0.640732 0.126810
vt 0.738011 0.118279
vt 0.739285 0.068316
vt 0.665136 0.190957
vt 0.634796 0.190872
vt 0.745552 0.191125
vt 0.771451 0.142223
vt 0.745335 0.109756
vt 0.668697 0.226689
vt 0.647261 0.214131
vt 0.743097 0.219782
vt 0.776200 0.189322
vt 0.767296 0.210364
vt 0.973591 0.201999
vt 0.973591 0.176931
vt 0.995715 0.176931
vt 0.995715 0.201999
vt 0.973591 0.089925
vt 0.995715 0.089925
vt 0.973591 0.061626
vt 0.995715 0.061626
vt 0.973375 0.061626
vt 0.995499 0.061626
vt 0.995499 0.084887
vt 0.973375 0.084887
vt 0.995499 0.136955
vt 0.973375 0.136955
vt 0.995499 0.172846
vt 0.973375 0.172846
vt 0.995499 0.218659
vt 0.973375 0.218659
vt 0.995932 0.137927
vt 0.973807 0.137927
vt 0.973807 0.061626
vt 0.995932 0.061626
vn 0.000000 0.000000 1.000000
vn -0.000000 -0.000000 1.000000
vn -0.000000 -0.000000 1.000000
vn -0.000000 0.000000 1.000000
vn -0.931093 0.364782 0.000000
vn -0.427987 0.903785 0.000000
vn -0.427987 0.903785 0.000000
vn -0.931093 0.364782 0.000000
vn 0.000000 0.000000 -1.000000
vn -0.000000 0.000000 -1.000000
vn -0.000000 0.000000 -1.000000
vn -0.000000 0.000000 -1.000000
vn -0.484460 -0.874814 0.000000
vn -0.055655 -0.998450 0.000000
vn -0.055655 -0.998450 0.000000
vn -0.484460 -0.874814 0.000000
vn 0.912735 -0.408552 0.000000
vn 0.912735 -0.408552 0.000000
vn 0.997926 -0.064369 0.000000
vn 0.997926 -0.064369 0.000000
vn -0.869928 -0.493179 0.000000
vn -0.869928 -0.493179 0.000000
vn -0.996887 -0.078850 0.000000
vn -0.996887 -0.078850 0.000000
vn 0.000000 0.000000 1.000000
vn -0.000000 0.000000 1.000000
vn -0.000000 0.000000 1.000000
vn 0.000000 0.000000 1.000000
vn 0.458673 0.888605 0.000000
vn 0.458673 0.888605 0.000000
vn -0.000000 -0.000000 -1.000000
vn -0.000000 -0.000000 -1.000000
vn -0.000000 0.000000 -1.000000
vn -0.000000 -0.000000 -1.000000
vn 0.154635 -0.987972 0.000000
vn 0.154635 -0.987972 0.000000
vn 0.000000 0.000000 1.000000
vn 0.000000 0.000000 1.000000
vn 0.988286 0.152615 0.000000
vn 0.988286 0.152615 0.000000
vn 0.000000 0.000000 -1.000000
vn 0.000000 -0.000000 -1.000000
vn 0.345291 -0.938496 0.000000
vn 0.345291 -0.938496 0.000000
vn -0.000000 0.000000 1.000000
vn 0.000000 0.000000 1.000000
vn -0.000000 0.000000 -1.000000
vn 0.925136 0.379637 0.000000
vn 0.925136 0.379637 0.000000
vn 0.761581 0.648070 0.000000
vn 0.761581 0.648070 0.000000
vn -0.950952 0.309340 0.000000
vn -0.950952 0.309340 0.000000
vn -0.674623 0.738162 0.000000
vn -0.674623 0.738162 0.000000
vn -0.000000 0.000000 1.000000
vn -0.000000 0.000000 -1.000000
vn -0.000000 0.000000 -1.000000
vn 0.000000 0.000000 1.000000
vn 0.000000 0.000000 -1.000000
vn 0.000000 0.000000 -1.000000
vn 0.000000 0.000000 -1.000000
vn -0.000000 -0.000000 1.000000
vn 0.000000 -0.000000 1.000000
s 1
g pCube1
usemtl initialShadingGroup
f 1/1/1 9/2/2 27/3/3 25/4/4
s 2
f 3/17/5 10/18/6 11/19/7 5/20/8
s 3
f 5/27/9 11/28/10 22/29/11 19/30/12
s 4
f 7/43/13 12/44/14 9/45/15 1/46/16
s 5
f 2/51/17 8/52/18 30/53/19 26/54/20
s 6
f 7/25/21 1/26/22 25/24/23 29/23/24
s 1
f 10/12/25 21/7/26 23/9/27 14/14/28
s 2
f 11/61/7 10/62/6 14/63/29 15/64/30
s 3
f 12/38/31 31/33/32 32/35/33 16/40/34
s 4
f 9/45/15 12/44/14 16/47/35 13/48/36
s 1
f 14/14/28 23/9/27 18/15/37 4/16/38
s 2
f 15/59/30 14/60/29 4/58/39 6/57/40
s 3
f 16/40/34 32/35/33 30/41/41 8/42/42
s 4
f 13/48/36 16/47/35 8/49/43 2/50/44
s 1
f 17/8/45 21/7/26 10/12/25 3/13/46
s 3
f 19/30/12 22/29/11 31/33/32 29/34/47
s 5
f 18/56/48 20/55/49 6/57/50 4/58/51
s 6
f 19/21/52 17/22/53 3/17/54 5/20/55
s 1
f 23/9/27 21/7/26 27/3/3 28/5/56
s 3
f 24/31/57 22/29/11 11/28/10 15/32/58
s 1
f 18/15/37 23/9/27 28/5/56 26/10/59
s 3
f 20/36/60 24/31/57 15/32/58 6/37/61
s 1
f 25/4/4 27/3/3 21/7/26 17/8/45
s 5
f 26/54/20 30/53/19 20/55/49 18/56/48
s 6
f 29/23/24 25/24/23 17/22/53 19/21/52
s 3
f 32/35/33 31/33/32 22/29/11 24/31/57
f 30/41/41 32/35/33 24/31/57 20/36/60
f 29/34/47 31/33/32 12/38/31 7/39/62
s 1
f 28/5/56 27/3/3 9/2/2 13/6/63
f 26/10/59 28/5/56 13/6/63 2/11/64
