# This file uses centimeters as units for non-parametric coordinates.

mtllib ui_tutorial.mtl
g default
v 0.141421 0.341421 -0.050000
v 0.000000 0.400000 -0.050000
v -0.196470 0.363855 -0.050000
v -0.255048 0.177566 -0.050000
v -0.141421 0.058579 -0.050000
v 0.000000 0.000000 -0.050000
v 0.141421 0.058579 -0.050000
v 0.200000 0.200000 -0.050000
v 0.141421 0.341421 0.050000
v 0.000000 0.400000 0.050000
v -0.196470 0.363855 0.050000
v -0.255048 0.177566 0.050000
v -0.141421 0.058579 0.050000
v 0.000000 0.000000 0.050000
v 0.141421 0.058579 0.050000
v 0.200000 0.200000 0.050000
v 0.000000 0.200000 -0.050000
v 0.107953 0.307953 0.017806
v 0.000000 0.352669 0.017806
v 0.000000 0.200000 0.017806
v -0.107953 0.307953 0.017806
v -0.152669 0.200000 0.017806
v -0.107953 0.092047 0.017806
v 0.000000 0.047331 0.017806
v 0.107953 0.092047 0.017806
v 0.152669 0.200000 0.017806
v -0.850000 0.363855 -0.050000
v -0.829289 0.177566 -0.050000
v -0.829289 0.177566 -0.026717
v -0.850000 0.363855 -0.026717
v -0.962431 0.253179 -0.050000
v -0.878368 0.252096 -0.050000
v -0.878369 0.252096 -0.026717
v -0.962431 0.253179 -0.026717
v -0.870624 0.128438 0.050000
v -0.352810 0.128438 -0.026065
v -0.859338 0.155742 0.050000
v -0.352810 0.155742 -0.026065
v -0.859338 0.155742 -0.050000
v -0.352810 0.155742 -0.050000
v -0.870624 0.128438 -0.050000
v -0.352810 0.128438 -0.050000
v -0.922381 0.212091 -0.050000
v -0.922381 0.212091 0.050000
v -0.895077 0.212091 0.050000
v -0.895077 0.212091 -0.050000
vt 0.815986 0.513825
vt 0.815986 0.564374
vt 0.780242 0.564374
vt 0.780242 0.513825
vt 0.815986 0.634599
vt 0.780242 0.634599
vt 0.815986 0.868192
vt 0.807663 0.868192
vt 0.815986 0.908378
vt 0.807663 0.908378
vt 0.819638 0.908378
vt 0.819638 0.878332
vt 0.827960 0.878332
vt 0.827960 0.908378
vt 0.819638 0.860789
vt 0.827960 0.860789
vt 0.819638 0.655536
vt 0.855382 0.655536
vt 0.819638 0.614922
vt 0.855382 0.614922
vt 0.819638 0.564374
vt 0.855382 0.564374
vt 0.819638 0.513825
vt 0.855382 0.513825
vt 0.701462 0.560122
vt 0.701462 0.610671
vt 0.665718 0.610671
vt 0.665718 0.560122
vt 0.701462 0.661220
vt 0.665718 0.661220
vt 0.845228 0.594252
vt 0.864755 0.547109
vt 0.911899 0.594252
vt 0.911899 0.527582
vt 0.857277 0.659746
vt 0.959042 0.547109
vt 0.919377 0.679273
vt 0.978569 0.594252
vt 0.919377 0.870699
vt 0.857277 0.877603
vt 0.959042 0.641396
vt 0.894532 0.887059
vt 0.894171 0.915082
vt 0.555116 0.436785
vt 0.538049 0.395786
vt 0.596074 0.395684
vt 0.542419 0.449528
vt 0.520060 0.395817
vt 0.554972 0.354726
vt 0.596176 0.453708
vt 0.533666 0.321121
vt 0.596207 0.471697
vt 0.595972 0.337659
vt 0.637176 0.436641
vt 0.604430 0.298733
vt 0.649918 0.449339
vt 0.637031 0.354582
vt 0.654099 0.395582
vt 0.533229 0.072735
vt 0.604046 0.080482
vt 0.649729 0.341839
vt 0.672088 0.395550
vt 0.575219 0.029929
vt 0.575687 0.061878
vt 0.102956 0.297504
vt 0.102956 0.112420
vt 0.112715 0.112420
vt 0.112715 0.293470
vt 0.132856 0.306244
vt 0.132856 0.316003
vt 0.575073 0.751278
vt 0.602261 0.570229
vt 0.610816 0.570229
vt 0.610816 0.751278
vt 0.610816 0.764052
vt 0.575073 0.764052
vt 0.610816 0.773812
vt 0.575073 0.773812
vt 0.239786 0.294216
vt 0.239786 0.113167
vt 0.249546 0.113167
vt 0.249546 0.298251
vt 0.219646 0.316750
vt 0.219646 0.306991
vt 0.634262 0.746786
vt 0.634262 0.561702
vt 0.642817 0.561702
vt 0.670006 0.746786
vt 0.670006 0.765285
vt 0.634262 0.765285
vt 0.827445 0.910212
vt 0.836000 0.910212
vt 0.836000 0.919972
vt 0.827445 0.919972
vn 0.382683 0.923880 -0.000000
vn 0.382683 0.923880 -0.000000
vn 0.382683 0.923880 -0.000000
vn 0.382683 0.923880 -0.000000
vn -0.180934 0.983495 0.000000
vn -0.180934 0.983495 0.000000
vn -0.180934 0.983495 0.000000
vn -0.180934 0.983495 0.000000
vn -0.012884 -0.999917 0.000000
vn -0.012884 -0.999917 0.000000
vn -0.012884 -0.999917 0.000000
vn -0.012884 -0.999917 0.000000
vn -0.723210 -0.690629 0.000000
vn -0.723210 -0.690629 0.000000
vn -0.723210 -0.690629 0.000000
vn -0.723210 -0.690629 0.000000
vn -0.382683 -0.923880 0.000000
vn -0.382683 -0.923880 0.000000
vn -0.382683 -0.923880 0.000000
vn -0.382683 -0.923880 0.000000
vn 0.382683 -0.923880 0.000000
vn 0.382683 -0.923880 0.000000
vn 0.382683 -0.923880 0.000000
vn 0.382683 -0.923880 0.000000
vn 0.923880 -0.382683 0.000000
vn 0.923880 -0.382683 0.000000
vn 0.923880 -0.382683 0.000000
vn 0.923880 -0.382683 0.000000
vn 0.923880 0.382683 -0.000000
vn 0.923880 0.382684 -0.000000
vn 0.923880 0.382683 -0.000000
vn 0.923880 0.382683 -0.000000
vn 0.000000 0.000000 -1.000000
vn 0.000000 0.000000 -1.000000
vn 0.000000 0.000000 -1.000000
vn 0.000000 0.000000 -1.000000
vn 0.000000 0.000000 -1.000000
vn 0.000000 0.000000 -1.000000
vn 0.000000 0.000000 -1.000000
vn 0.000000 0.000000 -1.000000
vn 0.000000 0.000000 -1.000000
vn 0.000000 0.000000 1.000000
vn 0.000000 0.000000 1.000000
vn 0.000000 0.000000 1.000000
vn 0.000000 0.000000 1.000000
vn 0.000000 0.000000 1.000000
vn 0.000000 -0.000000 1.000000
vn -0.000000 0.000000 1.000000
vn 0.000000 0.000000 1.000000
vn 0.000000 0.000000 1.000000
vn -0.226887 -0.547753 0.805289
vn -0.226886 -0.547753 0.805289
vn -0.226887 -0.547753 0.805289
vn -0.226887 -0.547753 0.805289
vn 0.119443 -0.449680 0.885167
vn 0.119443 -0.449680 0.885167
vn 0.119443 -0.449680 0.885167
vn 0.119443 -0.449680 0.885167
vn 0.301125 -0.105711 0.947707
vn 0.301125 -0.105711 0.947707
vn 0.301125 -0.105711 0.947707
vn 0.301125 -0.105711 0.947707
vn 0.335935 0.234391 0.912255
vn 0.335935 0.234391 0.912255
vn 0.335935 0.234391 0.912255
vn 0.335935 0.234391 0.912255
vn 0.226887 0.547752 0.805289
vn 0.226887 0.547752 0.805289
vn 0.226887 0.547752 0.805289
vn 0.226887 0.547752 0.805289
vn -0.226886 0.547752 0.805289
vn -0.226886 0.547752 0.805289
vn -0.226886 0.547752 0.805289
vn -0.226886 0.547752 0.805289
vn -0.547752 0.226887 0.805289
vn -0.547752 0.226887 0.805289
vn -0.547752 0.226887 0.805289
vn -0.547752 0.226887 0.805289
vn -0.547752 -0.226887 0.805289
vn -0.547752 -0.226887 0.805289
vn -0.547752 -0.226887 0.805289
vn -0.547752 -0.226887 0.805289
vn 0.000000 0.000000 -1.000000
vn 0.000000 0.000000 -1.000000
vn 0.000000 0.000000 -1.000000
vn 0.000000 0.000000 -1.000000
vn 0.000000 -1.000000 0.000000
vn 0.000000 -1.000000 0.000000
vn 0.000000 -1.000000 0.000000
vn 0.000000 -1.000000 0.000000
vn -0.123995 0.012602 0.992203
vn -0.123995 0.012602 0.992203
vn -0.123995 0.012602 0.992203
vn -0.123995 0.012602 0.992203
vn -0.000000 1.000000 0.000000
vn -0.000000 1.000000 0.000000
vn -0.000000 1.000000 0.000000
vn -0.000000 1.000000 0.000000
vn 0.000000 -0.000000 -1.000000
vn 0.000000 -0.000000 -1.000000
vn 0.000000 -0.000000 -1.000000
vn 0.000000 -0.000000 -1.000000
vn -0.835179 -0.549979 -0.000004
vn -0.835179 -0.549979 -0.000004
vn -0.835179 -0.549979 -0.000004
vn -0.835179 -0.549979 -0.000004
vn -0.000000 -0.000000 1.000000
vn -0.000000 -0.000000 1.000000
vn -0.000000 -0.000000 1.000000
vn -0.000000 -0.000000 1.000000
vn -0.701523 0.712647 0.000001
vn -0.701523 0.712647 0.000001
vn -0.701523 0.712647 0.000001
vn -0.701523 0.712647 0.000001
vn 0.146836 -0.030349 0.988695
vn 0.146836 -0.030349 0.988695
vn 0.146836 -0.030349 0.988695
vn 0.146836 -0.030349 0.988695
vn 0.000000 1.000000 0.000000
vn 0.000000 1.000000 0.000000
vn 0.000000 1.000000 0.000000
vn 0.000000 1.000000 0.000000
vn 0.000000 0.000000 -1.000000
vn 0.000000 0.000000 -1.000000
vn 0.000000 0.000000 -1.000000
vn 0.000000 0.000000 -1.000000
vn 0.000000 -1.000000 0.000000
vn 0.000000 -1.000000 0.000000
vn 0.000000 -1.000000 0.000000
vn 0.000000 -1.000000 0.000000
vn 1.000000 0.000000 0.000000
vn 1.000000 0.000000 0.000000
vn 1.000000 0.000000 0.000000
vn 1.000000 0.000000 0.000000
vn 0.000000 1.000000 0.000000
vn 0.000000 1.000000 0.000000
vn 0.000000 1.000000 0.000000
vn 0.000000 1.000000 0.000000
vn -0.850396 -0.526143 0.000000
vn -0.850396 -0.526143 0.000000
vn -0.850396 -0.526143 0.000000
vn -0.850396 -0.526143 0.000000
vn 0.000000 0.000000 1.000000
vn 0.000000 0.000000 1.000000
vn 0.000000 0.000000 1.000000
vn 0.000000 0.000000 1.000000
vn 0.844470 0.535603 0.000000
vn 0.844470 0.535603 0.000000
vn 0.844470 0.535603 0.000000
vn 0.844470 0.535603 0.000000
vn 0.000000 0.000000 -1.000000
vn 0.000000 0.000000 -1.000000
vn 0.000000 0.000000 -1.000000
vn 0.000000 0.000000 -1.000000
s off
g pCylinder2
usemtl initialShadingGroup
f 1/1/1 2/2/2 10/3/3 9/4/4
f 2/2/5 3/5/6 11/6/7 10/3/8
f 31/11/9 32/12/10 33/13/11 34/14/12
f 4/17/13 5/19/14 13/20/15 12/18/16
f 5/19/17 6/21/18 14/22/19 13/20/20
f 6/21/21 7/23/22 15/24/23 14/22/24
f 7/25/25 8/26/26 16/27/27 15/28/28
f 8/26/29 1/29/30 9/30/31 16/27/32
s 1
f 2/31/33 1/32/34 17/33/35
f 3/35/36 2/31/33 17/33/35
f 4/37/37 3/35/36 17/33/35
f 5/41/38 4/37/37 17/33/35
f 6/38/39 5/41/38 17/33/35
f 7/36/40 6/38/39 17/33/35
f 8/34/41 7/36/40 17/33/35
f 1/32/34 8/34/41 17/33/35
s 2
f 18/44/42 19/45/43 20/46/44
f 19/45/43 21/49/45 20/46/44
f 21/49/45 22/53/46 20/46/44
f 22/53/46 23/57/47 20/46/44
f 23/57/47 24/58/48 20/46/44
f 24/58/48 25/54/49 20/46/44
f 25/54/49 26/50/50 20/46/44
f 26/50/50 18/44/42 20/46/44
s off
f 9/47/51 10/48/52 19/45/53 18/44/54
f 10/48/55 11/51/56 21/49/57 19/45/58
f 11/51/59 12/55/60 22/53/61 21/49/62
f 12/55/63 13/61/64 23/57/65 22/53/66
f 13/61/67 14/62/68 24/58/69 23/57/70
f 14/62/71 15/56/72 25/54/73 24/58/74
f 15/56/75 16/52/76 26/50/77 25/54/78
f 16/52/79 9/47/80 18/44/81 26/50/82
f 3/35/83 4/37/84 28/39/85 27/40/86
f 4/17/87 12/18/88 29/16/89 28/15/90
f 12/55/91 11/51/92 30/59/93 29/60/94
f 11/6/95 3/5/96 27/7/97 30/8/98
f 27/40/99 28/39/100 32/42/101 31/43/102
f 28/15/103 29/16/104 33/13/105 32/12/106
f 29/60/107 30/59/108 34/63/109 33/64/110
f 30/8/111 27/7/112 31/9/113 34/10/114
f 35/65/115 36/66/116 38/67/117 37/68/118
f 37/71/119 38/72/120 40/73/121 39/74/122
f 39/79/123 40/80/124 42/81/125 41/82/126
f 41/85/127 42/86/128 36/87/129 35/88/130
f 36/91/131 42/92/132 40/93/133 38/94/134
f 43/77/135 44/78/136 45/76/137 46/75/138
f 41/85/139 35/88/140 44/89/141 43/90/142
f 35/65/143 37/68/144 45/69/145 44/70/146
f 37/71/147 39/74/148 46/75/149 45/76/150
f 39/79/151 41/82/152 43/83/153 46/84/154
