# This file uses centimeters as units for non-parametric coordinates.

mtllib props_tree_2.mtl
g default
v -0.116863 0.100293 -0.103550
v -0.116863 0.100293 -0.086229
v -0.101863 0.100293 -0.094889
v -0.116863 0.199707 -0.103550
v -0.116863 0.199707 -0.086229
v -0.101863 0.199707 -0.094889
v -0.111863 0.100293 -0.094889
v -0.111863 0.199707 -0.094889
vt 0.375000 0.312500
vt 0.458333 0.312500
vt 0.458333 0.688440
vt 0.375000 0.688440
vt 0.541667 0.312500
vt 0.541667 0.688440
vt 0.625000 0.312500
vt 0.625000 0.688440
vt 0.421875 0.291566
vt 0.421875 0.020934
vt 0.500000 0.150000
vt 0.656250 0.156250
vt 0.421875 0.979066
vt 0.421875 0.708434
vt 0.500000 0.837500
vt 0.656250 0.843750
vn -1.000000 0.000000 0.000000
vn -1.000000 0.000000 0.000000
vn -1.000000 0.000000 0.000000
vn -1.000000 0.000000 0.000000
vn 0.500000 0.000000 0.866025
vn 0.500000 0.000000 0.866025
vn 0.500000 0.000000 0.866025
vn 0.500000 0.000000 0.866025
vn 0.500000 0.000000 -0.866025
vn 0.500000 0.000000 -0.866025
vn 0.500000 0.000000 -0.866025
vn 0.500000 0.000000 -0.866025
vn 0.000000 -1.000000 0.000000
vn 0.000000 -1.000000 0.000000
vn 0.000000 -1.000000 0.000000
vn 0.000000 -1.000000 0.000000
vn 0.000000 1.000000 0.000000
vn 0.000000 1.000000 -0.000001
vn 0.000000 1.000000 -0.000001
vn 0.000000 1.000000 -0.000001
s off
g polySurface6 puzzlePiece_trees:pCylinder9
usemtl initialShadingGroup
f 1/1/1 2/2/2 5/3/3 4/4/4
f 2/2/5 3/5/6 6/6/7 5/3/8
f 3/5/9 1/7/10 4/8/11 6/6/12
s 1
f 2/9/13 1/10/14 7/11/15
f 3/12/16 2/9/13 7/11/15
f 1/10/14 3/12/16 7/11/15
s 2
f 4/13/17 5/14/18 8/15/19
f 5/14/18 6/16/20 8/15/19
f 6/16/20 4/13/17 8/15/19
g default
v -0.119285 0.251690 -0.129377
v -0.146761 0.251690 -0.098704
v -0.126008 0.251690 -0.062759
v -0.085707 0.251690 -0.071217
v -0.081552 0.251690 -0.112389
v -0.111863 0.371690 -0.094889
v -0.096412 0.153020 -0.142442
v -0.152313 0.153020 -0.124279
v -0.152313 0.153020 -0.065500
v -0.096412 0.153020 -0.047337
v -0.061863 0.153020 -0.094889
v -0.111863 0.303020 -0.094889
vt 0.577254 0.012236
vt 0.750000 0.250000
vt 0.577254 0.487764
vt 0.297746 0.396946
vt 0.297746 0.103054
vt 0.250000 0.500000
vt 0.350000 0.500000
vt 0.500000 1.000000
vt 0.450000 0.500000
vt 0.550000 0.500000
vt 0.650000 0.500000
vt 0.750000 0.500000
vt 0.577254 0.012236
vt 0.750000 0.250000
vt 0.577254 0.487764
vt 0.297746 0.396946
vt 0.297746 0.103054
vt 0.250000 0.500000
vt 0.350000 0.500000
vt 0.500000 1.000000
vt 0.450000 0.500000
vt 0.550000 0.500000
vt 0.650000 0.500000
vt 0.750000 0.500000
vn 0.000000 -1.000000 -0.000000
vn 0.000000 -1.000000 -0.000000
vn 0.000000 -1.000000 -0.000000
vn 0.000000 -1.000000 -0.000000
vn 0.000000 -1.000000 -0.000000
vn -0.724650 0.231375 -0.649113
vn -0.724650 0.231375 -0.649113
vn -0.724650 0.231375 -0.649113
vn -0.842878 0.229656 0.486636
vn -0.842878 0.229656 0.486636
vn -0.842878 0.229656 0.486636
vn 0.199824 0.231375 0.952122
vn 0.199824 0.231375 0.952122
vn 0.199824 0.231375 0.952122
vn 0.968199 0.230308 0.097713
vn 0.968200 0.230308 0.097713
vn 0.968199 0.230308 0.097713
vn 0.399478 0.230308 -0.887342
vn 0.399478 0.230309 -0.887342
vn 0.399478 0.230309 -0.887342
vn 0.000000 -1.000000 0.000000
vn 0.000000 -1.000000 0.000000
vn 0.000000 -1.000000 0.000000
vn 0.000000 -1.000000 0.000000
vn 0.000000 -1.000000 0.000000
vn -0.298359 0.260371 -0.918253
vn -0.298359 0.260371 -0.918253
vn -0.298359 0.260371 -0.918253
vn -0.965509 0.260371 0.000000
vn -0.965509 0.260371 0.000000
vn -0.965509 0.260371 0.000000
vn -0.298359 0.260371 0.918253
vn -0.298359 0.260371 0.918253
vn -0.298359 0.260371 0.918253
vn 0.781113 0.260371 0.567512
vn 0.781113 0.260371 0.567512
vn 0.781113 0.260371 0.567512
vn 0.781113 0.260371 -0.567512
vn 0.781113 0.260371 -0.567512
vn 0.781113 0.260371 -0.567512
s off
g polySurface8
usemtl initialShadingGroup
f 9/17/21 13/18/22 12/19/23 11/20/24 10/21/25
f 9/22/26 10/23/27 14/24/28
f 10/23/29 11/25/30 14/24/31
f 11/25/32 12/26/33 14/24/34
f 12/26/35 13/27/36 14/24/37
f 13/27/38 9/28/39 14/24/40
f 15/29/41 19/30/42 18/31/43 17/32/44 16/33/45
f 15/34/46 16/35/47 20/36/48
f 16/35/49 17/37/50 20/36/51
f 17/37/52 18/38/53 20/36/54
f 18/38/55 19/39/56 20/36/57
f 19/39/58 15/40/59 20/36/60
