# This file uses centimeters as units for non-parametric coordinates.

mtllib props_flag.mtl
g default
v 0.113374 0.099525 0.010000
v 0.133374 0.099525 0.010000
v 0.113374 0.119525 0.010000
v 0.133374 0.119525 0.010000
v 0.113374 0.119525 -0.010000
v 0.133374 0.119525 -0.010000
v 0.113374 0.099525 -0.010000
v 0.133374 0.099525 -0.010000
v 0.120374 0.119525 0.003000
v 0.126374 0.119525 0.003000
v 0.126374 0.119525 -0.003000
v 0.120374 0.119525 -0.003000
v 0.120374 0.284744 0.003000
v 0.126374 0.284744 0.003000
v 0.126374 0.284744 -0.003000
v 0.120374 0.284744 -0.003000
v 0.122174 0.291473 0.001200
v 0.124574 0.291473 0.001200
v 0.124574 0.291473 -0.001200
v 0.122174 0.291473 -0.001200
v 0.123374 0.298719 0.008485
v 0.131859 0.298719 0.000000
v 0.123374 0.298719 -0.008485
v 0.114888 0.298719 -0.000000
v 0.123299 0.307282 0.000000
vt 0.375000 0.000000
vt 0.625000 0.000000
vt 0.375000 0.250000
vt 0.625000 0.250000
vt 0.375000 0.500000
vt 0.625000 0.500000
vt 0.375000 0.750000
vt 0.625000 0.750000
vt 0.375000 1.000000
vt 0.625000 1.000000
vt 0.875000 0.000000
vt 0.875000 0.250000
vt 0.125000 0.000000
vt 0.125000 0.250000
vt 0.375000 0.250000
vt 0.625000 0.250000
vt 0.625000 0.500000
vt 0.375000 0.500000
vt 0.375000 0.250000
vt 0.625000 0.250000
vt 0.625000 0.500000
vt 0.375000 0.500000
vt 0.375000 0.250000
vt 0.625000 0.250000
vt 0.625000 0.500000
vt 0.375000 0.500000
vt 0.375000 0.250000
vt 0.625000 0.250000
vt 0.625000 0.500000
vt 0.375000 0.500000
vt 0.468750 0.343750
vn 0.000000 0.000000 1.000000
vn 0.000000 0.000000 1.000000
vn 0.000000 0.000000 1.000000
vn 0.000000 0.000000 1.000000
vn 0.000000 0.000000 -1.000000
vn 0.000000 0.000000 -1.000000
vn 0.000000 0.000000 -1.000000
vn 0.000000 0.000000 -1.000000
vn 0.000000 -1.000000 0.000000
vn 0.000000 -1.000000 0.000000
vn 0.000000 -1.000000 0.000000
vn 0.000000 -1.000000 0.000000
vn 1.000000 0.000000 0.000000
vn 1.000000 0.000000 0.000000
vn 1.000000 0.000000 0.000000
vn 1.000000 0.000000 0.000000
vn -1.000000 0.000000 0.000000
vn -1.000000 0.000000 0.000000
vn -1.000000 0.000000 0.000000
vn -1.000000 0.000000 0.000000
vn 0.000000 1.000000 0.000000
vn 0.000000 1.000000 0.000000
vn 0.000000 1.000000 0.000000
vn 0.000000 1.000000 0.000000
vn 0.000000 1.000000 0.000000
vn 0.000000 1.000000 0.000000
vn 0.000000 1.000000 0.000000
vn 0.000000 1.000000 0.000000
vn 0.000000 0.000000 1.000000
vn 0.000000 0.000000 1.000000
vn 0.000000 0.006249 0.999981
vn 0.000000 0.006249 0.999981
vn 1.000000 -0.000000 0.000000
vn 1.000000 -0.000000 0.000000
vn 0.999981 0.006249 0.000000
vn 0.999981 0.006249 0.000000
vn 0.000000 0.000000 -1.000000
vn 0.000000 0.000000 -1.000000
vn 0.000000 0.006249 -0.999980
vn 0.000000 0.006249 -0.999981
vn -1.000000 0.000000 0.000000
vn -1.000000 0.000000 0.000000
vn -0.999981 0.006249 0.000000
vn -0.999981 0.006249 0.000000
vn 0.000000 0.258439 0.966028
vn 0.000000 0.258439 0.966028
vn 0.966027 0.258441 0.000000
vn 0.966027 0.258441 0.000000
vn 0.000000 0.258440 -0.966027
vn 0.000000 0.258440 -0.966027
vn -0.966027 0.258440 0.000000
vn -0.966027 0.258440 0.000000
vn 0.505775 -0.568518 0.648829
vn 0.505775 -0.568518 0.648829
vn 0.505775 -0.568518 0.648829
vn 0.505775 -0.568518 0.648829
vn 0.648830 -0.568517 -0.505774
vn 0.648830 -0.568517 -0.505774
vn 0.648830 -0.568517 -0.505774
vn 0.648830 -0.568517 -0.505774
vn -0.505774 -0.568519 -0.648829
vn -0.505774 -0.568519 -0.648829
vn -0.505774 -0.568519 -0.648829
vn -0.505774 -0.568519 -0.648829
vn -0.648829 -0.568519 0.505773
vn -0.648829 -0.568519 0.505773
vn -0.648829 -0.568519 0.505773
vn -0.648829 -0.568519 0.505773
vn 0.577421 0.577207 0.577422
vn 0.577421 0.577207 0.577422
vn 0.577421 0.577207 0.577422
vn 0.577421 0.577207 -0.577423
vn 0.577421 0.577207 -0.577423
vn 0.577421 0.577207 -0.577423
vn -0.580776 0.570437 -0.580776
vn -0.580776 0.570437 -0.580776
vn -0.580776 0.570437 -0.580776
vn -0.580777 0.570435 0.580777
vn -0.580778 0.570435 0.580777
vn -0.580777 0.570435 0.580777
s off
g pCube6
usemtl lambert6SG
f 1/1/1 2/2/2 4/4/3 3/3/4
f 5/5/5 6/6/6 8/8/7 7/7/8
f 7/7/9 8/8/10 2/10/11 1/9/12
f 2/2/13 8/11/14 6/12/15 4/4/16
f 7/13/17 1/1/18 3/3/19 5/14/20
s 1
f 3/3/21 4/4/22 10/16/23 9/15/24
f 4/4/22 6/6/25 11/17/26 10/16/23
f 6/6/25 5/5/27 12/18/28 11/17/26
f 5/5/27 3/3/21 9/15/24 12/18/28
s 2
f 9/15/29 10/16/30 14/20/31 13/19/32
s 3
f 10/16/33 11/17/34 15/21/35 14/20/36
s 4
f 11/17/37 12/18/38 16/22/39 15/21/40
s 5
f 12/18/41 9/15/42 13/19/43 16/22/44
s 2
f 13/19/32 14/20/31 18/24/45 17/23/46
s 3
f 14/20/36 15/21/35 19/25/47 18/24/48
s 4
f 15/21/40 16/22/39 20/26/49 19/25/50
s 5
f 16/22/44 13/19/43 17/23/51 20/26/52
s off
f 17/23/53 18/24/54 22/28/55 21/27/56
f 18/24/57 19/25/58 23/29/59 22/28/60
f 19/25/61 20/26/62 24/30/63 23/29/64
f 20/26/65 17/23/66 21/27/67 24/30/68
f 21/27/69 22/28/70 25/31/71
f 22/28/72 23/29/73 25/31/74
f 23/29/75 24/30/76 25/31/77
f 24/30/78 21/27/79 25/31/80
g default
v 0.122983 0.252536 -0.003154
v 0.123983 0.252536 -0.003154
v 0.122983 0.267536 -0.009065
v 0.123983 0.267536 -0.009065
v 0.122983 0.282536 -0.003583
v 0.123983 0.282536 -0.003583
v 0.120999 0.284314 -0.014282
v 0.121999 0.284314 -0.014282
v 0.127735 0.282069 -0.022936
v 0.128735 0.282069 -0.022936
v 0.134014 0.278609 -0.029189
v 0.135014 0.278609 -0.029189
v 0.132117 0.276955 -0.037718
v 0.133117 0.276955 -0.037718
v 0.125720 0.275662 -0.045065
v 0.126720 0.275662 -0.045065
v 0.126398 0.273561 -0.053453
v 0.127398 0.273561 -0.053453
v 0.134424 0.270214 -0.060827
v 0.135424 0.270214 -0.060827
v 0.134424 0.255214 -0.060827
v 0.135424 0.255214 -0.060827
v 0.134424 0.240214 -0.060827
v 0.135424 0.240214 -0.060827
v 0.126398 0.243561 -0.053453
v 0.127398 0.243561 -0.053453
v 0.125720 0.245662 -0.045065
v 0.126720 0.245662 -0.045065
v 0.132117 0.246955 -0.037718
v 0.133117 0.246955 -0.037718
v 0.134014 0.248609 -0.031115
v 0.135014 0.248609 -0.031115
v 0.127735 0.252069 -0.024862
v 0.128735 0.252069 -0.024862
v 0.120999 0.254314 -0.016208
v 0.121999 0.254314 -0.016208
v 0.127398 0.258561 -0.053453
v 0.126720 0.260662 -0.045065
v 0.133117 0.261955 -0.037718
v 0.135014 0.263609 -0.031115
v 0.128735 0.267069 -0.024862
v 0.121999 0.269314 -0.016208
v 0.126398 0.258561 -0.053453
v 0.125720 0.260662 -0.045065
v 0.132117 0.261955 -0.037718
v 0.134014 0.263609 -0.031115
v 0.127735 0.267069 -0.024862
v 0.120999 0.269314 -0.016208
vt 0.375000 0.000000
vt 0.625000 0.000000
vt 0.375000 0.125000
vt 0.625000 0.125000
vt 0.375000 0.250000
vt 0.625000 0.250000
vt 0.375000 0.285714
vt 0.625000 0.285714
vt 0.375000 0.321429
vt 0.625000 0.321429
vt 0.375000 0.357143
vt 0.625000 0.357143
vt 0.375000 0.392857
vt 0.625000 0.392857
vt 0.375000 0.428571
vt 0.625000 0.428571
vt 0.375000 0.464286
vt 0.625000 0.464286
vt 0.375000 0.500000
vt 0.625000 0.500000
vt 0.375000 0.625000
vt 0.625000 0.625000
vt 0.375000 0.750000
vt 0.625000 0.750000
vt 0.375000 0.785714
vt 0.625000 0.785714
vt 0.375000 0.821429
vt 0.625000 0.821429
vt 0.375000 0.857143
vt 0.625000 0.857143
vt 0.375000 0.892857
vt 0.625000 0.892857
vt 0.375000 0.928571
vt 0.625000 0.928571
vt 0.375000 0.964286
vt 0.625000 0.964286
vt 0.375000 1.000000
vt 0.625000 1.000000
vt 0.875000 0.000000
vt 0.839286 0.000000
vt 0.803571 0.000000
vt 0.767857 0.000000
vt 0.732143 0.000000
vt 0.696429 0.000000
vt 0.660714 0.000000
vt 0.875000 0.125000
vt 0.839286 0.125000
vt 0.803571 0.125000
vt 0.767857 0.125000
vt 0.732143 0.125000
vt 0.696429 0.125000
vt 0.660714 0.125000
vt 0.875000 0.250000
vt 0.839286 0.250000
vt 0.803571 0.250000
vt 0.767857 0.250000
vt 0.732143 0.250000
vt 0.696429 0.250000
vt 0.660714 0.250000
vt 0.125000 0.000000
vt 0.160714 0.000000
vt 0.196429 0.000000
vt 0.232143 0.000000
vt 0.267857 0.000000
vt 0.303571 0.000000
vt 0.339286 0.000000
vt 0.125000 0.125000
vt 0.160714 0.125000
vt 0.196429 0.125000
vt 0.232143 0.125000
vt 0.267857 0.125000
vt 0.303571 0.125000
vt 0.339286 0.125000
vt 0.125000 0.250000
vt 0.160714 0.250000
vt 0.196429 0.250000
vt 0.232143 0.250000
vt 0.267857 0.250000
vt 0.303571 0.250000
vt 0.339286 0.250000
vn 0.000000 0.366623 0.930370
vn 0.000000 0.366623 0.930370
vn 0.000000 0.014299 0.999898
vn 0.000000 0.014299 0.999898
vn 0.000000 -0.343255 0.939242
vn 0.000000 -0.343255 0.939242
vn 0.000000 0.986477 0.163899
vn 0.000000 0.986477 0.163899
vn 0.000000 0.999636 -0.026980
vn 0.000000 0.995582 0.093894
vn 0.000000 0.876305 -0.481756
vn 0.000000 0.967540 -0.252719
vn 0.000000 0.968643 -0.248457
vn 0.000000 0.944476 -0.328582
vn 0.000000 0.981731 -0.190274
vn 0.000000 0.984766 -0.173882
vn 0.000000 0.977820 -0.209445
vn 0.000000 0.971288 -0.237907
vn 0.000000 0.916581 -0.399849
vn 0.000000 0.969713 -0.244246
vn 0.000000 0.910550 -0.413398
vn 0.000000 0.910550 -0.413398
vn 0.000000 0.000000 -1.000000
vn 0.000000 0.000000 -1.000000
vn 0.000000 0.000000 -1.000000
vn 0.000000 0.000000 -1.000000
vn 0.000000 0.000000 -1.000000
vn 0.000000 0.000000 -1.000000
vn 0.000000 -0.910551 0.413397
vn 0.000000 -0.910551 0.413397
vn 0.000000 -0.916582 0.399847
vn 0.000000 -0.969713 0.244246
vn 0.000000 -0.977821 0.209444
vn 0.000000 -0.971288 0.237906
vn 0.000000 -0.970176 0.242401
vn 0.000000 -0.984602 0.174812
vn 0.000000 -0.950349 0.311187
vn 0.000000 -0.928801 0.370580
vn 0.000000 -0.876306 0.481756
vn 0.000000 -0.967540 0.252718
vn 0.000000 -0.999692 0.024801
vn 0.000000 -0.996141 -0.087772
vn 0.000000 -0.990855 -0.134932
vn 0.000000 -0.990855 -0.134932
vn 0.868416 0.000000 0.495836
vn 0.676519 0.000000 0.736425
vn 0.676519 -0.000000 0.736425
vn 0.875397 -0.000000 0.483405
vn 0.944476 0.000000 -0.328582
vn 0.939836 0.000000 -0.341626
vn 0.858308 0.000000 -0.513135
vn 0.866105 0.003601 -0.499848
vn 0.949302 0.000000 0.314367
vn 0.948077 -0.024330 0.317110
vn 0.752905 0.000000 0.658130
vn 0.744370 -0.042856 0.666391
vn 0.968689 -0.020692 0.247414
vn 0.966734 -0.020304 0.254978
vn 0.979150 -0.039270 -0.199307
vn 0.979113 0.004229 -0.203271
vn 0.676519 -0.000000 0.736425
vn 0.881910 -0.000000 0.471417
vn 0.934746 0.000000 -0.355316
vn 0.873731 0.007265 -0.486356
vn 0.945021 -0.050023 0.323162
vn 0.734345 -0.086432 0.673251
vn 0.965354 -0.020618 0.260130
vn 0.976979 0.051140 -0.207113
vn -0.676519 0.000000 -0.736425
vn -0.868416 0.000000 -0.495836
vn -0.875397 0.000000 -0.483405
vn -0.676519 0.000000 -0.736425
vn -0.944476 0.000000 0.328582
vn -0.939836 -0.000000 0.341626
vn -0.858308 0.000000 0.513135
vn -0.866105 -0.003601 0.499848
vn -0.949301 0.000000 -0.314367
vn -0.948077 0.024330 -0.317110
vn -0.752905 0.000000 -0.658130
vn -0.744370 0.042856 -0.666391
vn -0.968689 0.020692 -0.247414
vn -0.966734 0.020304 -0.254978
vn -0.979150 0.039270 0.199307
vn -0.979113 -0.004229 0.203271
vn -0.881910 0.000000 -0.471418
vn -0.676519 0.000000 -0.736425
vn -0.934746 -0.000000 0.355316
vn -0.873730 -0.007265 0.486356
vn -0.945021 0.050023 -0.323162
vn -0.734345 0.086432 -0.673251
vn -0.965354 0.020618 -0.260130
vn -0.976979 -0.051140 0.207113
s 1
g pCube7
usemtl lambert7SG
f 26/32/81 27/33/82 29/35/83 28/34/84
f 28/34/84 29/35/83 31/37/85 30/36/86
s 2
f 30/36/87 31/37/88 33/39/89 32/38/90
f 32/38/90 33/39/89 35/41/91 34/40/92
f 34/40/92 35/41/91 37/43/93 36/42/94
f 36/42/94 37/43/93 39/45/95 38/44/96
f 38/44/96 39/45/95 41/47/97 40/46/98
f 40/46/98 41/47/97 43/49/99 42/48/100
f 42/48/100 43/49/99 45/51/101 44/50/102
s 3
f 44/50/103 45/51/104 47/53/105 46/52/106
f 46/52/106 47/53/105 49/55/107 48/54/108
s 4
f 48/54/109 49/55/110 51/57/111 50/56/112
f 50/56/112 51/57/111 53/59/113 52/58/114
f 52/58/114 53/59/113 55/61/115 54/60/116
f 54/60/116 55/61/115 57/63/117 56/62/118
f 56/62/118 57/63/117 59/65/119 58/64/120
f 58/64/120 59/65/119 61/67/121 60/66/122
f 60/66/122 61/67/121 27/69/123 26/68/124
s 5
f 51/71/125 49/70/126 47/77/127 62/78/128
f 53/72/129 51/71/125 62/78/128 63/79/130
f 55/73/131 53/72/129 63/79/130 64/80/132
f 57/74/133 55/73/131 64/80/132 65/81/134
f 59/75/135 57/74/133 65/81/134 66/82/136
f 61/76/137 59/75/135 66/82/136 67/83/138
f 27/33/139 61/76/137 67/83/138 29/35/140
f 62/78/128 47/77/127 45/84/141 43/85/142
f 63/79/130 62/78/128 43/85/142 41/86/143
f 64/80/132 63/79/130 41/86/143 39/87/144
f 65/81/134 64/80/132 39/87/144 37/88/145
f 66/82/136 65/81/134 37/88/145 35/89/146
f 67/83/138 66/82/136 35/89/146 33/90/147
f 29/35/140 67/83/138 33/90/147 31/37/148
s 6
f 48/91/149 50/92/150 68/99/151 46/98/152
f 50/92/150 52/93/153 69/100/154 68/99/151
f 52/93/153 54/94/155 70/101/156 69/100/154
f 54/94/155 56/95/157 71/102/158 70/101/156
f 56/95/157 58/96/159 72/103/160 71/102/158
f 58/96/159 60/97/161 73/104/162 72/103/160
f 60/97/161 26/32/163 28/34/164 73/104/162
f 46/98/152 68/99/151 42/106/165 44/105/166
f 68/99/151 69/100/154 40/107/167 42/106/165
f 69/100/154 70/101/156 38/108/168 40/107/167
f 70/101/156 71/102/158 36/109/169 38/108/168
f 71/102/158 72/103/160 34/110/170 36/109/169
f 72/103/160 73/104/162 32/111/171 34/110/170
f 73/104/162 28/34/164 30/36/172 32/111/171
