# This file uses centimeters as units for non-parametric coordinates.

mtllib puzzlePiece_trees.mtl
g default
v -0.250000 0.000000 0.250000
v 0.250000 0.000000 0.250000
v -0.250000 0.100000 0.250000
v 0.250000 0.100000 0.250000
v -0.250000 0.100000 -0.250000
v 0.250000 0.100000 -0.250000
v -0.250000 0.000000 -0.250000
v 0.250000 0.000000 -0.250000
v 0.025000 0.000000 0.250000
v 0.025000 0.100000 0.250000
v 0.025000 0.100000 -0.250000
v 0.025000 0.000000 -0.250000
v -0.025000 0.000000 0.250000
v -0.025000 0.100000 0.250000
v -0.025000 0.100000 -0.250000
v -0.025000 0.000000 -0.250000
v -0.250000 0.100000 -0.025000
v 0.250000 0.100000 -0.024215
v -0.250000 0.000000 -0.025000
v 0.250000 0.000000 -0.024215
v 0.025000 0.100000 -0.024568
v 0.025000 0.000000 -0.024568
v -0.025000 0.100000 -0.024647
v -0.025000 0.000000 -0.024647
v -0.250000 0.100000 0.025000
v 0.250000 0.100000 0.025785
v 0.025000 0.100000 0.025432
v -0.025000 0.100000 0.025353
v -0.250000 0.000000 0.025000
v 0.250000 0.000000 0.025785
v 0.025000 0.000000 0.025432
v -0.025000 0.000000 0.025353
v -0.250000 0.025000 0.250000
v 0.250000 0.025000 0.250000
v -0.250000 0.025000 -0.250000
v 0.250000 0.025000 -0.250000
v 0.025000 0.025000 0.250000
v 0.025000 0.025000 -0.250000
v -0.025000 0.025000 0.250000
v -0.025000 0.025000 -0.250000
v 0.250000 0.025000 -0.024215
v -0.250000 0.025000 -0.025000
v 0.250000 0.025000 0.025785
v -0.250000 0.025000 0.025000
v -0.025000 0.025000 0.025865
v 0.025000 0.025000 0.025865
v -0.025000 0.025000 -0.024185
v 0.025000 0.025000 -0.024185
vt 0.750061 0.462363
vt 0.750061 0.257738
vt 0.772797 0.257738
vt 0.772797 0.462363
vt 0.011681 0.011516
vt 0.216306 0.011516
vt 0.216306 0.215820
vt 0.011681 0.216141
vt 0.535788 0.462363
vt 0.535788 0.257738
vt 0.603996 0.257738
vt 0.603996 0.462363
vt 0.064021 0.538054
vt 0.268646 0.538054
vt 0.268646 0.743000
vt 0.064021 0.742679
vt 0.642924 0.462363
vt 0.642924 0.258452
vt 0.665661 0.258452
vt 0.665661 0.462363
vt 0.859136 0.462363
vt 0.859136 0.257738
vt 0.881872 0.257738
vt 0.881872 0.462363
vt 0.841006 0.212266
vt 0.772797 0.212266
vt 0.772797 0.007640
vt 0.841006 0.007640
vt 0.261779 0.466239
vt 0.261779 0.261221
vt 0.466404 0.260899
vt 0.466404 0.466239
vt 0.626732 0.212266
vt 0.603996 0.212266
vt 0.603996 0.007640
vt 0.626732 0.007640
vt 0.206224 0.951617
vt 0.001992 0.951617
vt 0.002313 0.746992
vt 0.206224 0.746992
vt 0.841006 0.257738
vt 0.216306 0.466239
vt 0.216306 0.261292
vt 0.011681 0.261613
vt 0.011681 0.466239
vt 0.733869 0.212980
vt 0.665661 0.212980
vt 0.665661 0.007640
vt 0.733869 0.007640
vt 0.950080 0.257738
vt 0.881872 0.212266
vt 0.950080 0.212266
vt 0.261779 0.215748
vt 0.466404 0.215427
vt 0.479407 0.743393
vt 0.274782 0.743072
vt 0.274782 0.538054
vt 0.479407 0.538054
vt 0.733869 0.258452
vt 0.212674 0.747385
vt 0.417299 0.747706
vt 0.417299 0.952010
vt 0.212674 0.952010
vt 0.881872 0.007640
vt 0.950080 0.007640
vt 0.261779 0.011516
vt 0.466404 0.011516
vt 0.841006 0.462363
vt 0.626732 0.257738
vt 0.626732 0.462363
vt 0.733869 0.462363
vt 0.950080 0.462363
vt 0.750061 0.212266
vt 0.750061 0.007640
vt 0.535788 0.212266
vt 0.535788 0.007640
vt 0.642924 0.212980
vt 0.642924 0.007640
vt 0.859136 0.212266
vt 0.859136 0.007640
vt 0.793383 0.992777
vt 0.747910 0.992777
vt 0.747910 0.788938
vt 0.793383 0.788938
vt 0.747910 0.743420
vt 0.793383 0.743420
vt 0.747910 0.538054
vt 0.793383 0.538054
vt 0.543285 0.788151
vt 0.543285 0.742679
vt 0.998008 0.743393
vt 0.998008 0.788866
vt 0.057886 0.538054
vt 0.057886 0.742679
vt 0.035150 0.742679
vt 0.035150 0.538054
vt 0.512812 0.951644
vt 0.512812 0.747411
vt 0.535549 0.747411
vt 0.535549 0.951250
vt 0.483578 0.951715
vt 0.483578 0.747411
vt 0.506314 0.747876
vt 0.506314 0.951715
vt 0.029015 0.538054
vt 0.029015 0.742679
vt 0.006278 0.742679
vt 0.006278 0.538054
vt 0.514414 0.743000
vt 0.514414 0.538054
vt 0.537150 0.538054
vt 0.537150 0.743420
vt 0.485542 0.743420
vt 0.485542 0.538402
vt 0.508278 0.538054
vt 0.508278 0.743420
vt 0.425110 0.952010
vt 0.425110 0.747385
vt 0.447846 0.747385
vt 0.447846 0.952010
vt 0.454344 0.952010
vt 0.454344 0.747385
vt 0.477080 0.747385
vt 0.477080 0.952010
vn 0.000000 0.000000 1.000000
vn 0.000000 0.000000 1.000000
vn 0.000000 0.000000 1.000000
vn 0.000000 0.000000 1.000000
vn 0.000000 1.000000 0.000000
vn 0.000000 1.000000 0.000000
vn 0.000000 1.000000 0.000000
vn -0.000000 1.000000 -0.000000
vn 0.000000 0.000000 -1.000000
vn 0.000000 0.000000 -1.000000
vn 0.000000 0.000000 -1.000000
vn 0.000000 0.000000 -1.000000
vn 0.000000 -1.000000 0.000000
vn 0.000000 -1.000000 0.000000
vn 0.000000 -1.000000 0.000000
vn 0.000000 -1.000000 0.000000
vn 1.000000 0.000000 0.000000
vn 1.000000 0.000000 0.000000
vn 1.000000 -0.000000 0.000000
vn 1.000000 0.000000 0.000000
vn -1.000000 0.000000 0.000000
vn -1.000000 0.000000 0.000000
vn -1.000000 0.000000 0.000000
vn -1.000000 0.000000 0.000000
vn 0.000000 0.000000 1.000000
vn 0.000000 0.000000 1.000000
vn 0.000000 0.000000 1.000000
vn 0.000000 0.000000 1.000000
vn 0.000000 1.000000 0.000000
vn 0.000000 1.000000 0.000000
vn 0.000000 1.000000 0.000000
vn 0.000000 1.000000 0.000000
vn 0.000000 0.000000 -1.000000
vn 0.000000 0.000000 -1.000000
vn 0.000000 0.000000 -1.000000
vn 0.000000 0.000000 -1.000000
vn 0.000000 -1.000000 0.000000
vn 0.000000 -1.000000 0.000000
vn 0.000000 -1.000000 0.000000
vn 0.000000 -1.000000 0.000000
vn 0.000000 0.000000 1.000000
vn 0.000000 0.000000 1.000000
vn 0.000000 0.000000 1.000000
vn 0.000000 0.000000 1.000000
vn 0.000000 1.000000 0.000000
vn -0.000000 1.000000 -0.000000
vn 0.000000 1.000000 0.000000
vn 0.000000 1.000000 0.000000
vn -0.000000 1.000000 -0.000000
vn -0.000000 1.000000 -0.000000
vn 0.000000 1.000000 0.000000
vn 0.000000 1.000000 0.000000
vn 1.000000 -0.000000 0.000000
vn 1.000000 -0.000000 0.000000
vn 1.000000 0.000000 0.000000
vn 1.000000 0.000000 0.000000
vn -1.000000 0.000000 0.000000
vn -1.000000 0.000000 0.000000
vn -1.000000 0.000000 0.000000
vn -1.000000 0.000000 0.000000
vn 0.000000 1.000000 0.000000
vn 0.000000 1.000000 0.000000
vn 0.000000 1.000000 0.000000
vn 0.000000 1.000000 0.000000
vn 0.000000 -1.000000 0.000000
vn 0.000000 -1.000000 0.000000
vn 0.000000 -1.000000 0.000000
vn 0.000000 -1.000000 0.000000
vn 0.000000 1.000000 0.000000
vn -0.000000 1.000000 -0.000000
vn 0.000000 1.000000 0.000000
vn 0.000000 1.000000 0.000000
vn -0.000000 1.000000 -0.000000
vn 0.000000 1.000000 0.000000
vn -0.000000 1.000000 -0.000000
vn -0.000000 1.000000 -0.000000
vn 1.000000 -0.000000 0.000000
vn 1.000000 -0.000000 0.000000
vn 1.000000 -0.000000 0.000000
vn 1.000000 -0.000000 0.000000
vn 0.000000 -1.000000 0.000000
vn 0.000000 -1.000000 0.000000
vn 0.000000 -1.000000 0.000000
vn 0.000000 -1.000000 0.000000
vn -1.000000 0.000000 0.000000
vn -1.000000 0.000000 0.000000
vn -1.000000 0.000000 0.000000
vn -1.000000 0.000000 0.000000
vn 0.000000 1.000000 0.000000
vn 0.000000 1.000000 0.000000
vn 0.000000 1.000000 0.000000
vn 0.000000 1.000000 0.000000
vn 0.000000 1.000000 0.000000
vn 0.000000 1.000000 0.000000
vn 0.000000 1.000000 0.000000
vn 0.000000 1.000000 0.000000
vn 0.000000 0.000000 1.000000
vn 0.000000 0.000000 1.000000
vn 0.000000 0.000000 1.000000
vn 0.000000 0.000000 1.000000
vn 0.000000 0.000000 -1.000000
vn 0.000000 0.000000 -1.000000
vn 0.000000 0.000000 -1.000000
vn 0.000000 0.000000 -1.000000
vn 1.000000 0.000000 0.000000
vn 1.000000 -0.000000 0.000000
vn 1.000000 -0.000000 0.000000
vn 1.000000 0.000000 0.000000
vn -1.000000 0.000000 0.000000
vn -1.000000 0.000000 0.000000
vn -1.000000 0.000000 0.000000
vn -1.000000 0.000000 0.000000
vn 0.000000 0.000000 1.000000
vn 0.000000 0.000000 1.000000
vn 0.000000 0.000000 1.000000
vn 0.000000 0.000000 1.000000
vn 0.000000 0.000000 -1.000000
vn 0.000000 0.000000 -1.000000
vn 0.000000 0.000000 -1.000000
vn 0.000000 0.000000 -1.000000
vn 0.000000 0.000000 -1.000000
vn 0.000000 0.000000 -1.000000
vn 0.000000 0.000000 -1.000000
vn 0.000000 0.000000 -1.000000
vn 1.000000 0.000000 0.000000
vn 1.000000 -0.000000 0.000000
vn 1.000000 0.000000 0.000000
vn 1.000000 0.000000 0.000000
vn -1.000000 0.000000 0.000000
vn -1.000000 0.000000 0.000000
vn -1.000000 0.000000 0.000000
vn -1.000000 0.000000 0.000000
vn 0.000000 -1.000000 0.000000
vn 0.000000 -1.000000 0.000000
vn 0.000000 -1.000000 0.000000
vn 0.000000 -1.000000 0.000000
vn 0.000000 -1.000000 0.000000
vn 0.000000 -1.000000 0.000000
vn 0.000000 -1.000000 0.000000
vn 0.000000 -1.000000 0.000000
vn 0.000000 -1.000000 0.000000
vn 0.000000 -1.000000 0.000000
vn 0.000000 -1.000000 0.000000
vn 0.000000 -1.000000 0.000000
vn 0.000000 -1.000000 0.000000
vn 0.000000 -1.000000 0.000000
vn 0.000000 -1.000000 0.000000
vn 0.000000 -1.000000 0.000000
vn 0.000000 -1.000000 0.000000
vn 0.000000 -1.000000 0.000000
vn 0.000000 -1.000000 0.000000
vn 0.000000 -1.000000 0.000000
vn 0.000609 0.008652 -0.999962
vn 0.000609 0.008652 -0.999962
vn 0.000609 0.008652 -0.999962
vn 0.000609 0.008652 -0.999962
vn -1.000000 0.000000 0.000000
vn -1.000000 0.000000 0.000000
vn -1.000000 0.000000 0.000000
vn -1.000000 0.000000 0.000000
vn 1.000000 0.000000 0.000000
vn 1.000000 0.000000 0.000000
vn 1.000000 0.000000 0.000000
vn 1.000000 0.000000 0.000000
vn 0.002707 0.010223 -0.999944
vn 0.002707 0.010223 -0.999944
vn 0.002707 0.010223 -0.999944
vn 0.002707 0.010223 -0.999944
vn 1.000000 0.000000 0.000000
vn 1.000000 0.000000 0.000000
vn 1.000000 0.000000 0.000000
vn 1.000000 0.000000 0.000000
vn -1.000000 0.000000 0.000000
vn -1.000000 0.000000 0.000000
vn -1.000000 0.000000 0.000000
vn -1.000000 0.000000 0.000000
vn -0.002596 -0.009229 0.999954
vn -0.002596 -0.009229 0.999954
vn -0.002596 -0.009229 0.999954
vn -0.002596 -0.009229 0.999954
vn -0.000720 -0.007659 0.999970
vn -0.000720 -0.007659 0.999970
vn -0.000720 -0.007659 0.999970
vn -0.000720 -0.007659 0.999970
s off
g puzzlePiece_twobends_NW_SE:pCube1
usemtl puzzlePiece_twobends_NW_SE:initialShadingGroup
f 1/1/1 13/2/2 39/3/3 33/4/4
f 3/5/5 14/6/6 28/7/7 25/8/8
f 5/9/9 15/10/10 40/11/11 35/12/12
f 7/13/13 16/14/14 24/15/15 19/16/16
f 2/17/17 30/18/18 43/19/19 34/20/20
f 7/21/21 19/22/22 42/23/23 35/24/24
f 10/25/25 37/26/26 34/27/27 4/28/28
f 11/29/29 21/30/30 18/31/31 6/32/32
f 12/33/33 38/34/34 36/35/35 8/36/36
f 9/37/37 31/38/38 30/39/39 2/40/40
f 14/41/41 39/3/42 37/26/43 10/25/44
f 15/42/45 23/43/46 21/30/47 11/29/48
f 17/44/49 23/43/50 15/42/51 5/45/52
f 18/46/53 41/47/54 36/48/55 6/49/56
f 17/50/57 42/23/58 44/51/59 25/52/60
f 18/31/61 21/30/62 27/53/63 26/54/64
f 20/55/65 22/56/66 12/57/67 8/58/68
f 21/30/69 23/43/70 28/7/71 27/53/72
f 25/8/73 28/7/74 23/43/75 17/44/76
f 26/59/77 43/19/78 41/47/79 18/46/80
f 29/60/81 32/61/82 13/62/83 1/63/84
f 25/52/85 44/51/86 33/64/87 3/65/88
f 26/54/89 27/53/90 10/66/91 4/67/92
f 27/53/93 28/7/94 14/6/95 10/66/96
f 33/4/97 39/3/98 14/41/99 3/68/100
f 35/12/101 40/11/102 16/69/103 7/70/104
f 34/20/105 43/19/106 26/59/107 4/71/108
f 35/24/109 42/23/110 17/50/111 5/72/112
f 34/27/113 37/26/114 9/73/115 2/74/116
f 36/35/117 38/34/118 11/75/119 6/76/120
f 38/34/121 40/11/122 15/10/123 11/75/124
f 36/48/125 41/47/126 20/77/127 8/78/128
f 33/64/129 44/51/130 29/79/131 1/80/132
f 37/81/133 39/82/134 45/83/135 46/84/136
f 46/84/137 45/83/138 47/85/139 48/86/140
f 48/86/141 47/85/142 40/87/143 38/88/144
f 44/89/145 42/90/146 47/85/147 45/83/148
f 41/91/149 43/92/150 46/84/151 48/86/152
f 30/93/153 31/94/154 46/95/155 43/96/156
f 31/97/157 9/98/158 37/99/159 46/100/160
f 13/101/161 32/102/162 45/103/163 39/104/164
f 32/105/165 29/106/166 44/107/167 45/108/168
f 24/109/169 16/110/170 40/111/171 47/112/172
f 12/113/173 22/114/174 48/115/175 38/116/176
f 19/117/177 24/118/178 47/119/179 42/120/180
f 22/121/181 20/122/182 41/123/183 48/124/184
g default
v 0.095000 0.099747 -0.065534
v 0.095000 0.099747 -0.048213
v 0.110000 0.099747 -0.056873
v 0.095000 0.200253 -0.065534
v 0.095000 0.200253 -0.048213
v 0.110000 0.200253 -0.056873
v 0.100000 0.099747 -0.056873
v 0.100000 0.200253 -0.056873
v 0.115451 0.159080 -0.104426
v 0.059549 0.159080 -0.086263
v 0.059549 0.159080 -0.027484
v 0.115451 0.159080 -0.009320
v 0.150000 0.159080 -0.056873
v 0.100000 0.242534 -0.056873
v 0.144550 0.219949 -0.079573
v 0.092178 0.219949 -0.106258
v 0.050616 0.219949 -0.064695
v 0.077300 0.219949 -0.012323
v 0.135355 0.219949 -0.021518
v 0.100000 0.329949 -0.056873
vt 0.421875 0.020934
vt 0.421875 0.291566
vt 0.656250 0.156250
vt 0.375000 0.312500
vt 0.458333 0.312500
vt 0.541667 0.312500
vt 0.625000 0.312500
vt 0.375000 0.688440
vt 0.458333 0.688440
vt 0.541667 0.688440
vt 0.625000 0.688440
vt 0.421875 0.708434
vt 0.421875 0.979066
vt 0.656250 0.843750
vt 0.500000 0.150000
vt 0.500000 0.837500
vt 0.577254 0.012236
vt 0.750000 0.250000
vt 0.577254 0.487764
vt 0.297746 0.396946
vt 0.297746 0.103054
vt 0.250000 0.500000
vt 0.350000 0.500000
vt 0.500000 1.000000
vt 0.450000 0.500000
vt 0.550000 0.500000
vt 0.650000 0.500000
vt 0.750000 0.500000
vt 0.577254 0.012236
vt 0.750000 0.250000
vt 0.577254 0.487764
vt 0.297746 0.396946
vt 0.297746 0.103054
vt 0.250000 0.500000
vt 0.350000 0.500000
vt 0.500000 1.000000
vt 0.450000 0.500000
vt 0.550000 0.500000
vt 0.650000 0.500000
vt 0.750000 0.500000
vn -1.000000 0.000000 0.000000
vn -1.000000 0.000000 0.000000
vn -1.000000 0.000000 0.000000
vn -1.000000 0.000000 0.000000
vn 0.500000 0.000000 0.866026
vn 0.500000 0.000000 0.866026
vn 0.500000 0.000000 0.866026
vn 0.500000 0.000000 0.866026
vn 0.500000 0.000000 -0.866025
vn 0.500000 0.000000 -0.866025
vn 0.500000 0.000000 -0.866025
vn 0.500000 0.000000 -0.866025
vn 0.000000 -1.000000 0.000000
vn 0.000000 -1.000000 0.000000
vn 0.000000 -1.000000 0.000000
vn 0.000000 -1.000000 0.000000
vn 0.000000 1.000000 0.000000
vn 0.000000 1.000000 0.000000
vn 0.000000 1.000000 0.000000
vn 0.000000 1.000000 0.000000
vn 0.000000 -1.000000 0.000000
vn 0.000000 -1.000000 0.000000
vn 0.000000 -1.000000 0.000000
vn 0.000000 -1.000000 0.000000
vn 0.000000 -1.000000 0.000000
vn -0.278073 0.436170 -0.855822
vn -0.278073 0.436170 -0.855822
vn -0.278073 0.436170 -0.855822
vn -0.899864 0.436170 0.000000
vn -0.899864 0.436170 0.000000
vn -0.899864 0.436170 0.000000
vn -0.278073 0.436170 0.855822
vn -0.278073 0.436170 0.855822
vn -0.278073 0.436170 0.855822
vn 0.728005 0.436170 0.528927
vn 0.728005 0.436170 0.528927
vn 0.728005 0.436170 0.528927
vn 0.728006 0.436170 -0.528927
vn 0.728006 0.436170 -0.528927
vn 0.728005 0.436170 -0.528927
vn 0.000000 -1.000000 0.000000
vn 0.000000 -1.000000 0.000000
vn 0.000000 -1.000000 0.000000
vn 0.000000 -1.000000 0.000000
vn 0.000000 -1.000000 0.000000
vn 0.426094 0.345139 -0.836256
vn 0.426094 0.345139 -0.836256
vn 0.426094 0.345139 -0.836256
vn -0.663656 0.345138 -0.663656
vn -0.663656 0.345138 -0.663656
vn -0.663656 0.345138 -0.663656
vn -0.836256 0.345138 0.426093
vn -0.836256 0.345138 0.426093
vn -0.836256 0.345138 0.426093
vn 0.146822 0.345138 0.926997
vn 0.146822 0.345138 0.926997
vn 0.146822 0.345138 0.926997
vn 0.926997 0.345138 0.146822
vn 0.926997 0.345138 0.146822
vn 0.926997 0.345138 0.146822
s off
g pCylinder7
usemtl initialShadingGroup
f 49/128/185 50/129/186 53/133/187 52/132/188
f 50/129/189 51/130/190 54/134/191 53/133/192
f 51/130/193 49/131/194 52/135/195 54/134/196
s 1
f 50/126/197 49/125/198 55/139/199
f 51/127/200 50/126/197 55/139/199
f 49/125/198 51/127/200 55/139/199
s 2
f 52/137/201 53/136/202 56/140/203
f 53/136/202 54/138/204 56/140/203
f 54/138/204 52/137/201 56/140/203
s off
f 57/141/205 61/142/206 60/143/207 59/144/208 58/145/209
f 57/146/210 58/147/211 62/148/212
f 58/147/213 59/149/214 62/148/215
f 59/149/216 60/150/217 62/148/218
f 60/150/219 61/151/220 62/148/221
f 61/151/222 57/152/223 62/148/224
f 63/153/225 67/154/226 66/155/227 65/156/228 64/157/229
f 63/158/230 64/159/231 68/160/232
f 64/159/233 65/161/234 68/160/235
f 65/161/236 66/162/237 68/160/238
f 66/162/239 67/163/240 68/160/241
f 67/163/242 63/164/243 68/160/244
g default
v -0.005000 0.099747 0.096897
v -0.005000 0.099747 0.114218
v 0.010000 0.099747 0.105557
v -0.005000 0.200253 0.096897
v -0.005000 0.200253 0.114218
v 0.010000 0.200253 0.105557
v 0.000000 0.099747 0.105557
v 0.000000 0.200253 0.105557
v 0.015451 0.183932 0.058004
v -0.040451 0.183932 0.076168
v -0.040451 0.183932 0.134947
v 0.015451 0.183932 0.153110
v 0.050000 0.183932 0.105557
v 0.000000 0.383932 0.105557
vt 0.421875 0.020934
vt 0.421875 0.291566
vt 0.656250 0.156250
vt 0.375000 0.312500
vt 0.458333 0.312500
vt 0.541667 0.312500
vt 0.625000 0.312500
vt 0.375000 0.688440
vt 0.458333 0.688440
vt 0.541667 0.688440
vt 0.625000 0.688440
vt 0.421875 0.708434
vt 0.421875 0.979066
vt 0.656250 0.843750
vt 0.500000 0.150000
vt 0.500000 0.837500
vt 0.577254 0.012236
vt 0.750000 0.250000
vt 0.577254 0.487764
vt 0.297746 0.396946
vt 0.297746 0.103054
vt 0.250000 0.500000
vt 0.350000 0.500000
vt 0.500000 1.000000
vt 0.450000 0.500000
vt 0.550000 0.500000
vt 0.650000 0.500000
vt 0.750000 0.500000
vn -1.000000 0.000000 -0.000000
vn -1.000000 0.000000 -0.000000
vn -1.000000 0.000000 -0.000000
vn -1.000000 0.000000 -0.000000
vn 0.500000 0.000000 0.866025
vn 0.500000 0.000000 0.866025
vn 0.500000 0.000000 0.866025
vn 0.500000 0.000000 0.866025
vn 0.500000 0.000000 -0.866025
vn 0.500000 0.000000 -0.866025
vn 0.500000 0.000000 -0.866025
vn 0.500000 0.000000 -0.866025
vn 0.000000 -1.000000 0.000001
vn 0.000000 -1.000000 0.000000
vn 0.000000 -1.000000 0.000001
vn 0.000000 -1.000000 0.000001
vn 0.000000 1.000000 -0.000001
vn 0.000000 1.000000 -0.000001
vn 0.000000 1.000000 -0.000003
vn 0.000000 1.000000 -0.000005
vn 0.000000 -1.000000 -0.000000
vn 0.000000 -1.000000 -0.000000
vn 0.000000 -1.000000 -0.000000
vn 0.000000 -1.000000 -0.000000
vn 0.000000 -1.000000 -0.000000
vn -0.302884 0.198240 -0.932181
vn -0.302884 0.198240 -0.932181
vn -0.302884 0.198240 -0.932181
vn -0.980154 0.198240 0.000000
vn -0.980154 0.198240 0.000000
vn -0.980154 0.198240 0.000000
vn -0.302884 0.198240 0.932181
vn -0.302884 0.198240 0.932181
vn -0.302884 0.198240 0.932181
vn 0.792961 0.198240 0.576120
vn 0.792961 0.198240 0.576120
vn 0.792961 0.198240 0.576120
vn 0.792961 0.198240 -0.576120
vn 0.792961 0.198240 -0.576120
vn 0.792961 0.198240 -0.576120
s off
g pCylinder8
usemtl initialShadingGroup
f 69/168/245 70/169/246 73/173/247 72/172/248
f 70/169/249 71/170/250 74/174/251 73/173/252
f 71/170/253 69/171/254 72/175/255 74/174/256
s 1
f 70/166/257 69/165/258 75/179/259
f 71/167/260 70/166/257 75/179/259
f 69/165/258 71/167/260 75/179/259
s 2
f 72/177/261 73/176/262 76/180/263
f 73/176/262 74/178/264 76/180/263
f 74/178/264 72/177/261 76/180/263
s off
f 77/181/265 81/182/266 80/183/267 79/184/268 78/185/269
f 77/186/270 78/187/271 82/188/272
f 78/187/273 79/189/274 82/188/275
f 79/189/276 80/190/277 82/188/278
f 80/190/279 81/191/280 82/188/281
f 81/191/282 77/192/283 82/188/284
g default
v -0.116863 0.100293 -0.103550
v -0.116863 0.100293 -0.086229
v -0.101863 0.100293 -0.094889
v -0.116863 0.199707 -0.103550
v -0.116863 0.199707 -0.086229
v -0.101863 0.199707 -0.094889
v -0.111863 0.100293 -0.094889
v -0.111863 0.199707 -0.094889
v -0.096412 0.153020 -0.142442
v -0.152313 0.153020 -0.124279
v -0.152313 0.153020 -0.065500
v -0.096412 0.153020 -0.047337
v -0.061863 0.153020 -0.094889
v -0.111863 0.303020 -0.094889
v -0.119285 0.251690 -0.129377
v -0.146761 0.251690 -0.098704
v -0.126008 0.251690 -0.062759
v -0.085707 0.251690 -0.071217
v -0.081552 0.251690 -0.112389
v -0.111863 0.371690 -0.094889
vt 0.421875 0.020934
vt 0.421875 0.291566
vt 0.656250 0.156250
vt 0.375000 0.312500
vt 0.458333 0.312500
vt 0.541667 0.312500
vt 0.625000 0.312500
vt 0.375000 0.688440
vt 0.458333 0.688440
vt 0.541667 0.688440
vt 0.625000 0.688440
vt 0.421875 0.708434
vt 0.421875 0.979066
vt 0.656250 0.843750
vt 0.500000 0.150000
vt 0.500000 0.837500
vt 0.577254 0.012236
vt 0.750000 0.250000
vt 0.577254 0.487764
vt 0.297746 0.396946
vt 0.297746 0.103054
vt 0.250000 0.500000
vt 0.350000 0.500000
vt 0.500000 1.000000
vt 0.450000 0.500000
vt 0.550000 0.500000
vt 0.650000 0.500000
vt 0.750000 0.500000
vt 0.577254 0.012236
vt 0.750000 0.250000
vt 0.577254 0.487764
vt 0.297746 0.396946
vt 0.297746 0.103054
vt 0.250000 0.500000
vt 0.350000 0.500000
vt 0.500000 1.000000
vt 0.450000 0.500000
vt 0.550000 0.500000
vt 0.650000 0.500000
vt 0.750000 0.500000
vn -1.000000 0.000000 0.000000
vn -1.000000 0.000000 0.000000
vn -1.000000 0.000000 0.000000
vn -1.000000 0.000000 0.000000
vn 0.500000 0.000000 0.866025
vn 0.500000 0.000000 0.866025
vn 0.500000 0.000000 0.866025
vn 0.500000 0.000000 0.866025
vn 0.500000 0.000000 -0.866025
vn 0.500000 0.000000 -0.866025
vn 0.500000 0.000000 -0.866025
vn 0.500000 0.000000 -0.866025
vn 0.000000 -1.000000 0.000000
vn 0.000000 -1.000000 0.000000
vn 0.000000 -1.000000 0.000000
vn 0.000000 -1.000000 0.000000
vn 0.000000 1.000000 0.000000
vn 0.000000 1.000000 -0.000001
vn 0.000000 1.000000 -0.000001
vn 0.000000 1.000000 -0.000001
vn 0.000000 -1.000000 0.000000
vn 0.000000 -1.000000 0.000000
vn 0.000000 -1.000000 0.000000
vn 0.000000 -1.000000 0.000000
vn 0.000000 -1.000000 0.000000
vn -0.298359 0.260371 -0.918253
vn -0.298359 0.260371 -0.918253
vn -0.298359 0.260371 -0.918253
vn -0.965509 0.260371 0.000000
vn -0.965509 0.260371 0.000000
vn -0.965509 0.260371 0.000000
vn -0.298359 0.260371 0.918253
vn -0.298359 0.260371 0.918253
vn -0.298359 0.260371 0.918253
vn 0.781113 0.260371 0.567512
vn 0.781113 0.260371 0.567512
vn 0.781113 0.260371 0.567512
vn 0.781113 0.260371 -0.567512
vn 0.781113 0.260371 -0.567512
vn 0.781113 0.260371 -0.567512
vn 0.000000 -1.000000 -0.000000
vn 0.000000 -1.000000 -0.000000
vn 0.000000 -1.000000 -0.000000
vn 0.000000 -1.000000 -0.000000
vn 0.000000 -1.000000 -0.000000
vn -0.724650 0.231375 -0.649113
vn -0.724650 0.231375 -0.649113
vn -0.724650 0.231375 -0.649113
vn -0.842878 0.229656 0.486636
vn -0.842878 0.229656 0.486636
vn -0.842878 0.229656 0.486636
vn 0.199824 0.231375 0.952122
vn 0.199824 0.231375 0.952122
vn 0.199824 0.231375 0.952122
vn 0.968199 0.230308 0.097713
vn 0.968200 0.230308 0.097713
vn 0.968199 0.230308 0.097713
vn 0.399478 0.230308 -0.887342
vn 0.399478 0.230309 -0.887342
vn 0.399478 0.230309 -0.887342
s off
g pCylinder9
usemtl initialShadingGroup
f 83/196/285 84/197/286 87/201/287 86/200/288
f 84/197/289 85/198/290 88/202/291 87/201/292
f 85/198/293 83/199/294 86/203/295 88/202/296
s 1
f 84/194/297 83/193/298 89/207/299
f 85/195/300 84/194/297 89/207/299
f 83/193/298 85/195/300 89/207/299
s 2
f 86/205/301 87/204/302 90/208/303
f 87/204/302 88/206/304 90/208/303
f 88/206/304 86/205/301 90/208/303
s off
f 91/209/305 95/210/306 94/211/307 93/212/308 92/213/309
f 91/214/310 92/215/311 96/216/312
f 92/215/313 93/217/314 96/216/315
f 93/217/316 94/218/317 96/216/318
f 94/218/319 95/219/320 96/216/321
f 95/219/322 91/220/323 96/216/324
f 97/221/325 101/222/326 100/223/327 99/224/328 98/225/329
f 97/226/330 98/227/331 102/228/332
f 98/227/333 99/229/334 102/228/335
f 99/229/336 100/230/337 102/228/338
f 100/230/339 101/231/340 102/228/341
f 101/231/342 97/232/343 102/228/344
