# This file uses centimeters as units for non-parametric coordinates.

mtllib puzzlePiece_oneBend_NE.mtl
g default
v 0.250000 0.000000 -0.250000
v -0.250000 0.000000 -0.250000
v 0.250000 0.100000 -0.250000
v -0.250000 0.100000 -0.250000
v 0.250000 0.100000 0.250000
v -0.250000 0.100000 0.250000
v 0.250000 0.000000 0.250000
v -0.250000 0.000000 0.250000
v -0.025000 0.000000 -0.250000
v -0.025000 0.100000 -0.250000
v -0.025000 0.100000 0.250000
v -0.025000 0.000000 0.250000
v 0.025000 0.000000 -0.250000
v 0.025000 0.100000 -0.250000
v 0.025000 0.100000 0.250000
v 0.025000 0.000000 0.250000
v 0.250000 0.100000 0.025000
v -0.250000 0.100000 0.024215
v 0.250000 0.000000 0.025000
v -0.250000 0.000000 0.024215
v -0.025000 0.100000 0.024568
v -0.025000 0.000000 0.024568
v 0.025000 0.100000 0.024647
v 0.025000 0.000000 0.024647
v 0.250000 0.100000 -0.025000
v -0.250000 0.100000 -0.025785
v -0.025000 0.100000 -0.025432
v 0.025000 0.100000 -0.025353
v 0.250000 0.000000 -0.025000
v -0.250000 0.000000 -0.025785
v -0.025000 0.000000 -0.025432
v 0.025000 0.000000 -0.025353
v 0.250000 0.025000 -0.250000
v -0.250000 0.025000 -0.250000
v 0.250000 0.025000 0.250000
v -0.250000 0.025000 0.250000
v -0.025000 0.025000 -0.250000
v -0.025000 0.025000 0.250000
v 0.025000 0.025000 -0.250000
v 0.025000 0.025000 0.250000
v -0.250000 0.025000 0.024215
v 0.250000 0.025000 0.025000
v -0.250000 0.025000 -0.025785
v 0.250000 0.025000 -0.025000
v 0.025000 0.025000 -0.025865
v -0.025000 0.025000 -0.025865
v 0.025000 0.025000 0.024185
v -0.025000 0.025000 0.024185
vt 0.750061 0.462363
vt 0.750061 0.257738
vt 0.772797 0.257738
vt 0.772797 0.462363
vt 0.011681 0.011516
vt 0.216306 0.011516
vt 0.216306 0.215820
vt 0.011681 0.216141
vt 0.535788 0.462363
vt 0.535788 0.257738
vt 0.603996 0.257738
vt 0.603996 0.462363
vt 0.064021 0.538054
vt 0.268646 0.538054
vt 0.268646 0.743000
vt 0.064021 0.742679
vt 0.642924 0.462363
vt 0.642924 0.258452
vt 0.665661 0.258452
vt 0.665661 0.462363
vt 0.859136 0.462363
vt 0.859136 0.257738
vt 0.881872 0.257738
vt 0.881872 0.462363
vt 0.841006 0.212266
vt 0.772797 0.212266
vt 0.772797 0.007640
vt 0.841006 0.007640
vt 0.261779 0.466239
vt 0.261779 0.261221
vt 0.466404 0.260899
vt 0.466404 0.466239
vt 0.626732 0.212266
vt 0.603996 0.212266
vt 0.603996 0.007640
vt 0.626732 0.007640
vt 0.206224 0.951617
vt 0.001992 0.951617
vt 0.002313 0.746992
vt 0.206224 0.746992
vt 0.841006 0.257738
vt 0.216306 0.466239
vt 0.216306 0.261292
vt 0.011681 0.261613
vt 0.011681 0.466239
vt 0.733869 0.212980
vt 0.665661 0.212980
vt 0.665661 0.007640
vt 0.733869 0.007640
vt 0.950080 0.257738
vt 0.881872 0.212266
vt 0.950080 0.212266
vt 0.261779 0.215748
vt 0.466404 0.215427
vt 0.479407 0.743393
vt 0.274782 0.743072
vt 0.274782 0.538054
vt 0.479407 0.538054
vt 0.733869 0.258452
vt 0.212674 0.747385
vt 0.417299 0.747706
vt 0.417299 0.952010
vt 0.212674 0.952010
vt 0.881872 0.007640
vt 0.950080 0.007640
vt 0.261779 0.011516
vt 0.466404 0.011516
vt 0.841006 0.462363
vt 0.626732 0.257738
vt 0.626732 0.462363
vt 0.733869 0.462363
vt 0.950080 0.462363
vt 0.750061 0.212266
vt 0.750061 0.007640
vt 0.535788 0.212266
vt 0.535788 0.007640
vt 0.642924 0.212980
vt 0.642924 0.007640
vt 0.859136 0.212266
vt 0.859136 0.007640
vt 0.793383 0.992777
vt 0.747910 0.992777
vt 0.747910 0.788938
vt 0.793383 0.788938
vt 0.747910 0.743420
vt 0.793383 0.743420
vt 0.747910 0.538054
vt 0.793383 0.538054
vt 0.543285 0.788151
vt 0.543285 0.742679
vt 0.998008 0.743393
vt 0.998008 0.788866
vt 0.057886 0.538054
vt 0.057886 0.742679
vt 0.035150 0.742679
vt 0.035150 0.538054
vt 0.512812 0.951644
vt 0.512812 0.747411
vt 0.535549 0.747411
vt 0.535549 0.951250
vt 0.483578 0.951715
vt 0.483578 0.747411
vt 0.506314 0.747876
vt 0.506314 0.951715
vt 0.029015 0.538054
vt 0.029015 0.742679
vt 0.006278 0.742679
vt 0.006278 0.538054
vt 0.514414 0.743000
vt 0.514414 0.538054
vt 0.537150 0.538054
vt 0.537150 0.743420
vt 0.485542 0.743420
vt 0.485542 0.538402
vt 0.508278 0.538054
vt 0.508278 0.743420
vt 0.425110 0.952010
vt 0.425110 0.747385
vt 0.447846 0.747385
vt 0.447846 0.952010
vt 0.454344 0.952010
vt 0.454344 0.747385
vt 0.477080 0.747385
vt 0.477080 0.952010
vn 0.000000 0.000000 -1.000000
vn 0.000000 0.000000 -1.000000
vn 0.000000 0.000000 -1.000000
vn 0.000000 0.000000 -1.000000
vn 0.000000 1.000000 -0.000000
vn 0.000000 1.000000 -0.000000
vn 0.000000 1.000000 -0.000000
vn 0.000000 1.000000 0.000000
vn -0.000000 0.000000 1.000000
vn -0.000000 0.000000 1.000000
vn -0.000000 0.000000 1.000000
vn -0.000000 0.000000 1.000000
vn 0.000000 -1.000000 0.000000
vn 0.000000 -1.000000 0.000000
vn 0.000000 -1.000000 0.000000
vn 0.000000 -1.000000 0.000000
vn -1.000000 0.000000 -0.000000
vn -1.000000 0.000000 -0.000000
vn -1.000000 0.000000 -0.000000
vn -1.000000 0.000000 -0.000000
vn 1.000000 0.000000 0.000000
vn 1.000000 0.000000 0.000000
vn 1.000000 0.000000 0.000000
vn 1.000000 0.000000 0.000000
vn 0.000000 0.000000 -1.000000
vn 0.000000 0.000000 -1.000000
vn 0.000000 0.000000 -1.000000
vn 0.000000 0.000000 -1.000000
vn 0.000000 1.000000 0.000000
vn -0.000000 1.000000 0.000000
vn -0.000000 1.000000 0.000000
vn 0.000000 1.000000 0.000000
vn -0.000000 0.000000 1.000000
vn -0.000000 0.000000 1.000000
vn -0.000000 0.000000 1.000000
vn -0.000000 0.000000 1.000000
vn 0.000000 -1.000000 0.000000
vn 0.000000 -1.000000 0.000000
vn 0.000000 -1.000000 0.000000
vn 0.000000 -1.000000 0.000000
vn 0.000000 0.000000 -1.000000
vn 0.000000 1.000000 0.000000
vn 0.000000 1.000000 0.000000
vn 0.000000 1.000000 0.000000
vn 0.000000 1.000000 0.000000
vn -1.000000 0.000000 -0.000000
vn -1.000000 0.000000 -0.000000
vn -1.000000 0.000000 -0.000000
vn -1.000000 0.000000 -0.000000
vn 1.000000 0.000000 0.000000
vn 1.000000 0.000000 0.000000
vn 1.000000 0.000000 0.000000
vn -0.000000 1.000000 0.000000
vn -0.000000 1.000000 -0.000000
vn 0.000000 -1.000000 0.000000
vn 0.000000 -1.000000 0.000000
vn 0.000000 -1.000000 0.000000
vn 0.000000 -1.000000 0.000000
vn -1.000000 0.000000 -0.000000
vn 0.000000 -1.000000 0.000000
vn 0.000000 -1.000000 0.000000
vn 0.000000 -1.000000 0.000000
vn 0.000000 -1.000000 0.000000
vn 1.000000 0.000000 0.000000
vn 1.000000 0.000000 0.000000
vn -0.000000 1.000000 -0.000000
vn -0.000000 1.000000 -0.000000
vn 0.000000 0.000000 -1.000000
vn -0.000000 0.000000 1.000000
vn -0.000000 0.000000 1.000000
vn -1.000000 0.000000 -0.000000
vn 1.000000 0.000000 0.000000
vn 0.000000 0.000000 -1.000000
vn 0.000000 0.000000 -1.000000
vn -0.000000 0.000000 1.000000
vn -0.000000 0.000000 1.000000
vn -1.000000 0.000000 -0.000000
vn -1.000000 0.000000 -0.000000
vn 1.000000 0.000000 0.000000
vn 1.000000 0.000000 0.000000
vn 0.000000 -1.000000 0.000000
vn 0.000000 -1.000000 0.000000
vn 0.000000 -1.000000 0.000000
vn 0.000000 -1.000000 0.000000
vn 0.000000 -1.000000 0.000000
vn 0.000000 -1.000000 0.000000
vn 0.000000 -1.000000 0.000000
vn 0.000000 -1.000000 0.000000
vn 0.000000 -1.000000 0.000000
vn 0.000000 -1.000000 0.000000
vn 0.000000 -1.000000 0.000000
vn 0.000000 -1.000000 0.000000
vn -0.000609 0.008652 0.999962
vn -0.000609 0.008652 0.999962
vn -0.000609 0.008652 0.999962
vn -0.000609 0.008652 0.999962
vn 1.000000 0.000000 0.000000
vn 1.000000 0.000000 0.000000
vn 1.000000 0.000000 0.000000
vn 1.000000 0.000000 0.000000
vn -1.000000 0.000000 -0.000000
vn -1.000000 0.000000 -0.000000
vn -1.000000 0.000000 -0.000000
vn -1.000000 0.000000 -0.000000
vn -0.002707 0.010223 0.999944
vn -0.002707 0.010223 0.999944
vn -0.002707 0.010223 0.999944
vn -0.002707 0.010223 0.999944
vn -1.000000 -0.000000 -0.000000
vn -1.000000 -0.000000 -0.000000
vn -1.000000 -0.000000 -0.000000
vn -1.000000 -0.000000 -0.000000
vn 1.000000 0.000000 0.000000
vn 1.000000 0.000000 0.000000
vn 1.000000 0.000000 0.000000
vn 1.000000 0.000000 0.000000
vn 0.002596 -0.009229 -0.999954
vn 0.002596 -0.009229 -0.999954
vn 0.002596 -0.009229 -0.999954
vn 0.002596 -0.009229 -0.999954
vn 0.000720 -0.007659 -0.999970
vn 0.000720 -0.007659 -0.999970
vn 0.000720 -0.007659 -0.999970
vn 0.000720 -0.007659 -0.999970
s 1
g polySurface5 polySurface1
usemtl initialShadingGroup
f 1/1/1 13/2/2 39/3/3 33/4/4
s 2
f 3/5/5 14/6/6 28/7/7 25/8/8
s 3
f 5/9/9 15/10/10 40/11/11 35/12/12
s off
f 7/13/13 16/14/14 24/15/15 19/16/16
s 4
f 2/17/17 30/18/18 43/19/19 34/20/20
s 5
f 7/21/21 19/22/22 42/23/23 35/24/24
s 1
f 10/25/25 37/26/26 34/27/27 4/28/28
s 2
f 11/29/29 21/30/30 18/31/31 6/32/32
s 3
f 12/33/33 38/34/34 36/35/35 8/36/36
s off
f 9/37/37 31/38/38 30/39/39 2/40/40
s 1
f 14/41/41 39/3/3 37/26/26 10/25/25
s 2
f 15/42/42 23/43/43 21/30/30 11/29/29
f 17/44/44 23/43/43 15/42/42 5/45/45
s 4
f 18/46/46 41/47/47 36/48/48 6/49/49
s 5
f 17/50/50 42/23/23 44/51/51 25/52/52
s 2
f 18/31/31 21/30/30 27/53/53 26/54/54
s off
f 20/55/55 22/56/56 12/57/57 8/58/58
s 2
f 21/30/30 23/43/43 28/7/7 27/53/53
f 25/8/8 28/7/7 23/43/43 17/44/44
s 4
f 26/59/59 43/19/19 41/47/47 18/46/46
s off
f 29/60/60 32/61/61 13/62/62 1/63/63
s 5
f 25/52/52 44/51/51 33/64/64 3/65/65
s 2
f 26/54/54 27/53/53 10/66/66 4/67/67
f 27/53/53 28/7/7 14/6/6 10/66/66
s 1
f 33/4/4 39/3/3 14/41/41 3/68/68
s 3
f 35/12/12 40/11/11 16/69/69 7/70/70
s 4
f 34/20/20 43/19/19 26/59/59 4/71/71
s 5
f 35/24/24 42/23/23 17/50/50 5/72/72
s 1
f 34/27/27 37/26/26 9/73/73 2/74/74
s 3
f 36/35/35 38/34/34 11/75/75 6/76/76
f 38/34/34 40/11/11 15/10/10 11/75/75
s 4
f 36/48/48 41/47/47 20/77/77 8/78/78
s 5
f 33/64/64 44/51/51 29/79/79 1/80/80
s 10
f 37/81/81 39/82/82 45/83/83 46/84/84
f 46/84/84 45/83/83 47/85/85 48/86/86
f 48/86/86 47/85/85 40/87/87 38/88/88
f 44/89/89 42/90/90 47/85/85 45/83/83
f 41/91/91 43/92/92 46/84/84 48/86/86
s off
f 30/93/93 31/94/94 46/95/95 43/96/96
f 31/97/97 9/98/98 37/99/99 46/100/100
f 13/101/101 32/102/102 45/103/103 39/104/104
f 32/105/105 29/106/106 44/107/107 45/108/108
f 24/109/109 16/110/110 40/111/111 47/112/112
f 12/113/113 22/114/114 48/115/115 38/116/116
f 19/117/117 24/118/118 47/119/119 42/120/120
f 22/121/121 20/122/122 41/123/123 48/124/124
g default
v 0.250000 0.098000 0.090000
v -0.090000 0.098000 -0.250000
v 0.009584 0.102000 -0.009584
v 0.250000 0.102000 0.090000
v -0.090000 0.102000 -0.250000
v 0.250000 0.098000 -0.063188
v 0.063188 0.098000 -0.250000
v 0.117904 0.102000 -0.117904
v 0.250000 0.102000 -0.063188
v 0.063188 0.102000 -0.250000
vt 0.705819 0.281827
vt 1.000000 0.973262
vt 0.556171 0.976780
vt 0.394535 0.596874
vt 0.006923 0.000000
vt 0.010529 0.442025
vt 0.000000 0.627577
vt 0.122216 0.627577
vt 0.122216 1.000000
vt 0.000000 1.000000
vt 0.126155 0.627577
vt 0.248371 0.627577
vt 0.248371 1.000000
vt 0.126155 1.000000
vn 0.000000 1.000000 0.000000
vn 0.000000 1.000000 0.000000
vn 0.000000 1.000000 0.000000
vn 0.000000 1.000000 0.000000
vn 0.000000 1.000000 0.000000
vn 0.000000 1.000000 0.000000
vn 1.000000 0.000000 0.000000
vn 1.000000 0.000000 0.000000
vn 1.000000 0.000000 0.000000
vn 1.000000 0.000000 0.000000
vn -0.000000 0.000000 -1.000000
vn -0.000000 0.000000 -1.000000
vn -0.000000 0.000000 -1.000000
vn -0.000000 0.000000 -1.000000
s 1
g polySurface1 polySurface6
usemtl lambert2SG
f 51/125/125 52/126/126 57/127/127 56/128/128
f 53/129/129 51/125/125 56/128/128 58/130/130
s off
f 49/131/131 54/132/132 57/133/133 52/134/134
f 55/135/135 50/136/136 53/137/137 58/138/138
g default
v 0.065224 0.093000 -0.173463
v 0.108579 0.093000 -0.108579
v 0.173463 0.093000 -0.065224
v 0.250000 0.093000 -0.050000
v 0.050000 0.093000 -0.250000
v 0.065224 0.107000 -0.173463
v 0.108579 0.107000 -0.108579
v 0.173463 0.107000 -0.065224
v 0.250000 0.107000 -0.050000
v 0.050000 0.107000 -0.250000
v 0.112027 0.093000 -0.192850
v 0.144400 0.093000 -0.144400
v 0.192850 0.093000 -0.112027
v 0.250000 0.093000 -0.100659
v 0.100659 0.093000 -0.250000
v 0.112027 0.107000 -0.192850
v 0.144400 0.107000 -0.144400
v 0.192850 0.107000 -0.112027
v 0.250000 0.107000 -0.100659
v 0.100659 0.107000 -0.250000
v -0.073358 0.093000 -0.116061
v 0.002513 0.093000 -0.002513
v 0.116061 0.093000 0.073358
v 0.250000 0.093000 0.100000
v -0.100000 0.093000 -0.250000
v -0.073358 0.107000 -0.116061
v 0.002513 0.107000 -0.002513
v 0.116061 0.107000 0.073358
v 0.250000 0.107000 0.100000
v -0.100000 0.107000 -0.250000
v -0.027064 0.093000 -0.135237
v 0.037945 0.093000 -0.037945
v 0.135236 0.093000 0.027063
v 0.250000 0.093000 0.049891
v -0.049891 0.093000 -0.250000
v -0.027064 0.107000 -0.135237
v 0.037945 0.107000 -0.037945
v 0.135236 0.107000 0.027063
v 0.250000 0.107000 0.049891
v -0.049891 0.107000 -0.250000
vt 0.363281 0.993282
vt 0.241956 0.993282
vt 0.241956 0.444033
vt 0.363281 0.444033
vt 0.124465 0.993281
vt 0.124465 0.444032
vt 0.007360 0.993281
vt 0.007360 0.444032
vt 0.367823 0.441683
vt 0.493422 0.441683
vt 0.493422 0.990932
vt 0.367823 0.990932
vt 0.619353 0.113465
vt 0.714510 0.188609
vt 0.654614 0.239679
vt 0.583560 0.183569
vt 0.773667 0.294448
vt 0.698787 0.318709
vt 0.787818 0.414869
vt 0.709354 0.408628
vt 0.502683 0.080456
vt 0.496442 0.158921
vt 0.004652 0.007517
vt 0.095580 0.007517
vt 0.095580 0.437025
vt 0.004652 0.437025
vt 0.727746 0.459655
vt 0.820438 0.459655
vt 0.820438 0.988847
vt 0.727746 0.988847
vt 0.636371 0.459656
vt 0.636371 0.988848
vt 0.542810 0.459656
vt 0.542810 0.988848
vt 0.886163 0.459655
vt 0.983253 0.459655
vt 0.983253 0.988847
vt 0.886163 0.988847
vt 0.166455 0.004860
vt 0.258304 0.004860
vt 0.258304 0.434369
vt 0.166455 0.434369
vt 0.863511 0.991221
vt 0.743169 0.991221
vt 0.743169 0.458895
vt 0.863511 0.458895
vt 0.620239 0.991221
vt 0.620239 0.458895
vt 0.498239 0.991221
vt 0.498239 0.458895
vt 0.868703 0.458895
vt 0.992995 0.458895
vt 0.992995 0.991221
vt 0.868703 0.991221
vt 0.776495 0.084991
vt 0.852334 0.180513
vt 0.812530 0.200967
vt 0.747548 0.119121
vt 0.885846 0.297786
vt 0.841244 0.301451
vt 0.871929 0.418956
vt 0.829319 0.405274
vt 0.669874 0.025762
vt 0.656192 0.068372
vt 0.105138 0.006550
vt 0.157364 0.006550
vt 0.157364 0.436381
vt 0.105138 0.436381
vt 0.232187 0.444269
vt 0.333325 0.444269
vt 0.333325 0.991866
vt 0.232187 0.991866
vt 0.129727 0.444269
vt 0.129727 0.991866
vt 0.026217 0.444269
vt 0.026217 0.991866
vt 0.377262 0.442267
vt 0.481672 0.442267
vt 0.481672 0.989864
vt 0.377262 0.989864
vt 0.269680 0.008770
vt 0.322060 0.008770
vt 0.322060 0.434162
vt 0.269680 0.434162
vn -0.923880 0.000000 0.382683
vn -0.707107 0.000000 0.707107
vn -0.707107 0.000000 0.707107
vn -0.923880 0.000000 0.382683
vn -0.382684 0.000000 0.923879
vn -0.382684 0.000000 0.923879
vn -0.195091 0.000000 0.980785
vn -0.195091 0.000000 0.980785
vn -0.980785 0.000000 0.195090
vn -0.980785 0.000000 0.195090
vn -0.000000 1.000000 -0.000000
vn -0.000000 1.000000 -0.000000
vn -0.000000 1.000000 -0.000000
vn -0.000000 1.000000 -0.000000
vn -0.000000 1.000000 -0.000000
vn -0.000000 1.000000 -0.000000
vn 0.000000 1.000000 -0.000000
vn 0.000000 1.000000 -0.000000
vn 0.000000 1.000000 0.000000
vn 0.000000 1.000000 0.000000
vn 0.000000 0.000001 -1.000000
vn 0.000000 0.000001 -1.000000
vn 0.000000 0.000001 -1.000000
vn 0.000000 0.000001 -1.000000
vn 0.980785 0.000001 -0.195090
vn 0.980785 0.000001 -0.195090
vn 0.980785 0.000001 -0.195090
vn 0.980785 0.000001 -0.195090
vn 0.831470 0.000000 -0.555569
vn 0.831470 0.000000 -0.555569
vn 0.831470 0.000000 -0.555569
vn 0.831470 0.000000 -0.555569
vn 0.555570 0.000000 -0.831470
vn 0.555570 0.000000 -0.831470
vn 0.555570 0.000000 -0.831470
vn 0.555570 0.000000 -0.831470
vn 0.195091 0.000000 -0.980785
vn 0.195091 0.000000 -0.980785
vn 0.195091 0.000000 -0.980785
vn 0.195091 0.000000 -0.980785
vn 1.000000 0.000000 0.000000
vn 1.000000 0.000000 0.000000
vn 1.000000 0.000000 0.000000
vn 1.000000 0.000000 0.000000
vn -0.923880 0.000000 0.382683
vn -0.707107 0.000000 0.707107
vn -0.707107 0.000000 0.707107
vn -0.923880 0.000000 0.382683
vn -0.382684 0.000000 0.923879
vn -0.382684 0.000000 0.923879
vn -0.195091 0.000000 0.980785
vn -0.195091 0.000000 0.980785
vn -0.980785 0.000000 0.195090
vn -0.980785 0.000000 0.195090
vn 0.000000 1.000000 -0.000000
vn 0.000000 1.000000 -0.000000
vn 0.000000 1.000000 -0.000000
vn 0.000000 1.000000 -0.000000
vn 0.000000 1.000000 0.000000
vn 0.000000 1.000000 0.000000
vn 0.000000 1.000000 0.000000
vn 0.000000 1.000000 0.000000
vn 0.000000 1.000000 0.000000
vn 0.000000 1.000000 0.000000
vn 0.000000 0.000000 -1.000000
vn 0.000000 0.000000 -1.000000
vn 0.000000 0.000000 -1.000000
vn 0.000000 0.000000 -1.000000
vn 0.980785 0.000000 -0.195090
vn 0.980785 0.000000 -0.195090
vn 0.980785 0.000000 -0.195090
vn 0.980785 0.000000 -0.195090
vn 0.831470 0.000000 -0.555570
vn 0.831470 0.000000 -0.555570
vn 0.831470 0.000000 -0.555570
vn 0.831470 0.000000 -0.555570
vn 0.555571 0.000000 -0.831469
vn 0.555571 0.000000 -0.831469
vn 0.555571 0.000000 -0.831469
vn 0.555571 0.000000 -0.831469
vn 0.195091 0.000000 -0.980785
vn 0.195091 0.000000 -0.980785
vn 0.195091 0.000000 -0.980785
vn 0.195091 0.000000 -0.980785
vn 1.000000 0.000000 0.000001
vn 1.000000 0.000000 0.000001
vn 1.000000 0.000000 0.000001
vn 1.000000 0.000000 0.000001
s 1
g polySurface7
usemtl lambert3SG
f 59/139/139 60/140/140 65/141/141 64/142/142
f 60/140/140 61/143/143 66/144/144 65/141/141
f 61/143/143 62/145/145 67/146/146 66/144/144
f 63/147/147 59/148/139 64/149/142 68/150/148
s 2
f 64/151/149 65/152/150 75/153/151 74/154/152
f 65/152/150 66/155/153 76/156/154 75/153/151
f 66/155/153 67/157/155 77/158/156 76/156/154
f 68/159/157 64/151/149 74/154/152 78/160/158
s off
f 73/161/159 63/162/160 68/163/161 78/164/162
f 69/165/163 73/166/164 78/167/165 74/168/166
f 70/169/167 69/165/168 74/168/169 75/170/170
f 71/171/171 70/169/172 75/170/173 76/172/174
f 72/173/175 71/174/176 76/175/177 77/176/178
f 62/177/179 72/178/180 77/179/181 67/180/182
s 3
f 79/181/183 80/182/184 85/183/185 84/184/186
f 80/182/184 81/185/187 86/186/188 85/183/185
f 81/185/187 82/187/189 87/188/190 86/186/188
f 83/189/191 79/190/183 84/191/186 88/192/192
s 4
f 84/193/193 85/194/194 95/195/195 94/196/196
f 85/194/194 86/197/197 96/198/198 95/195/195
f 86/197/197 87/199/199 97/200/200 96/198/198
f 88/201/201 84/193/193 94/196/196 98/202/202
s off
f 93/203/203 83/204/204 88/205/205 98/206/206
f 89/207/207 93/208/208 98/209/209 94/210/210
f 90/211/211 89/207/212 94/210/213 95/212/214
f 91/213/215 90/211/216 95/212/217 96/214/218
f 92/215/219 91/216/220 96/217/221 97/218/222
f 82/219/223 92/220/224 97/221/225 87/222/226
