# This file uses centimeters as units for non-parametric coordinates.

mtllib puzzlePiece_crossing_NS_EW.mtl
g default
v 0.100000 0.107000 0.250000
v 0.050000 0.107000 0.250000
v 0.100000 0.093000 0.250000
v 0.050000 0.093000 0.250000
v 0.100000 0.093000 0.050000
v 0.050000 0.093000 0.050000
v 0.100000 0.107000 0.050000
v 0.050000 0.107000 0.050000
v 0.100000 0.093000 0.100000
v 0.050000 0.093000 0.100000
v 0.100000 0.107000 0.100000
v 0.050000 0.107000 0.100000
v 0.250000 0.093000 0.100000
v 0.250000 0.107000 0.100000
v 0.250000 0.093000 0.050000
v 0.250000 0.107000 0.050000
v -0.250000 0.107000 0.100000
v -0.250000 0.107000 0.050000
v -0.250000 0.093000 0.100000
v -0.250000 0.093000 0.050000
v -0.050000 0.093000 0.100000
v -0.050000 0.093000 0.050000
v -0.050000 0.107000 0.100000
v -0.050000 0.107000 0.050000
v -0.100000 0.093000 0.100000
v -0.100000 0.093000 0.050000
v -0.100000 0.107000 0.100000
v -0.100000 0.107000 0.050000
v -0.100000 0.093000 0.250000
v -0.100000 0.107000 0.250000
v -0.050000 0.093000 0.250000
v -0.050000 0.107000 0.250000
v -0.100000 0.107000 -0.250000
v -0.050000 0.107000 -0.250000
v -0.100000 0.093000 -0.250000
v -0.050000 0.093000 -0.250000
v -0.100000 0.093000 -0.050000
v -0.050000 0.093000 -0.050000
v -0.100000 0.107000 -0.050000
v -0.050000 0.107000 -0.050000
v -0.100000 0.093000 -0.100000
v -0.050000 0.093000 -0.100000
v -0.100000 0.107000 -0.100000
v -0.050000 0.107000 -0.100000
v -0.250000 0.093000 -0.100000
v -0.250000 0.107000 -0.100000
v -0.250000 0.093000 -0.050000
v -0.250000 0.107000 -0.050000
v 0.250000 0.107000 -0.100000
v 0.250000 0.107000 -0.050000
v 0.250000 0.093000 -0.100000
v 0.250000 0.093000 -0.050000
v 0.050000 0.093000 -0.100000
v 0.050000 0.093000 -0.050000
v 0.050000 0.107000 -0.100000
v 0.050000 0.107000 -0.050000
v 0.100000 0.093000 -0.100000
v 0.100000 0.093000 -0.050000
v 0.100000 0.107000 -0.100000
v 0.100000 0.107000 -0.050000
v 0.100000 0.093000 -0.250000
v 0.100000 0.107000 -0.250000
v 0.050000 0.093000 -0.250000
v 0.050000 0.107000 -0.250000
vt 0.385690 0.679554
vt 0.385690 0.769417
vt 0.360528 0.769417
vt 0.360528 0.679554
vt 0.016750 0.949142
vt 0.016750 0.679554
vt 0.041912 0.679554
vt 0.041912 0.949142
vt 0.568093 0.564407
vt 0.438344 0.564407
vt 0.438344 0.434658
vt 0.568093 0.434658
vt 0.438344 0.045413
vt 0.568093 0.045413
vt 0.957338 0.434658
vt 0.957338 0.564407
vt 0.194343 0.675791
vt 0.169181 0.675791
vt 0.169181 0.585928
vt 0.194343 0.585928
vt 0.169181 0.316340
vt 0.194343 0.316340
vt 0.208360 0.583897
vt 0.233521 0.583897
vt 0.233521 0.673760
vt 0.208360 0.673760
vt 0.208360 0.314309
vt 0.233521 0.314309
vt 0.416926 0.769417
vt 0.391764 0.769417
vt 0.391764 0.679554
vt 0.416926 0.679554
vt 0.135803 0.949142
vt 0.110641 0.949142
vt 0.110641 0.679554
vt 0.135803 0.679554
vt 0.448162 0.679554
vt 0.448162 0.769417
vt 0.423000 0.769417
vt 0.423000 0.679554
vt 0.048170 0.949142
vt 0.048170 0.679554
vt 0.073331 0.679554
vt 0.073331 0.949142
vt 0.568287 0.564675
vt 0.438539 0.564943
vt 0.438270 0.435195
vt 0.568018 0.434927
vt 0.437464 0.045951
vt 0.567212 0.045682
vt 0.957263 0.434121
vt 0.957531 0.563869
vt 0.288673 0.314309
vt 0.313835 0.314309
vt 0.313835 0.404171
vt 0.288673 0.404171
vt 0.313835 0.673759
vt 0.288673 0.673759
vt 0.163397 0.406203
vt 0.138236 0.406203
vt 0.138236 0.316340
vt 0.163397 0.316340
vt 0.163397 0.675791
vt 0.138236 0.675791
vt 0.354454 0.769417
vt 0.329292 0.769417
vt 0.329292 0.679554
vt 0.354454 0.679554
vt 0.167039 0.949142
vt 0.141877 0.949142
vt 0.141877 0.679554
vt 0.167039 0.679554
vt 0.266821 0.769417
vt 0.266821 0.679554
vt 0.291982 0.679554
vt 0.291982 0.769417
vt 0.079406 0.949142
vt 0.079406 0.679554
vt 0.104567 0.679554
vt 0.104567 0.949142
vt 0.570441 0.564123
vt 0.440692 0.564095
vt 0.440720 0.434346
vt 0.570469 0.434375
vt 0.440804 0.045101
vt 0.570553 0.045129
vt 0.959714 0.434459
vt 0.959686 0.564207
vt 0.278207 0.673666
vt 0.253046 0.673666
vt 0.253046 0.583804
vt 0.278207 0.583804
vt 0.253046 0.314216
vt 0.278207 0.314216
vt 0.132452 0.406203
vt 0.107290 0.406203
vt 0.107290 0.316340
vt 0.132452 0.316340
vt 0.132452 0.675791
vt 0.107290 0.675791
vt 0.479397 0.769417
vt 0.454236 0.769417
vt 0.454236 0.679554
vt 0.479397 0.679554
vt 0.173113 0.679554
vt 0.198275 0.679554
vt 0.198275 0.949142
vt 0.173113 0.949142
vt 0.510633 0.679554
vt 0.510633 0.769417
vt 0.485472 0.769417
vt 0.485472 0.679554
vt 0.229511 0.679554
vt 0.229511 0.949142
vt 0.204349 0.949142
vt 0.204349 0.679554
vt 0.565980 0.564273
vt 0.436231 0.564273
vt 0.436231 0.434524
vt 0.565980 0.434524
vt 0.436231 0.045279
vt 0.565980 0.045279
vt 0.955225 0.434524
vt 0.955225 0.564273
vt 0.101506 0.675791
vt 0.076344 0.675791
vt 0.076344 0.585928
vt 0.101506 0.585928
vt 0.076344 0.316340
vt 0.101506 0.316340
vt 0.070560 0.406203
vt 0.045399 0.406203
vt 0.045399 0.316340
vt 0.070560 0.316340
vt 0.070560 0.675791
vt 0.045399 0.675791
vt 0.298057 0.679554
vt 0.323218 0.679554
vt 0.323218 0.769417
vt 0.298057 0.769417
vt 0.260747 0.949142
vt 0.235585 0.949142
vt 0.235585 0.679554
vt 0.260747 0.679554
vn 0.000000 0.000000 1.000000
vn 0.000000 0.000000 1.000000
vn 0.000000 0.000000 1.000000
vn 0.000000 0.000000 1.000000
vn 1.000000 0.000000 0.000000
vn 1.000000 0.000000 0.000000
vn 1.000000 0.000000 0.000000
vn 1.000000 0.000000 0.000000
vn -0.000000 1.000000 0.000000
vn -0.000000 1.000000 0.000000
vn -0.000000 1.000000 0.000000
vn -0.000000 1.000000 0.000000
vn -1.000000 0.000000 0.000000
vn -1.000000 0.000000 0.000000
vn -1.000000 0.000001 0.000000
vn -1.000000 0.000001 -0.000000
vn -0.000000 0.000000 -1.000000
vn -0.000000 0.000000 -1.000000
vn -0.000001 0.000000 -1.000000
vn -0.000001 0.000000 -1.000000
vn 1.000000 0.000000 0.000000
vn 1.000000 0.000000 0.000000
vn 1.000000 0.000000 0.000000
vn 1.000000 0.000000 0.000000
vn -0.000000 1.000000 0.000000
vn -0.000000 1.000000 0.000000
vn -1.000000 0.000001 -0.000000
vn -1.000000 0.000001 -0.000000
vn 0.000000 0.000000 1.000000
vn 0.000000 0.000000 1.000000
vn 0.000000 0.000000 1.000000
vn 0.000000 0.000000 1.000000
vn 0.000000 0.000000 -1.000000
vn 0.000000 0.000000 -1.000000
vn 0.000000 1.000000 0.000000
vn 0.000000 1.000000 0.000000
vn -1.000000 0.000000 0.000000
vn -1.000000 0.000000 0.000000
vn -1.000000 0.000000 0.000000
vn -1.000000 0.000000 0.000000
vn -0.000000 0.000000 1.000000
vn -0.000000 0.000000 1.000000
vn -0.000000 0.000000 1.000000
vn -0.000000 0.000000 1.000000
vn 0.000000 1.000000 -0.000000
vn 0.000000 1.000000 -0.000000
vn -0.000000 1.000000 -0.000000
vn -0.000000 1.000000 -0.000000
vn -0.000000 0.000000 -1.000000
vn -0.000000 0.000000 -1.000000
vn 0.000000 0.000000 -1.000000
vn 0.000000 0.000000 -1.000000
vn 1.000000 0.000000 -0.000000
vn 1.000000 0.000000 -0.000000
vn 1.000000 0.000000 -0.000001
vn 1.000000 0.000000 -0.000001
vn 0.000000 0.000000 1.000000
vn 0.000000 0.000000 1.000000
vn 0.000000 0.000000 1.000000
vn 0.000000 0.000000 1.000000
vn -0.000000 1.000000 -0.000000
vn -0.000000 1.000000 -0.000000
vn 0.000000 0.000000 -1.000000
vn 0.000000 0.000000 -1.000000
vn -1.000000 0.000000 0.000000
vn -1.000000 0.000000 0.000000
vn -1.000000 0.000000 0.000000
vn -1.000000 0.000000 0.000000
vn 1.000000 0.000000 0.000000
vn 1.000000 0.000000 0.000000
vn 0.000000 1.000000 0.000000
vn 0.000000 1.000000 0.000000
vn 0.000000 0.000000 -1.000000
vn 0.000000 0.000000 -1.000000
vn 0.000000 0.000000 -1.000000
vn 0.000000 0.000000 -1.000000
vn -1.000000 0.000000 -0.000000
vn -1.000000 0.000000 -0.000000
vn -1.000000 0.000000 -0.000000
vn -1.000000 0.000000 -0.000000
vn 0.000000 1.000000 0.000000
vn 0.000000 1.000000 0.000000
vn 0.000000 1.000000 -0.000000
vn 0.000000 1.000000 -0.000000
vn 1.000000 0.000000 -0.000000
vn 1.000000 0.000000 -0.000000
vn 1.000000 0.000000 -0.000000
vn 1.000000 0.000000 0.000000
vn 0.000000 0.000000 1.000000
vn 0.000000 0.000000 1.000000
vn 0.000001 0.000000 1.000000
vn 0.000001 0.000000 1.000000
vn -1.000000 0.000000 0.000000
vn -1.000000 0.000000 0.000000
vn -1.000000 0.000000 0.000000
vn -1.000000 0.000000 0.000000
vn 0.000000 1.000000 -0.000000
vn 0.000000 1.000000 -0.000000
vn 1.000000 0.000000 0.000000
vn 1.000000 0.000000 0.000000
vn 0.000000 0.000000 -1.000000
vn 0.000000 0.000000 -1.000000
vn 0.000000 0.000000 -1.000000
vn 0.000000 0.000000 -1.000000
vn 0.000000 0.000000 1.000000
vn 0.000000 0.000000 1.000000
vn 0.000000 1.000000 0.000000
vn 0.000000 1.000000 0.000000
vn 1.000000 0.000000 0.000000
vn 1.000000 0.000000 0.000000
vn 1.000000 0.000000 0.000000
vn 1.000000 0.000000 0.000000
vn 0.000000 0.000000 -1.000000
vn 0.000000 0.000000 -1.000000
vn 0.000000 0.000000 -1.000000
vn 0.000000 0.000000 -1.000000
vn 0.000000 1.000000 0.000000
vn 0.000000 1.000000 0.000000
vn 0.000000 1.000000 0.000000
vn 0.000000 1.000000 0.000000
vn 0.000000 0.000000 1.000000
vn 0.000000 0.000000 1.000000
vn -0.000000 0.000000 1.000000
vn -0.000000 0.000000 1.000000
vn -1.000000 0.000000 0.000000
vn -1.000000 0.000000 0.000000
vn -1.000000 0.000000 0.000001
vn -1.000000 0.000000 0.000001
vn 0.000000 0.000000 -1.000000
vn 0.000000 0.000000 -1.000000
vn 0.000000 0.000000 -1.000000
vn 0.000000 0.000000 -1.000000
vn 0.000000 1.000000 0.000000
vn 0.000000 1.000000 0.000000
vn -0.000000 0.000000 1.000000
vn -0.000000 0.000000 1.000000
vn 1.000000 0.000000 0.000000
vn 1.000000 0.000000 0.000000
vn 1.000000 0.000000 0.000000
vn 1.000000 0.000000 0.000000
vn -1.000000 0.000000 0.000000
vn -1.000000 0.000000 0.000000
vn 0.000000 1.000000 0.000000
vn 0.000000 1.000000 0.000000
s off
g polySurface13
usemtl lambert4SG
f 1/1/1 2/2/2 4/3/3 3/4/4
f 3/5/5 9/6/6 11/7/7 1/8/8
s 1
f 7/9/9 8/10/10 12/11/11 11/12/12
s 2
f 8/17/13 6/18/14 10/19/15 12/20/16
s 3
f 7/23/17 5/24/18 6/25/19 8/26/20
s off
f 14/29/21 13/30/22 15/31/23 16/32/24
s 1
f 11/12/12 12/11/11 2/13/25 1/14/26
s 2
f 12/20/16 10/19/15 4/21/27 2/22/28
s off
f 11/33/29 9/34/30 13/35/31 14/36/32
s 3
f 5/24/18 7/23/17 16/27/33 15/28/34
s 1
f 7/9/9 11/12/12 14/15/35 16/16/36
s off
f 17/37/37 18/38/38 20/39/39 19/40/40
f 19/41/41 25/42/42 27/43/43 17/44/44
s 4
f 23/45/45 24/46/46 28/47/47 27/48/48
s 5
f 24/53/49 22/54/50 26/55/51 28/56/52
s 6
f 23/59/53 21/60/54 22/61/55 24/62/56
s off
f 30/65/57 29/66/58 31/67/59 32/68/60
s 4
f 27/48/48 28/47/47 18/49/61 17/50/62
s 5
f 28/56/52 26/55/51 20/57/63 18/58/64
s off
f 27/69/65 25/70/66 29/71/67 30/72/68
s 6
f 21/60/54 23/59/53 32/63/69 31/64/70
s 4
f 23/45/45 27/48/48 30/51/71 32/52/72
s off
f 33/73/73 34/74/74 36/75/75 35/76/76
f 35/77/77 41/78/78 43/79/79 33/80/80
s 7
f 39/81/81 40/82/82 44/83/83 43/84/84
s 8
f 40/89/85 38/90/86 42/91/87 44/92/88
s 9
f 39/95/89 37/96/90 38/97/91 40/98/92
s off
f 46/101/93 45/102/94 47/103/95 48/104/96
s 7
f 43/84/84 44/83/83 34/85/97 33/86/98
s 8
f 44/92/88 42/91/87 36/93/99 34/94/100
s off
f 43/105/101 41/106/102 45/107/103 46/108/104
s 9
f 37/96/90 39/95/89 48/99/105 47/100/106
s 7
f 39/81/81 43/84/84 46/87/107 48/88/108
s off
f 49/109/109 50/110/110 52/111/111 51/112/112
f 51/113/113 57/114/114 59/115/115 49/116/116
s 10
f 55/117/117 56/118/118 60/119/119 59/120/120
s 11
f 56/125/121 54/126/122 58/127/123 60/128/124
s 12
f 55/131/125 53/132/126 54/133/127 56/134/128
s off
f 62/137/129 61/138/130 63/139/131 64/140/132
s 10
f 59/120/120 60/119/119 50/121/133 49/122/134
s 11
f 60/128/124 58/127/123 52/129/135 50/130/136
s off
f 59/141/137 57/142/138 61/143/139 62/144/140
s 12
f 53/132/126 55/131/125 64/135/141 63/136/142
s 10
f 55/117/117 59/120/120 62/123/143 64/124/144
g default
v -0.250000 -0.000000 0.250000
v 0.250000 -0.000000 0.250000
v -0.250000 0.100000 0.250000
v 0.250000 0.100000 0.250000
v -0.250000 0.100000 -0.250000
v 0.250000 0.100000 -0.250000
v -0.250000 -0.000000 -0.250000
v 0.250000 -0.000000 -0.250000
v 0.025000 -0.000000 0.250000
v 0.025000 0.100000 0.250000
v 0.025000 0.100000 -0.250000
v 0.025000 -0.000000 -0.250000
v -0.025000 -0.000000 0.250000
v -0.025000 0.100000 0.250000
v -0.025000 0.100000 -0.250000
v -0.025000 -0.000000 -0.250000
v -0.250000 0.100000 -0.025000
v 0.250000 0.100000 -0.024215
v -0.250000 -0.000000 -0.025000
v 0.250000 -0.000000 -0.024215
v 0.025000 0.100000 -0.024568
v 0.025000 -0.000000 -0.024568
v -0.025000 0.100000 -0.024647
v -0.025000 -0.000000 -0.024647
v -0.250000 0.100000 0.025000
v 0.250000 0.100000 0.025785
v 0.025000 0.100000 0.025432
v -0.025000 0.100000 0.025353
v -0.250000 -0.000000 0.025000
v 0.250000 -0.000000 0.025785
v 0.025000 -0.000000 0.025432
v -0.025000 -0.000000 0.025353
v -0.250000 0.025000 0.250000
v 0.250000 0.025000 0.250000
v -0.250000 0.025000 -0.250000
v 0.250000 0.025000 -0.250000
v 0.025000 0.025000 0.250000
v 0.025000 0.025000 -0.250000
v -0.025000 0.025000 0.250000
v -0.025000 0.025000 -0.250000
v 0.250000 0.025000 -0.024215
v -0.250000 0.025000 -0.025000
v 0.250000 0.025000 0.025785
v -0.250000 0.025000 0.025000
v -0.025000 0.025000 0.025865
v 0.025000 0.025000 0.025865
v -0.025000 0.025000 -0.024185
v 0.025000 0.025000 -0.024185
vt 0.750061 0.462363
vt 0.750061 0.257738
vt 0.772797 0.257738
vt 0.772797 0.462363
vt 0.841006 0.257738
vt 0.841006 0.462363
vt 0.772797 0.212266
vt 0.841006 0.212266
vt 0.772797 0.007640
vt 0.841006 0.007640
vt 0.750061 0.212266
vt 0.750061 0.007640
vt 0.011681 0.011516
vt 0.216306 0.011516
vt 0.216306 0.215820
vt 0.011681 0.216141
vt 0.261779 0.215748
vt 0.261779 0.011516
vt 0.216306 0.261292
vt 0.011681 0.261613
vt 0.261779 0.261221
vt 0.466404 0.215427
vt 0.466404 0.011516
vt 0.216306 0.466239
vt 0.011681 0.466239
vt 0.261779 0.466239
vt 0.466404 0.260899
vt 0.466404 0.466239
vt 0.535788 0.462363
vt 0.535788 0.257738
vt 0.603996 0.257738
vt 0.603996 0.462363
vt 0.603996 0.212266
vt 0.535788 0.212266
vt 0.626732 0.257738
vt 0.626732 0.462363
vt 0.603996 0.007640
vt 0.535788 0.007640
vt 0.626732 0.212266
vt 0.626732 0.007640
vt 0.064021 0.538054
vt 0.268646 0.538054
vt 0.268646 0.743000
vt 0.064021 0.742679
vt 0.642924 0.462363
vt 0.642924 0.258452
vt 0.665661 0.258452
vt 0.665661 0.462363
vt 0.733869 0.258452
vt 0.733869 0.462363
vt 0.665661 0.212980
vt 0.733869 0.212980
vt 0.665661 0.007640
vt 0.733869 0.007640
vt 0.642924 0.212980
vt 0.642924 0.007640
vt 0.859136 0.462363
vt 0.859136 0.257738
vt 0.881872 0.257738
vt 0.881872 0.462363
vt 0.950080 0.257738
vt 0.950080 0.462363
vt 0.881872 0.212266
vt 0.950080 0.212266
vt 0.881872 0.007640
vt 0.950080 0.007640
vt 0.859136 0.212266
vt 0.859136 0.007640
vt 0.206224 0.951617
vt 0.001992 0.951617
vt 0.002313 0.746992
vt 0.206224 0.746992
vt 0.479407 0.743393
vt 0.274782 0.743072
vt 0.274782 0.538054
vt 0.479407 0.538054
vt 0.212674 0.747385
vt 0.417299 0.747706
vt 0.417299 0.952010
vt 0.212674 0.952010
vt 0.793383 0.992777
vt 0.747910 0.992777
vt 0.747910 0.788938
vt 0.793383 0.788938
vt 0.747910 0.743420
vt 0.793383 0.743420
vt 0.543285 0.788151
vt 0.543285 0.742679
vt 0.747910 0.538054
vt 0.793383 0.538054
vt 0.998008 0.743393
vt 0.998008 0.788866
vt 0.057886 0.538054
vt 0.057886 0.742679
vt 0.035150 0.742679
vt 0.035150 0.538054
vt 0.512812 0.951644
vt 0.512812 0.747411
vt 0.535549 0.747411
vt 0.535549 0.951250
vt 0.483578 0.951715
vt 0.483578 0.747411
vt 0.506314 0.747876
vt 0.506314 0.951715
vt 0.029015 0.538054
vt 0.029015 0.742679
vt 0.006278 0.742679
vt 0.006278 0.538054
vt 0.514414 0.743000
vt 0.514414 0.538054
vt 0.537150 0.538054
vt 0.537150 0.743420
vt 0.485542 0.743420
vt 0.485542 0.538402
vt 0.508278 0.538054
vt 0.508278 0.743420
vt 0.425110 0.952010
vt 0.425110 0.747385
vt 0.447846 0.747385
vt 0.447846 0.952010
vt 0.454344 0.952010
vt 0.454344 0.747385
vt 0.477080 0.747385
vt 0.477080 0.952010
vn 0.000000 0.000000 1.000000
vn 0.000000 0.000000 1.000000
vn 0.000000 0.000000 1.000000
vn 0.000000 0.000000 1.000000
vn -0.000000 1.000000 0.000000
vn -0.000000 1.000000 0.000000
vn -0.000000 1.000000 0.000000
vn -0.000000 1.000000 -0.000000
vn 0.000000 0.000000 -1.000000
vn 0.000000 0.000000 -1.000000
vn 0.000000 0.000000 -1.000000
vn 0.000000 0.000000 -1.000000
vn 0.000000 -1.000000 0.000000
vn 0.000000 -1.000000 0.000000
vn 0.000000 -1.000000 0.000000
vn 0.000000 -1.000000 0.000000
vn 1.000000 0.000000 0.000000
vn 1.000000 0.000000 0.000000
vn 1.000000 -0.000000 0.000000
vn 1.000000 0.000000 0.000000
vn -1.000000 0.000000 0.000000
vn -1.000000 0.000000 0.000000
vn -1.000000 0.000000 0.000000
vn -1.000000 0.000000 0.000000
vn 0.000000 0.000000 1.000000
vn 0.000000 0.000000 1.000000
vn 0.000000 0.000000 1.000000
vn 0.000000 0.000000 1.000000
vn 0.000000 1.000000 0.000000
vn 0.000000 1.000000 -0.000000
vn 0.000000 1.000000 -0.000000
vn 0.000000 1.000000 0.000000
vn 0.000000 0.000000 -1.000000
vn 0.000000 0.000000 -1.000000
vn 0.000000 0.000000 -1.000000
vn 0.000000 0.000000 -1.000000
vn 0.000000 -1.000000 0.000000
vn 0.000000 -1.000000 0.000000
vn 0.000000 -1.000000 0.000000
vn 0.000000 -1.000000 0.000000
vn 0.000000 0.000000 1.000000
vn 0.000000 1.000000 0.000000
vn -0.000000 1.000000 -0.000000
vn -0.000000 1.000000 -0.000000
vn 0.000000 1.000000 0.000000
vn 1.000000 -0.000000 0.000000
vn 1.000000 -0.000000 0.000000
vn 1.000000 0.000000 0.000000
vn 1.000000 0.000000 0.000000
vn -1.000000 0.000000 0.000000
vn -1.000000 -0.000000 0.000000
vn -1.000000 -0.000000 0.000000
vn 0.000000 1.000000 -0.000000
vn 0.000000 1.000000 0.000000
vn 0.000000 -1.000000 0.000000
vn 0.000000 -1.000000 0.000000
vn 0.000000 -1.000000 0.000000
vn 0.000000 -1.000000 0.000000
vn 1.000000 -0.000000 0.000000
vn 0.000000 -1.000000 0.000000
vn 0.000000 -1.000000 0.000000
vn 0.000000 -1.000000 0.000000
vn 0.000000 -1.000000 0.000000
vn -1.000000 -0.000000 0.000000
vn -1.000000 -0.000000 0.000000
vn 0.000000 1.000000 0.000000
vn 0.000000 1.000000 0.000000
vn 0.000000 0.000000 1.000000
vn 0.000000 0.000000 -1.000000
vn 0.000000 0.000000 -1.000000
vn 1.000000 0.000000 0.000000
vn -1.000000 0.000000 0.000000
vn 0.000000 0.000000 1.000000
vn 0.000000 0.000000 1.000000
vn 0.000000 0.000000 -1.000000
vn 0.000000 0.000000 -1.000000
vn 1.000000 0.000000 0.000000
vn 1.000000 0.000000 0.000000
vn -1.000000 0.000000 0.000000
vn -1.000000 0.000000 0.000000
vn 0.000000 -1.000000 0.000000
vn 0.000000 -1.000000 0.000000
vn 0.000000 -1.000000 0.000000
vn 0.000000 -1.000000 0.000000
vn 0.000000 -1.000000 0.000000
vn 0.000000 -1.000000 0.000000
vn 0.000000 -1.000000 0.000000
vn 0.000000 -1.000000 0.000000
vn 0.000000 -1.000000 0.000000
vn 0.000000 -1.000000 0.000000
vn 0.000000 -1.000000 0.000000
vn 0.000000 -1.000000 0.000000
vn 0.000609 0.008652 -0.999962
vn 0.000609 0.008652 -0.999962
vn 0.000609 0.008652 -0.999962
vn 0.000609 0.008652 -0.999962
vn -1.000000 -0.000000 0.000000
vn -1.000000 -0.000000 0.000000
vn -1.000000 -0.000000 0.000000
vn -1.000000 -0.000000 0.000000
vn 1.000000 0.000000 0.000000
vn 1.000000 0.000000 0.000000
vn 1.000000 0.000000 0.000000
vn 1.000000 0.000000 0.000000
vn 0.002707 0.010223 -0.999944
vn 0.002707 0.010223 -0.999944
vn 0.002707 0.010223 -0.999944
vn 0.002707 0.010223 -0.999944
vn 1.000000 0.000000 -0.000000
vn 1.000000 0.000000 -0.000000
vn 1.000000 0.000000 -0.000000
vn 1.000000 0.000000 -0.000000
vn -1.000000 -0.000000 0.000000
vn -1.000000 -0.000000 0.000000
vn -1.000000 -0.000000 0.000000
vn -1.000000 -0.000000 0.000000
vn -0.002596 -0.009229 0.999954
vn -0.002596 -0.009229 0.999954
vn -0.002596 -0.009229 0.999954
vn -0.002596 -0.009229 0.999954
vn -0.000720 -0.007659 0.999970
vn -0.000720 -0.007659 0.999970
vn -0.000720 -0.007659 0.999970
vn -0.000720 -0.007659 0.999970
s 1
g pCube1
usemtl initialShadingGroup
f 65/145/145 77/146/146 103/147/147 97/148/148
s 2
f 67/157/149 78/158/150 92/159/151 89/160/152
s 3
f 69/173/153 79/174/154 104/175/155 99/176/156
s off
f 71/185/157 80/186/158 88/187/159 83/188/160
s 4
f 66/189/161 94/190/162 107/191/163 98/192/164
s 5
f 71/201/165 83/202/166 106/203/167 99/204/168
s 1
f 74/152/169 101/151/170 98/153/171 68/154/172
s 2
f 75/170/173 85/165/174 82/171/175 70/172/176
s 3
f 76/183/177 102/177/178 100/181/179 72/184/180
s off
f 73/213/181 95/214/182 94/215/183 66/216/184
s 1
f 78/149/185 103/147/147 101/151/170 74/152/169
s 2
f 79/168/186 87/163/187 85/165/174 75/170/173
f 81/164/188 87/163/187 79/168/186 69/169/189
s 4
f 82/196/190 105/195/191 100/197/192 70/198/193
s 5
f 81/205/194 106/203/167 108/207/195 89/208/196
s 2
f 82/171/175 85/165/174 91/161/197 90/166/198
s off
f 84/217/199 86/218/200 76/219/201 72/220/202
s 2
f 85/165/174 87/163/187 92/159/151 91/161/197
f 89/160/152 92/159/151 87/163/187 81/164/188
s 4
f 90/193/203 107/191/163 105/195/191 82/196/190
s off
f 93/221/204 96/222/205 77/223/206 65/224/207
s 5
f 89/208/196 108/207/195 97/209/208 67/210/209
s 2
f 90/166/198 91/161/197 74/162/210 68/167/211
f 91/161/197 92/159/151 78/158/150 74/162/210
s 1
f 97/148/148 103/147/147 78/149/185 67/150/212
s 3
f 99/176/156 104/175/155 80/179/213 71/180/214
s 4
f 98/192/164 107/191/163 90/193/203 68/194/215
s 5
f 99/204/168 106/203/167 81/205/194 69/206/216
s 1
f 98/153/171 101/151/170 73/155/217 66/156/218
s 3
f 100/181/179 102/177/178 75/178/219 70/182/220
f 102/177/178 104/175/155 79/174/154 75/178/219
s 4
f 100/197/192 105/195/191 84/199/221 72/200/222
s 5
f 97/209/208 108/207/195 93/211/223 65/212/224
s 10
f 101/225/225 103/226/226 109/227/227 110/228/228
f 110/228/228 109/227/227 111/229/229 112/230/230
f 112/230/230 111/229/229 104/233/231 102/234/232
f 108/231/233 106/232/234 111/229/229 109/227/227
f 105/235/235 107/236/236 110/228/228 112/230/230
s off
f 94/237/237 95/238/238 110/239/239 107/240/240
f 95/241/241 73/242/242 101/243/243 110/244/244
f 77/245/245 96/246/246 109/247/247 103/248/248
f 96/249/249 93/250/250 108/251/251 109/252/252
f 88/253/253 80/254/254 104/255/255 111/256/256
f 76/257/257 86/258/258 112/259/259 102/260/260
f 83/261/261 88/262/262 111/263/263 106/264/264
f 86/265/265 84/266/266 105/267/267 112/268/268
g default
v 0.250000 0.098014 0.050394
v 0.250000 0.098014 -0.050394
v 0.250000 0.101996 0.050394
v 0.250000 0.101996 -0.050394
v -0.250000 0.101996 0.050394
v -0.250000 0.101996 -0.050394
v -0.250000 0.098014 0.050394
v -0.250000 0.098014 -0.050394
v -0.053805 0.101996 0.050394
v -0.053805 0.101996 -0.050394
v 0.052625 0.101996 0.050394
v 0.052625 0.101996 -0.050394
v 0.052625 0.098014 -0.250000
v 0.052625 0.101996 -0.250000
v -0.053805 0.098014 -0.250000
v -0.053805 0.101996 -0.250000
v -0.053805 0.098014 0.250000
v -0.053805 0.101996 0.250000
v 0.052625 0.098014 0.250000
v 0.052625 0.101996 0.250000
vt 0.890359 0.933606
vt 0.890359 0.702774
vt 0.899480 0.702774
vt 0.899480 0.933606
vt 0.996772 0.400110
vt 0.996772 0.599093
vt 0.607100 0.599093
vt 0.607100 0.400110
vt 0.396979 0.599093
vt 0.396979 0.400110
vt 0.607100 0.993169
vt 0.396979 0.993169
vt 0.009636 0.599093
vt 0.009636 0.400110
vt 0.396979 0.006033
vt 0.607100 0.006033
vt 0.881043 0.702774
vt 0.881043 0.933605
vt 0.871923 0.933605
vt 0.871923 0.702774
vt 0.917916 0.946526
vt 0.908796 0.946526
vt 0.908796 0.702774
vt 0.917916 0.702774
vt 0.929850 0.703284
vt 0.938969 0.703284
vt 0.938969 0.947036
vt 0.929850 0.947036
vn 1.000000 0.000000 0.000000
vn 1.000000 0.000000 0.000000
vn 1.000000 0.000000 0.000000
vn 1.000000 0.000000 0.000000
vn 0.000000 1.000000 0.000000
vn 0.000000 1.000000 0.000000
vn 0.000000 1.000000 0.000000
vn 0.000000 1.000000 0.000000
vn -1.000000 0.000000 -0.000000
vn -1.000000 0.000000 -0.000000
vn -1.000000 0.000000 -0.000000
vn -1.000000 0.000000 -0.000000
vn 0.000000 1.000000 -0.000000
vn 0.000000 1.000000 0.000000
vn 0.000000 1.000000 -0.000000
vn 0.000000 1.000000 -0.000000
vn 0.000000 0.000004 1.000000
vn 0.000000 0.000004 1.000000
vn 0.000000 0.000004 1.000000
vn 0.000000 0.000004 1.000000
vn 0.000000 0.000000 -1.000000
vn 0.000000 0.000000 -1.000000
vn 0.000000 0.000000 -1.000000
vn 0.000000 0.000000 -1.000000
vn 0.000000 1.000000 0.000001
vn 0.000000 1.000000 0.000001
vn 0.000000 1.000000 0.000000
vn 0.000000 1.000000 0.000000
vn 0.000000 1.000000 0.000000
vn 0.000000 1.000000 0.000000
s off
g polySurface10 polySurface6
usemtl lambert5SG
f 113/269/269 114/270/270 116/271/271 115/272/272
s 1
f 115/273/273 116/274/274 124/275/275 123/276/276
s off
f 117/285/277 118/286/278 120/287/279 119/288/280
s 1
f 121/278/281 122/277/282 118/281/283 117/282/284
s off
f 130/289/285 129/290/286 131/291/287 132/292/288
s 1
f 123/276/276 124/275/275 122/277/282 121/278/281
s off
f 126/293/289 125/294/290 127/295/291 128/296/292
s 1
f 122/277/282 124/275/275 126/279/293 128/280/294
s off
f 123/276/295 121/278/296 130/283/297 132/284/298
