# This file uses centimeters as units for non-parametric coordinates.

mtllib puzzlePiece_turnabout_S.mtl
g default
v -0.250000 -0.000000 0.250000
v 0.250000 -0.000000 0.250000
v -0.250000 0.100000 0.250000
v 0.250000 0.100000 0.250000
v -0.250000 0.100000 -0.250000
v 0.250000 0.100000 -0.250000
v -0.250000 -0.000000 -0.250000
v 0.250000 -0.000000 -0.250000
v 0.025000 -0.000000 0.250000
v 0.025000 0.100000 0.250000
v 0.025000 0.100000 -0.250000
v 0.025000 -0.000000 -0.250000
v -0.025000 -0.000000 0.250000
v -0.025000 0.100000 0.250000
v -0.025000 0.100000 -0.250000
v -0.025000 -0.000000 -0.250000
v -0.250000 0.100000 -0.025000
v 0.250000 0.100000 -0.024215
v -0.250000 -0.000000 -0.025000
v 0.250000 -0.000000 -0.024215
v 0.025000 0.100000 -0.024568
v 0.025000 -0.000000 -0.024568
v -0.025000 0.100000 -0.024647
v -0.025000 -0.000000 -0.024647
v -0.250000 0.100000 0.025000
v 0.250000 0.100000 0.025785
v 0.025000 0.100000 0.025432
v -0.025000 0.100000 0.025353
v -0.250000 -0.000000 0.025000
v 0.250000 -0.000000 0.025785
v 0.025000 -0.000000 0.025432
v -0.025000 -0.000000 0.025353
v -0.250000 0.025000 0.250000
v 0.250000 0.025000 0.250000
v -0.250000 0.025000 -0.250000
v 0.250000 0.025000 -0.250000
v 0.025000 0.025000 0.250000
v 0.025000 0.025000 -0.250000
v -0.025000 0.025000 0.250000
v -0.025000 0.025000 -0.250000
v 0.250000 0.025000 -0.024215
v -0.250000 0.025000 -0.025000
v 0.250000 0.025000 0.025785
v -0.250000 0.025000 0.025000
v -0.025000 0.025000 0.025865
v 0.025000 0.025000 0.025865
v -0.025000 0.025000 -0.024185
v 0.025000 0.025000 -0.024185
vt 0.750061 0.462363
vt 0.750061 0.257738
vt 0.772797 0.257738
vt 0.772797 0.462363
vt 0.841006 0.257738
vt 0.841006 0.462363
vt 0.772797 0.212266
vt 0.841006 0.212266
vt 0.772797 0.007640
vt 0.841006 0.007640
vt 0.750061 0.212266
vt 0.750061 0.007640
vt 0.011681 0.011516
vt 0.216306 0.011516
vt 0.216306 0.215820
vt 0.011681 0.216141
vt 0.261779 0.215748
vt 0.261779 0.011516
vt 0.216306 0.261292
vt 0.011681 0.261613
vt 0.261779 0.261221
vt 0.466404 0.215427
vt 0.466404 0.011516
vt 0.216306 0.466239
vt 0.011681 0.466239
vt 0.261779 0.466239
vt 0.466404 0.260899
vt 0.466404 0.466239
vt 0.535788 0.462363
vt 0.535788 0.257738
vt 0.603996 0.257738
vt 0.603996 0.462363
vt 0.603996 0.212266
vt 0.535788 0.212266
vt 0.626732 0.257738
vt 0.626732 0.462363
vt 0.603996 0.007640
vt 0.535788 0.007640
vt 0.626732 0.212266
vt 0.626732 0.007640
vt 0.064021 0.538054
vt 0.268646 0.538054
vt 0.268646 0.743000
vt 0.064021 0.742679
vt 0.642924 0.462363
vt 0.642924 0.258452
vt 0.665661 0.258452
vt 0.665661 0.462363
vt 0.733869 0.258452
vt 0.733869 0.462363
vt 0.665661 0.212980
vt 0.733869 0.212980
vt 0.665661 0.007640
vt 0.733869 0.007640
vt 0.642924 0.212980
vt 0.642924 0.007640
vt 0.859136 0.462363
vt 0.859136 0.257738
vt 0.881872 0.257738
vt 0.881872 0.462363
vt 0.950080 0.257738
vt 0.950080 0.462363
vt 0.881872 0.212266
vt 0.950080 0.212266
vt 0.881872 0.007640
vt 0.950080 0.007640
vt 0.859136 0.212266
vt 0.859136 0.007640
vt 0.206224 0.951617
vt 0.001992 0.951617
vt 0.002313 0.746992
vt 0.206224 0.746992
vt 0.479407 0.743393
vt 0.274782 0.743072
vt 0.274782 0.538054
vt 0.479407 0.538054
vt 0.212674 0.747385
vt 0.417299 0.747706
vt 0.417299 0.952010
vt 0.212674 0.952010
vt 0.793383 0.992777
vt 0.747910 0.992777
vt 0.747910 0.788938
vt 0.793383 0.788938
vt 0.747910 0.743420
vt 0.793383 0.743420
vt 0.543285 0.788151
vt 0.543285 0.742679
vt 0.747910 0.538054
vt 0.793383 0.538054
vt 0.998008 0.743393
vt 0.998008 0.788866
vt 0.057886 0.538054
vt 0.057886 0.742679
vt 0.035150 0.742679
vt 0.035150 0.538054
vt 0.512812 0.951644
vt 0.512812 0.747411
vt 0.535549 0.747411
vt 0.535549 0.951250
vt 0.483578 0.951715
vt 0.483578 0.747411
vt 0.506314 0.747876
vt 0.506314 0.951715
vt 0.029015 0.538054
vt 0.029015 0.742679
vt 0.006278 0.742679
vt 0.006278 0.538054
vt 0.514414 0.743000
vt 0.514414 0.538054
vt 0.537150 0.538054
vt 0.537150 0.743420
vt 0.485542 0.743420
vt 0.485542 0.538402
vt 0.508278 0.538054
vt 0.508278 0.743420
vt 0.425110 0.952010
vt 0.425110 0.747385
vt 0.447846 0.747385
vt 0.447846 0.952010
vt 0.454344 0.952010
vt 0.454344 0.747385
vt 0.477080 0.747385
vt 0.477080 0.952010
vn 0.000000 0.000000 1.000000
vn 0.000000 0.000000 1.000000
vn 0.000000 0.000000 1.000000
vn 0.000000 0.000000 1.000000
vn -0.000000 1.000000 0.000000
vn -0.000000 1.000000 0.000000
vn -0.000000 1.000000 0.000000
vn -0.000000 1.000000 -0.000000
vn 0.000000 0.000000 -1.000000
vn 0.000000 0.000000 -1.000000
vn 0.000000 0.000000 -1.000000
vn 0.000000 0.000000 -1.000000
vn 0.000000 -1.000000 0.000000
vn 0.000000 -1.000000 0.000000
vn 0.000000 -1.000000 0.000000
vn 0.000000 -1.000000 0.000000
vn 1.000000 0.000000 0.000000
vn 1.000000 0.000000 0.000000
vn 1.000000 -0.000000 0.000000
vn 1.000000 0.000000 0.000000
vn -1.000000 0.000000 0.000000
vn -1.000000 0.000000 0.000000
vn -1.000000 0.000000 0.000000
vn -1.000000 0.000000 0.000000
vn 0.000000 0.000000 1.000000
vn 0.000000 0.000000 1.000000
vn 0.000000 0.000000 1.000000
vn 0.000000 0.000000 1.000000
vn 0.000000 1.000000 0.000000
vn 0.000000 1.000000 -0.000000
vn 0.000000 1.000000 -0.000000
vn 0.000000 1.000000 0.000000
vn 0.000000 0.000000 -1.000000
vn 0.000000 0.000000 -1.000000
vn 0.000000 0.000000 -1.000000
vn 0.000000 0.000000 -1.000000
vn 0.000000 -1.000000 0.000000
vn 0.000000 -1.000000 0.000000
vn 0.000000 -1.000000 0.000000
vn 0.000000 -1.000000 0.000000
vn 0.000000 0.000000 1.000000
vn 0.000000 1.000000 0.000000
vn -0.000000 1.000000 -0.000000
vn -0.000000 1.000000 -0.000000
vn 0.000000 1.000000 0.000000
vn 1.000000 -0.000000 0.000000
vn 1.000000 -0.000000 0.000000
vn 1.000000 0.000000 0.000000
vn 1.000000 0.000000 0.000000
vn -1.000000 0.000000 0.000000
vn -1.000000 -0.000000 0.000000
vn -1.000000 -0.000000 0.000000
vn 0.000000 1.000000 -0.000000
vn 0.000000 1.000000 0.000000
vn 0.000000 -1.000000 0.000000
vn 0.000000 -1.000000 0.000000
vn 0.000000 -1.000000 0.000000
vn 0.000000 -1.000000 0.000000
vn 1.000000 -0.000000 0.000000
vn 0.000000 -1.000000 0.000000
vn 0.000000 -1.000000 0.000000
vn 0.000000 -1.000000 0.000000
vn 0.000000 -1.000000 0.000000
vn -1.000000 -0.000000 0.000000
vn -1.000000 -0.000000 0.000000
vn 0.000000 1.000000 0.000000
vn 0.000000 1.000000 0.000000
vn 0.000000 0.000000 1.000000
vn 0.000000 0.000000 -1.000000
vn 0.000000 0.000000 -1.000000
vn 1.000000 0.000000 0.000000
vn -1.000000 0.000000 0.000000
vn 0.000000 0.000000 1.000000
vn 0.000000 0.000000 1.000000
vn 0.000000 0.000000 -1.000000
vn 0.000000 0.000000 -1.000000
vn 1.000000 0.000000 0.000000
vn 1.000000 0.000000 0.000000
vn -1.000000 0.000000 0.000000
vn -1.000000 0.000000 0.000000
vn 0.000000 -1.000000 0.000000
vn 0.000000 -1.000000 0.000000
vn 0.000000 -1.000000 0.000000
vn 0.000000 -1.000000 0.000000
vn 0.000000 -1.000000 0.000000
vn 0.000000 -1.000000 0.000000
vn 0.000000 -1.000000 0.000000
vn 0.000000 -1.000000 0.000000
vn 0.000000 -1.000000 0.000000
vn 0.000000 -1.000000 0.000000
vn 0.000000 -1.000000 0.000000
vn 0.000000 -1.000000 0.000000
vn 0.000609 0.008652 -0.999962
vn 0.000609 0.008652 -0.999962
vn 0.000609 0.008652 -0.999962
vn 0.000609 0.008652 -0.999962
vn -1.000000 -0.000000 0.000000
vn -1.000000 -0.000000 0.000000
vn -1.000000 -0.000000 0.000000
vn -1.000000 -0.000000 0.000000
vn 1.000000 0.000000 0.000000
vn 1.000000 0.000000 0.000000
vn 1.000000 0.000000 0.000000
vn 1.000000 0.000000 0.000000
vn 0.002707 0.010223 -0.999944
vn 0.002707 0.010223 -0.999944
vn 0.002707 0.010223 -0.999944
vn 0.002707 0.010223 -0.999944
vn 1.000000 0.000000 -0.000000
vn 1.000000 0.000000 -0.000000
vn 1.000000 0.000000 -0.000000
vn 1.000000 0.000000 -0.000000
vn -1.000000 -0.000000 0.000000
vn -1.000000 -0.000000 0.000000
vn -1.000000 -0.000000 0.000000
vn -1.000000 -0.000000 0.000000
vn -0.002596 -0.009229 0.999954
vn -0.002596 -0.009229 0.999954
vn -0.002596 -0.009229 0.999954
vn -0.002596 -0.009229 0.999954
vn -0.000720 -0.007659 0.999970
vn -0.000720 -0.007659 0.999970
vn -0.000720 -0.007659 0.999970
vn -0.000720 -0.007659 0.999970
s 1
g puzzlePiece_straight:pCube1
usemtl initialShadingGroup
f 1/1/1 13/2/2 39/3/3 33/4/4
s 2
f 3/13/5 14/14/6 28/15/7 25/16/8
s 3
f 5/29/9 15/30/10 40/31/11 35/32/12
s off
f 7/41/13 16/42/14 24/43/15 19/44/16
s 4
f 2/45/17 30/46/18 43/47/19 34/48/20
s 5
f 7/57/21 19/58/22 42/59/23 35/60/24
s 1
f 10/8/25 37/7/26 34/9/27 4/10/28
s 2
f 11/26/29 21/21/30 18/27/31 6/28/32
s 3
f 12/39/33 38/33/34 36/37/35 8/40/36
s off
f 9/69/37 31/70/38 30/71/39 2/72/40
s 1
f 14/5/41 39/3/3 37/7/26 10/8/25
s 2
f 15/24/42 23/19/43 21/21/30 11/26/29
f 17/20/44 23/19/43 15/24/42 5/25/45
s 4
f 18/52/46 41/51/47 36/53/48 6/54/49
s 5
f 17/61/50 42/59/23 44/63/51 25/64/52
s 2
f 18/27/31 21/21/30 27/17/53 26/22/54
s off
f 20/73/55 22/74/56 12/75/57 8/76/58
s 2
f 21/21/30 23/19/43 28/15/7 27/17/53
f 25/16/8 28/15/7 23/19/43 17/20/44
s 4
f 26/49/59 43/47/19 41/51/47 18/52/46
s off
f 29/77/60 32/78/61 13/79/62 1/80/63
s 5
f 25/64/52 44/63/51 33/65/64 3/66/65
s 2
f 26/22/54 27/17/53 10/18/66 4/23/67
f 27/17/53 28/15/7 14/14/6 10/18/66
s 1
f 33/4/4 39/3/3 14/5/41 3/6/68
s 3
f 35/32/12 40/31/11 16/35/69 7/36/70
s 4
f 34/48/20 43/47/19 26/49/59 4/50/71
s 5
f 35/60/24 42/59/23 17/61/50 5/62/72
s 1
f 34/9/27 37/7/26 9/11/73 2/12/74
s 3
f 36/37/35 38/33/34 11/34/75 6/38/76
f 38/33/34 40/31/11 15/30/10 11/34/75
s 4
f 36/53/48 41/51/47 20/55/77 8/56/78
s 5
f 33/65/64 44/63/51 29/67/79 1/68/80
s 10
f 37/81/81 39/82/82 45/83/83 46/84/84
f 46/84/84 45/83/83 47/85/85 48/86/86
f 48/86/86 47/85/85 40/89/87 38/90/88
f 44/87/89 42/88/90 47/85/85 45/83/83
f 41/91/91 43/92/92 46/84/84 48/86/86
s off
f 30/93/93 31/94/94 46/95/95 43/96/96
f 31/97/97 9/98/98 37/99/99 46/100/100
f 13/101/101 32/102/102 45/103/103 39/104/104
f 32/105/105 29/106/106 44/107/107 45/108/108
f 24/109/109 16/110/110 40/111/111 47/112/112
f 12/113/113 22/114/114 48/115/115 38/116/116
f 19/117/117 24/118/118 47/119/119 42/120/120
f 22/121/121 20/122/122 41/123/123 48/124/124
g default
v -0.100000 0.093000 0.250000
v -0.050000 0.093000 0.250000
v -0.100000 0.107000 0.250000
v -0.050000 0.107000 0.250000
v -0.100000 0.107000 0.080969
v -0.050000 0.107000 0.080969
v -0.100000 0.093000 0.080969
v -0.050000 0.093000 0.080969
v 0.050000 0.093000 0.250000
v 0.100000 0.093000 0.250000
v 0.050000 0.107000 0.250000
v 0.100000 0.107000 0.250000
v 0.050000 0.107000 0.080969
v 0.100000 0.107000 0.080969
v 0.050000 0.093000 0.080969
v 0.100000 0.093000 0.080969
v 0.120970 0.093000 -0.195295
v -0.120970 0.093000 -0.195295
v -0.191248 0.093000 -0.055564
v -0.120970 0.093000 0.082010
v 0.120970 0.093000 0.082010
v 0.191248 0.093000 -0.055564
v 0.120970 0.107000 -0.195295
v -0.120970 0.107000 -0.195295
v -0.191248 0.107000 -0.055564
v -0.120970 0.107000 0.082010
v 0.120970 0.107000 0.082010
v 0.191248 0.107000 -0.055564
v 0.093969 0.107000 -0.155073
v -0.093969 0.107000 -0.155073
v -0.148561 0.107000 -0.055877
v -0.093969 0.107000 0.041787
v 0.093969 0.107000 0.041787
v 0.148561 0.107000 -0.055877
v 0.093969 0.093020 -0.155073
v -0.093969 0.093020 -0.155073
v -0.148561 0.093020 -0.055877
v -0.093969 0.093020 0.041787
v 0.093969 0.093020 0.041787
v 0.148561 0.093020 -0.055877
v -0.049935 0.093000 0.082010
v -0.049935 0.107000 0.082010
v -0.070851 0.107000 0.041787
v -0.070851 0.093020 0.041787
v 0.049824 0.093000 0.082010
v 0.049824 0.107000 0.082010
v 0.069118 0.107000 0.041787
v 0.069118 0.093020 0.041787
vt 0.817095 0.933464
vt 0.817095 0.827024
vt 0.846898 0.827024
vt 0.846898 0.933464
vt 0.337437 0.374801
vt 0.427532 0.374801
vt 0.427532 0.679378
vt 0.337437 0.679378
vt 0.959361 0.738471
vt 0.959361 0.378639
vt 0.989164 0.378639
vt 0.989164 0.738471
vt 0.915401 0.373351
vt 0.915401 0.013519
vt 0.945204 0.013519
vt 0.945204 0.373351
vt 0.850440 0.932555
vt 0.850440 0.826115
vt 0.880243 0.826115
vt 0.880243 0.932555
vt 0.241746 0.374919
vt 0.331840 0.374919
vt 0.331840 0.679496
vt 0.241746 0.679496
vt 0.918468 0.736787
vt 0.918468 0.376954
vt 0.948271 0.376954
vt 0.948271 0.736787
vt 0.961508 0.374648
vt 0.961508 0.014816
vt 0.991311 0.014816
vt 0.991311 0.374648
vt 0.797084 0.013519
vt 0.797084 0.528559
vt 0.767281 0.528559
vt 0.767281 0.013519
vt 0.693220 0.603842
vt 0.693220 0.306384
vt 0.723024 0.306384
vt 0.723024 0.603842
vt 0.693220 0.013519
vt 0.723024 0.013519
vt 0.825794 0.728833
vt 0.825794 0.577613
vt 0.855597 0.577613
vt 0.855597 0.728833
vt 0.730251 0.603842
vt 0.730251 0.310977
vt 0.760054 0.310977
vt 0.760054 0.603842
vt 0.730251 0.013519
vt 0.760054 0.013519
vt 0.660502 0.233371
vt 0.660502 0.801441
vt 0.566061 0.738043
vt 0.566061 0.296768
vt 0.332416 0.966451
vt 0.333151 0.866223
vt 0.332416 0.068361
vt 0.333151 0.168589
vt 0.009397 0.801441
vt 0.103838 0.738043
vt 0.009397 0.233371
vt 0.103838 0.296768
vt 0.009397 0.634651
vt 0.103838 0.683762
vt 0.103838 0.355120
vt 0.009397 0.400420
vt 0.908131 0.013519
vt 0.908131 0.413601
vt 0.878371 0.413601
vt 0.878371 0.013519
vt 0.834071 0.013519
vt 0.834071 0.224687
vt 0.804311 0.224687
vt 0.804311 0.013519
vt 0.834071 0.432593
vt 0.804311 0.432593
vt 0.694433 0.695161
vt 0.694433 0.645947
vt 0.724193 0.645947
vt 0.724193 0.695161
vt 0.871101 0.013519
vt 0.871101 0.221426
vt 0.841341 0.221426
vt 0.841341 0.013519
vt 0.871101 0.432593
vt 0.841341 0.432593
vt 0.888942 0.728989
vt 0.859139 0.728989
vt 0.859139 0.577534
vt 0.888942 0.577534
vt 0.757593 0.696258
vt 0.727833 0.696258
vt 0.727833 0.643354
vt 0.757593 0.643354
vt 0.788345 0.728978
vt 0.758542 0.728978
vt 0.758585 0.643354
vt 0.788345 0.643354
vt 0.789294 0.644650
vt 0.819097 0.644650
vt 0.819097 0.730275
vt 0.789337 0.730275
vn 0.000000 0.000000 1.000000
vn 0.000000 0.000000 1.000000
vn 0.000000 0.000000 1.000000
vn 0.000000 0.000000 1.000000
vn 0.000000 1.000000 0.000000
vn 0.000000 1.000000 0.000000
vn 0.000000 1.000000 0.000000
vn 0.000000 1.000000 0.000000
vn 1.000000 0.000000 0.000000
vn 1.000000 0.000000 0.000000
vn 1.000000 0.000000 0.000000
vn 1.000000 0.000000 0.000000
vn -1.000000 0.000000 0.000000
vn -1.000000 0.000000 0.000000
vn -1.000000 0.000000 0.000000
vn -1.000000 0.000000 0.000000
vn 0.000000 0.000000 1.000000
vn 0.000000 0.000000 1.000000
vn 0.000000 0.000000 1.000000
vn 0.000000 0.000000 1.000000
vn 0.000000 1.000000 0.000000
vn 0.000000 1.000000 0.000000
vn 0.000000 1.000000 0.000000
vn 0.000000 1.000000 0.000000
vn 1.000000 0.000000 0.000000
vn 1.000000 0.000000 0.000000
vn 1.000000 0.000000 0.000000
vn 1.000000 0.000000 0.000000
vn -1.000000 0.000000 0.000000
vn -1.000000 0.000000 0.000000
vn -1.000000 0.000000 0.000000
vn -1.000000 0.000000 0.000000
vn 0.000000 0.000000 -1.000000
vn 0.000000 0.000000 -1.000000
vn 0.000000 0.000000 -1.000000
vn 0.000000 0.000000 -1.000000
vn -0.893370 0.000000 -0.449321
vn -0.893370 0.000000 -0.449321
vn -0.893370 0.000000 -0.449321
vn -0.893370 0.000000 -0.449321
vn -0.890533 0.000000 0.454918
vn -0.890533 0.000000 0.454918
vn -0.890533 0.000000 0.454918
vn -0.890533 0.000000 0.454918
vn 0.000000 0.000000 1.000000
vn 0.000000 0.000000 1.000000
vn 0.000000 0.000000 1.000000
vn 0.000000 0.000000 1.000000
vn 0.890533 0.000000 0.454918
vn 0.890533 0.000000 0.454918
vn 0.890533 0.000000 0.454918
vn 0.890533 0.000000 0.454918
vn 0.893371 0.000000 -0.449321
vn 0.893371 0.000000 -0.449321
vn 0.893371 0.000000 -0.449321
vn 0.893371 0.000000 -0.449321
vn 0.000000 1.000000 -0.000000
vn 0.000000 1.000000 -0.000000
vn 0.000000 1.000000 -0.000000
vn 0.000000 1.000000 -0.000000
vn 0.000000 1.000000 -0.000000
vn 0.000000 1.000000 -0.000000
vn 0.000000 1.000000 -0.000000
vn 0.000000 1.000000 -0.000000
vn 0.000000 1.000000 -0.000000
vn 0.000000 1.000000 -0.000000
vn 0.000000 1.000000 -0.000000
vn 0.000000 1.000000 -0.000000
vn -0.000000 1.000000 -0.000000
vn -0.000000 1.000000 -0.000000
vn -0.000000 1.000000 -0.000000
vn -0.000000 1.000000 -0.000000
vn 0.000000 1.000000 0.000000
vn 0.000000 1.000000 0.000000
vn 0.000000 1.000000 0.000000
vn 0.000000 1.000000 0.000000
vn 0.000000 1.000000 -0.000000
vn 0.000000 1.000000 -0.000000
vn 0.000000 1.000000 -0.000000
vn 0.000000 1.000000 -0.000000
vn 0.000000 0.000000 1.000000
vn 0.000000 0.000000 1.000000
vn 0.000000 0.000000 1.000000
vn 0.000000 0.000000 1.000000
vn 0.876090 0.000000 0.482148
vn 0.876090 0.000000 0.482148
vn 0.876090 0.000000 0.482148
vn 0.876090 0.000000 0.482148
vn 0.872889 0.000000 -0.487920
vn 0.872889 0.000000 -0.487920
vn 0.872889 0.000000 -0.487920
vn 0.872889 0.000000 -0.487920
vn 0.000000 0.000000 -1.000000
vn 0.000000 0.000000 -1.000000
vn 0.000000 0.000000 -1.000000
vn 0.000000 0.000000 -1.000000
vn -0.872888 0.000000 -0.487920
vn -0.872888 0.000000 -0.487920
vn -0.872888 0.000000 -0.487920
vn -0.872888 0.000000 -0.487920
vn -0.876090 0.000000 0.482148
vn -0.876090 0.000000 0.482148
vn -0.876090 0.000000 0.482148
vn -0.876090 0.000000 0.482148
vn 0.000000 0.000000 1.000000
vn 0.000000 0.000000 1.000000
vn 0.000000 0.000000 1.000000
vn 0.000000 0.000000 1.000000
vn 0.000000 1.000000 -0.000000
vn 0.000000 1.000000 -0.000000
vn 0.000000 1.000000 -0.000000
vn 0.000000 1.000000 -0.000000
vn 0.000000 0.000000 -1.000000
vn 0.000000 0.000000 -1.000000
vn 0.000000 0.000000 -1.000000
vn 0.000000 0.000000 -1.000000
vn 0.887209 0.000000 -0.461368
vn 0.887209 0.000000 -0.461367
vn 0.887209 0.000000 -0.461367
vn 0.887209 0.000000 -0.461368
vn -0.901638 0.000000 -0.432492
vn -0.901638 0.000000 -0.432492
vn -0.901638 0.000000 -0.432492
vn -0.901638 0.000000 -0.432492
s off
g polySurface17
usemtl lambert5SG
f 49/125/125 50/126/126 52/127/127 51/128/128
f 51/129/129 52/130/130 54/131/131 53/132/132
f 50/133/133 56/134/134 54/135/135 52/136/136
f 55/137/137 49/138/138 51/139/139 53/140/140
f 57/141/141 58/142/142 60/143/143 59/144/144
f 59/145/145 60/146/146 62/147/147 61/148/148
f 58/149/149 64/150/150 62/151/151 60/152/152
f 63/153/153 57/154/154 59/155/155 61/156/156
f 65/157/157 66/158/158 72/159/159 71/160/160
f 66/161/161 67/162/162 73/163/163 72/164/164
f 67/162/165 68/165/166 74/166/167 73/163/168
f 68/167/169 89/168/170 90/169/171 74/170/172
f 69/171/173 70/172/174 76/173/175 75/174/176
f 70/172/177 65/175/178 71/176/179 76/173/180
f 71/177/181 72/178/182 78/179/183 77/180/184
f 72/178/185 73/181/186 79/182/187 78/179/188
f 73/181/189 74/185/190 80/186/191 79/182/192
f 74/185/193 90/189/194 91/190/195 80/186/196
f 75/187/197 76/183/198 82/184/199 81/188/200
f 76/183/201 71/177/202 77/180/203 82/184/204
f 77/193/205 78/194/206 84/195/207 83/196/208
f 78/197/209 79/198/210 85/199/211 84/200/212
f 79/198/213 80/201/214 86/202/215 85/199/216
f 80/203/217 91/204/218 92/205/219 86/206/220
f 81/207/221 82/208/222 88/209/223 87/210/224
f 82/208/225 77/211/226 83/212/227 88/209/228
f 94/213/229 93/214/230 69/215/231 75/216/232
f 95/191/233 94/192/234 75/187/235 81/188/236
f 96/217/237 95/218/238 81/219/239 87/220/240
f 90/221/241 89/222/242 92/223/243 91/224/244
f 93/225/245 94/226/246 95/227/247 96/228/248
g default
v -0.050394 0.098009 0.250000
v 0.050394 0.098009 0.250000
v -0.050394 0.101991 0.250000
v 0.050394 0.101991 0.250000
v -0.061278 0.101991 0.050000
v 0.061278 0.101991 0.050000
v 0.101929 0.102000 -0.161228
v -0.101929 0.102000 -0.161228
v -0.161145 0.102000 -0.054259
v -0.101929 0.102000 0.072991
v 0.101929 0.102000 0.072991
v 0.161145 0.102000 -0.054259
v 0.000000 0.102000 -0.054259
vt 0.813014 0.939233
vt 0.813014 0.658942
vt 0.824088 0.658942
vt 0.824088 0.939233
vt 0.691847 0.011681
vt 0.964776 0.011681
vt 0.994249 0.553271
vt 0.662374 0.553271
vt 0.656334 0.159282
vt 0.656334 0.721249
vt 0.361460 0.440266
vt 0.361460 0.884487
vt 0.361460 -0.003956
vt 0.010677 0.721249
vt 0.010677 0.159282
vn 0.000000 0.000000 1.000000
vn 0.000000 0.000000 1.000000
vn 0.000000 0.000000 1.000000
vn 0.000000 0.000000 1.000000
vn 0.000000 1.000000 -0.000000
vn 0.000000 1.000000 -0.000000
vn 0.000000 1.000000 -0.000000
vn 0.000000 1.000000 -0.000000
vn 0.000000 1.000000 0.000000
vn 0.000000 1.000000 -0.000000
vn 0.000000 1.000000 0.000000
vn 0.000000 1.000000 -0.000000
vn 0.000000 1.000000 0.000000
vn 0.000000 1.000000 0.000000
vn 0.000000 1.000000 0.000000
s off
g polySurface16
usemtl lambert6SG
f 97/229/249 98/230/250 100/231/251 99/232/252
f 99/233/253 100/234/254 102/235/255 101/236/256
s 1
f 103/237/257 104/238/258 109/239/259
f 104/238/258 105/240/260 109/239/259
f 105/240/260 106/242/261 109/239/259
f 106/242/261 107/243/262 109/239/259
f 107/243/262 108/241/263 109/239/259
f 108/241/263 103/237/257 109/239/259
